rawline-300i.ufo
<glyph name="exclam" format="2">
  <advance width="489"/>
  <unicode hex="0021"/>
  <outline>
    <contour>
      <point x="158" y="446" type="line"/>
      <point x="373" y="1468" type="line"/>
      <point x="477" y="1468" type="line"/>
      <point x="260" y="446" type="line"/>
    </contour>
    <contour>
      <point x="61" y="0" type="line"/>
      <point x="106" y="209" type="line"/>
      <point x="215" y="209" type="line"/>
      <point x="166" y="0" type="line"/>
    </contour>
  </outline>
</glyph>
<glyph name="quotedbl" format="2">
  <advance width="530"/>
  <unicode hex="0022"/>
  <outline>
    <contour>
      <point x="242" y="1106" type="line"/>
      <point x="317" y="1462" type="line"/>
      <point x="410" y="1462" type="line"/>
      <point x="332" y="1106" type="line"/>
    </contour>
    <contour>
      <point x="397" y="1106" type="line"/>
      <point x="473" y="1462" type="line"/>
      <point x="565" y="1462" type="line"/>
      <point x="489" y="1106" type="line"/>
    </contour>
  </outline>
</glyph>
<glyph name="numbersign" format="2">
  <advance width="1312"/>
  <unicode hex="0023"/>
  <outline>
    <contour>
      <point x="1307" y="954" type="line"/>
      <point x="1063" y="954" type="line"/>
      <point x="872" y="518" type="line"/>
      <point x="1133" y="518" type="line"/>
      <point x="1116" y="434" type="line"/>
      <point x="834" y="434" type="line"/>
      <point x="643" y="0" type="line"/>
      <point x="553" y="0" type="line"/>
      <point x="748" y="434" type="line"/>
      <point x="346" y="434" type="line"/>
      <point x="156" y="0" type="line"/>
      <point x="66" y="0" type="line"/>
      <point x="258" y="434" type="line"/>
      <point x="39" y="434" type="line"/>
      <point x="57" y="518" type="line"/>
      <point x="299" y="518" type="line"/>
      <point x="487" y="954" type="line"/>
      <point x="231" y="954" type="line"/>
      <point x="250" y="1034" type="line"/>
      <point x="526" y="1034" type="line"/>
      <point x="711" y="1454" type="line"/>
      <point x="801" y="1454" type="line"/>
      <point x="612" y="1034" type="line"/>
      <point x="1014" y="1034" type="line"/>
      <point x="1198" y="1454" type="line"/>
      <point x="1288" y="1454" type="line"/>
      <point x="1100" y="1034" type="line"/>
      <point x="1325" y="1034" type="line"/>
    </contour>
    <contour>
      <point x="784" y="518" type="line"/>
      <point x="975" y="954" type="line"/>
      <point x="575" y="954" type="line"/>
      <point x="385" y="518" type="line"/>
    </contour>
  </outline>
</glyph>
<glyph name="dollar" format="2">
  <advance width="1212"/>
  <unicode hex="0024"/>
  <outline>
    <contour>
      <point x="1130" y="1212" type="line"/>
      <point x="1034" y="1367"/>
      <point x="799" y="1370" type="qcurve"/>
      <point x="672" y="776" type="line" smooth="yes"/>
      <point x="674" y="774"/>
      <point x="678" y="774" type="qcurve" smooth="yes"/>
      <point x="780" y="750"/>
      <point x="916" y="701"/>
      <point x="1032" y="625"/>
      <point x="1087" y="517"/>
      <point x="1087" y="444" type="qcurve" smooth="yes"/>
      <point x="1087" y="229"/>
      <point x="768" y="-10"/>
      <point x="510" y="-12" type="qcurve"/>
      <point x="469" y="-203" type="line"/>
      <point x="408" y="-203" type="line"/>
      <point x="449" y="-10" type="line"/>
      <point x="165" y="5"/>
      <point x="-2" y="205" type="qcurve"/>
      <point x="72" y="289" type="line"/>
      <point x="133" y="199"/>
      <point x="338" y="91"/>
      <point x="473" y="82" type="qcurve"/>
      <point x="602" y="684" type="line"/>
      <point x="504" y="706"/>
      <point x="374" y="753"/>
      <point x="268" y="822"/>
      <point x="219" y="919"/>
      <point x="219" y="985" type="qcurve" smooth="yes"/>
      <point x="219" y="1195"/>
      <point x="522" y="1452"/>
      <point x="762" y="1464" type="qcurve"/>
      <point x="807" y="1669" type="line"/>
      <point x="868" y="1669" type="line"/>
      <point x="823" y="1464" type="line"/>
      <point x="1074" y="1458"/>
      <point x="1200" y="1294" type="qcurve"/>
    </contour>
    <contour>
      <point x="332" y="1016" type="qcurve" smooth="yes"/>
      <point x="332" y="924"/>
      <point x="467" y="825"/>
      <point x="623" y="786" type="qcurve"/>
      <point x="748" y="1370" type="line"/>
      <point x="538" y="1361"/>
      <point x="332" y="1169"/>
    </contour>
    <contour>
      <point x="973" y="414" type="qcurve" smooth="yes"/>
      <point x="973" y="515"/>
      <point x="818" y="630"/>
      <point x="651" y="672" type="qcurve"/>
      <point x="524" y="80" type="line"/>
      <point x="732" y="80"/>
      <point x="973" y="255"/>
    </contour>
  </outline>
</glyph>
<glyph name="percent" format="2">
  <advance width="1376"/>
  <unicode hex="0025"/>
  <outline>
    <contour>
      <point x="203" y="1133" type="qcurve" smooth="yes"/>
      <point x="203" y="1269"/>
      <point x="420" y="1475"/>
      <point x="555" y="1475" type="qcurve" smooth="yes"/>
      <point x="656" y="1475"/>
      <point x="784" y="1338"/>
      <point x="784" y="1235" type="qcurve" smooth="yes"/>
      <point x="784" y="1100"/>
      <point x="567" y="895"/>
      <point x="432" y="895" type="qcurve" smooth="yes"/>
      <point x="331" y="895"/>
      <point x="203" y="1032"/>
    </contour>
    <contour>
      <point x="-2" y="43" type="line"/>
      <point x="678" y="731" type="line"/>
      <point x="1376" y="1460" type="line"/>
      <point x="1423" y="1413" type="line"/>
      <point x="717" y="692" type="line"/>
      <point x="45" y="-6" type="line"/>
    </contour>
    <contour>
      <point x="702" y="1227" type="qcurve" smooth="yes"/>
      <point x="702" y="1304"/>
      <point x="610" y="1409"/>
      <point x="541" y="1409" type="qcurve" smooth="yes"/>
      <point x="444" y="1409"/>
      <point x="285" y="1244"/>
      <point x="285" y="1143" type="qcurve" smooth="yes"/>
      <point x="285" y="1065"/>
      <point x="375" y="961"/>
      <point x="446" y="961" type="qcurve" smooth="yes"/>
      <point x="543" y="961"/>
      <point x="702" y="1125"/>
    </contour>
    <contour>
      <point x="639" y="219" type="qcurve" smooth="yes"/>
      <point x="639" y="307"/>
      <point x="741" y="466"/>
      <point x="904" y="559"/>
      <point x="991" y="559" type="qcurve" smooth="yes"/>
      <point x="1091" y="559"/>
      <point x="1219" y="423"/>
      <point x="1219" y="322" type="qcurve" smooth="yes"/>
      <point x="1219" y="186"/>
      <point x="1003" y="-20"/>
      <point x="868" y="-20" type="qcurve" smooth="yes"/>
      <point x="768" y="-20"/>
      <point x="639" y="117"/>
    </contour>
    <contour>
      <point x="1139" y="309" type="qcurve" smooth="yes"/>
      <point x="1139" y="386"/>
      <point x="1046" y="494"/>
      <point x="977" y="494" type="qcurve" smooth="yes"/>
      <point x="880" y="494"/>
      <point x="719" y="329"/>
      <point x="719" y="227" type="qcurve" smooth="yes"/>
      <point x="719" y="149"/>
      <point x="810" y="45"/>
      <point x="881" y="45" type="qcurve" smooth="yes"/>
      <point x="978" y="45"/>
      <point x="1139" y="208"/>
    </contour>
  </outline>
</glyph>
<glyph name="ampersand" format="2">
  <advance width="1372"/>
  <unicode hex="0026"/>
  <outline>
    <contour>
      <point x="1323" y="766" type="line"/>
      <point x="1122" y="766" type="line"/>
      <point x="1057" y="506"/>
      <point x="918" y="313" type="qcurve"/>
      <point x="1137" y="0" type="line"/>
      <point x="1004" y="0" type="line"/>
      <point x="848" y="225" type="line"/>
      <point x="746" y="108"/>
      <point x="504" y="-20"/>
      <point x="381" y="-20" type="qcurve" smooth="yes"/>
      <point x="230" y="-20"/>
      <point x="39" y="168"/>
      <point x="39" y="317" type="qcurve" smooth="yes"/>
      <point x="39" y="469"/>
      <point x="238" y="710"/>
      <point x="436" y="827" type="qcurve"/>
      <point x="373" y="925"/>
      <point x="319" y="1059"/>
      <point x="319" y="1116" type="qcurve" smooth="yes"/>
      <point x="319" y="1260"/>
      <point x="569" y="1473"/>
      <point x="735" y="1473" type="qcurve" smooth="yes"/>
      <point x="844" y="1473"/>
      <point x="1017" y="1358"/>
      <point x="1061" y="1257" type="qcurve"/>
      <point x="989" y="1194" type="line"/>
      <point x="953" y="1284"/>
      <point x="809" y="1391"/>
      <point x="719" y="1391" type="qcurve" smooth="yes"/>
      <point x="600" y="1391"/>
      <point x="416" y="1232"/>
      <point x="416" y="1130" type="qcurve" smooth="yes"/>
      <point x="416" y="1030"/>
      <point x="543" y="850" type="qcurve" smooth="yes"/>
      <point x="866" y="387" type="line"/>
      <point x="995" y="590"/>
      <point x="1044" y="852" type="qcurve"/>
      <point x="1341" y="852" type="line"/>
    </contour>
    <contour>
      <point x="401" y="68" type="qcurve" smooth="yes"/>
      <point x="505" y="68"/>
      <point x="712" y="187"/>
      <point x="801" y="295" type="qcurve"/>
      <point x="487" y="752" type="line"/>
      <point x="483" y="758" type="line"/>
      <point x="310" y="655"/>
      <point x="141" y="451"/>
      <point x="141" y="330" type="qcurve" smooth="yes"/>
      <point x="141" y="211"/>
      <point x="286" y="68"/>
    </contour>
  </outline>
</glyph>
<glyph name="quotesingle" format="2">
  <advance width="372"/>
  <unicode hex="0027"/>
  <outline>
    <contour>
      <point x="242" y="1104" type="line"/>
      <point x="317" y="1462" type="line"/>
      <point x="410" y="1462" type="line"/>
      <point x="332" y="1104" type="line"/>
    </contour>
  </outline>
</glyph>
<glyph name="parenleft" format="2">
  <advance width="512"/>
  <unicode hex="0028"/>
  <outline>
    <contour>
      <point x="553" y="1503" type="qcurve"/>
      <point x="623" y="1462" type="line"/>
      <point x="550" y="1375"/>
      <point x="414" y="1177"/>
      <point x="276" y="930"/>
      <point x="193" y="662"/>
      <point x="193" y="545" type="qcurve" smooth="yes"/>
      <point x="193" y="412"/>
      <point x="251" y="103"/>
      <point x="305" y="-23" type="qcurve"/>
      <point x="221" y="-68" type="line"/>
      <point x="161" y="69"/>
      <point x="94" y="386"/>
      <point x="94" y="528" type="qcurve" smooth="yes"/>
      <point x="94" y="634"/>
      <point x="144" y="847"/>
      <point x="218" y="1022"/>
      <point x="350" y="1233"/>
      <point x="464" y="1389"/>
    </contour>
  </outline>
</glyph>
<glyph name="parenright" format="2">
  <advance width="512"/>
  <unicode hex="0029"/>
  <outline>
    <contour>
      <point x="2" y="-68" type="qcurve"/>
      <point x="-66" y="-23" type="line"/>
      <point x="358" y="474"/>
      <point x="358" y="868" type="qcurve" smooth="yes"/>
      <point x="358" y="1019"/>
      <point x="293" y="1358"/>
      <point x="248" y="1462" type="qcurve"/>
      <point x="336" y="1503" type="line"/>
      <point x="459" y="1169"/>
      <point x="459" y="887" type="qcurve" smooth="yes"/>
      <point x="459" y="726"/>
      <point x="340" y="396"/>
      <point x="149" y="105"/>
    </contour>
  </outline>
</glyph>
<glyph name="asterisk" format="2">
  <advance width="626"/>
  <unicode hex="002A"/>
  <outline>
    <contour>
      <point x="283" y="1133" type="line"/>
      <point x="391" y="1255" type="line"/>
      <point x="270" y="1300" type="line"/>
      <point x="301" y="1360" type="line"/>
      <point x="424" y="1311" type="line"/>
      <point x="451" y="1458" type="line"/>
      <point x="520" y="1458" type="line"/>
      <point x="485" y="1311" type="line"/>
      <point x="631" y="1360" type="line"/>
      <point x="633" y="1300" type="line"/>
      <point x="494" y="1255" type="line"/>
      <point x="551" y="1133" type="line"/>
      <point x="489" y="1096" type="line"/>
      <point x="436" y="1221" type="line"/>
      <point x="326" y="1096" type="line"/>
    </contour>
  </outline>
</glyph>
<glyph name="plus" format="2">
  <advance width="845"/>
  <unicode hex="002B"/>
  <outline>
    <contour>
      <point x="756" y="770" type="line"/>
      <point x="756" y="684" type="line"/>
      <point x="489" y="684" type="line"/>
      <point x="489" y="395" type="line"/>
      <point x="395" y="395" type="line"/>
      <point x="395" y="684" type="line"/>
      <point x="127" y="684" type="line"/>
      <point x="127" y="770" type="line"/>
      <point x="395" y="770" type="line"/>
      <point x="395" y="1059" type="line"/>
      <point x="489" y="1059" type="line"/>
      <point x="489" y="770" type="line"/>
    </contour>
  </outline>
</glyph>
<glyph name="comma" format="2">
  <advance width="423"/>
  <unicode hex="002C"/>
  <outline>
    <contour>
      <point x="31" y="-166" type="line"/>
      <point x="94" y="-4" type="line"/>
      <point x="57" y="-4" type="line"/>
      <point x="94" y="174" type="line"/>
      <point x="199" y="174" type="line"/>
      <point x="160" y="-4" type="line"/>
      <point x="86" y="-166" type="line"/>
    </contour>
  </outline>
</glyph>
<glyph name="slash" format="2">
  <advance width="1175"/>
  <unicode hex="002F"/>
  <outline>
    <contour>
      <point x="1282" y="1454" type="line"/>
      <point x="63" y="0" type="line"/>
      <point x="-53" y="0" type="line"/>
      <point x="1165" y="1454" type="line"/>
    </contour>
  </outline>
</glyph>
<glyph name="zero" format="2">
  <advance width="1335"/>
  <unicode hex="0030"/>
  <outline>
    <contour>
      <point x="104" y="561" type="qcurve" smooth="yes"/>
      <point x="104" y="661"/>
      <point x="158" y="875"/>
      <point x="255" y="1071"/>
      <point x="394" y="1248"/>
      <point x="555" y="1378"/>
      <point x="748" y="1454"/>
      <point x="846" y="1454" type="qcurve" smooth="yes"/>
      <point x="934" y="1454"/>
      <point x="1079" y="1384"/>
      <point x="1176" y="1269"/>
      <point x="1242" y="1116"/>
      <point x="1272" y="954"/>
      <point x="1272" y="870" type="qcurve" smooth="yes"/>
      <point x="1272" y="769"/>
      <point x="1218" y="556"/>
      <point x="1122" y="360"/>
      <point x="984" y="184"/>
      <point x="823" y="55"/>
      <point x="630" y="-20"/>
      <point x="532" y="-20" type="qcurve" smooth="yes"/>
      <point x="424" y="-20"/>
      <point x="254" y="83"/>
      <point x="155" y="253"/>
      <point x="104" y="453"/>
    </contour>
    <contour>
      <point x="1165" y="955"/>
      <point x="1123" y="1130"/>
      <point x="1042" y="1273"/>
      <point x="908" y="1358"/>
      <point x="825" y="1358" type="qcurve" smooth="yes"/>
      <point x="721" y="1358"/>
      <point x="526" y="1253"/>
      <point x="381" y="1080"/>
      <point x="270" y="868"/>
      <point x="213" y="644"/>
      <point x="213" y="545" type="qcurve" smooth="yes"/>
      <point x="213" y="469"/>
      <point x="237" y="334"/>
      <point x="290" y="214"/>
      <point x="367" y="127"/>
      <point x="482" y="76"/>
      <point x="553" y="76" type="qcurve" smooth="yes"/>
      <point x="656" y="76"/>
      <point x="850" y="178"/>
      <point x="996" y="344"/>
      <point x="1107" y="549"/>
      <point x="1165" y="765"/>
    </contour>
  </outline>
</glyph>
<glyph name="one" format="2">
  <advance width="768"/>
  <unicode hex="0031"/>
  <outline>
    <contour>
      <point x="18" y="94" type="line"/>
      <point x="279" y="94" type="line"/>
      <point x="545" y="1352" type="line"/>
      <point x="499" y="1299"/>
      <point x="275" y="1176"/>
      <point x="203" y="1176" type="qcurve"/>
      <point x="223" y="1272" type="line"/>
      <point x="261" y="1272"/>
      <point x="360" y="1312"/>
      <point x="446" y="1369"/>
      <point x="524" y="1429"/>
      <point x="568" y="1469"/>
      <point x="571" y="1473" type="qcurve"/>
      <point x="676" y="1473" type="line"/>
      <point x="383" y="94" type="line"/>
      <point x="629" y="94" type="line"/>
      <point x="608" y="0" type="line"/>
      <point x="-2" y="0" type="line"/>
    </contour>
  </outline>
</glyph>
<glyph name="two" format="2">
  <advance width="1120"/>
  <unicode hex="0032"/>
  <outline>
    <contour>
      <point x="492" y="662" type="qcurve" smooth="yes"/>
      <point x="523" y="675"/>
      <point x="633" y="717"/>
      <point x="703" y="744"/>
      <point x="802" y="791"/>
      <point x="866" y="834"/>
      <point x="938" y="899"/>
      <point x="979" y="969"/>
      <point x="1006" y="1066"/>
      <point x="1006" y="1122" type="qcurve" smooth="yes"/>
      <point x="1006" y="1232"/>
      <point x="873" y="1376"/>
      <point x="741" y="1376" type="qcurve" smooth="yes"/>
      <point x="667" y="1376"/>
      <point x="524" y="1332"/>
      <point x="410" y="1258"/>
      <point x="332" y="1192"/>
      <point x="299" y="1155" type="qcurve"/>
      <point x="244" y="1219" type="line"/>
      <point x="259" y="1236"/>
      <point x="301" y="1279"/>
      <point x="408" y="1361"/>
      <point x="522" y="1424"/>
      <point x="689" y="1473"/>
      <point x="774" y="1473" type="qcurve" smooth="yes"/>
      <point x="943" y="1473"/>
      <point x="1120" y="1282"/>
      <point x="1120" y="1139" type="qcurve" smooth="yes"/>
      <point x="1120" y="1062"/>
      <point x="1081" y="932"/>
      <point x="1006" y="834"/>
      <point x="921" y="759"/>
      <point x="801" y="695"/>
      <point x="704" y="651"/>
      <point x="640" y="625" type="qcurve" smooth="yes"/>
      <point x="598" y="608"/>
      <point x="578" y="600" type="qcurve" smooth="yes"/>
      <point x="479" y="560"/>
      <point x="326" y="460"/>
      <point x="229" y="363"/>
      <point x="161" y="249"/>
      <point x="127" y="151"/>
      <point x="117" y="94" type="qcurve"/>
      <point x="905" y="94" type="line"/>
      <point x="887" y="0" type="line"/>
      <point x="-31" y="0" type="line"/>
      <point x="-11" y="112"/>
      <point x="60" y="296"/>
      <point x="152" y="433"/>
      <point x="276" y="546"/>
      <point x="409" y="626"/>
    </contour>
  </outline>
</glyph>
<glyph name="three" format="2">
  <advance width="1140"/>
  <unicode hex="0033"/>
  <outline>
    <contour>
      <point x="35" y="336" type="qcurve"/>
      <point x="113" y="383" type="line"/>
      <point x="113" y="242"/>
      <point x="293" y="78"/>
      <point x="446" y="78" type="qcurve" smooth="yes"/>
      <point x="621" y="78"/>
      <point x="885" y="282"/>
      <point x="885" y="428" type="qcurve" smooth="yes"/>
      <point x="885" y="553"/>
      <point x="675" y="694"/>
      <point x="489" y="694" type="qcurve" smooth="yes"/>
      <point x="424" y="694" type="line"/>
      <point x="442" y="786" type="line"/>
      <point x="510" y="786" type="line" smooth="yes"/>
      <point x="735" y="786"/>
      <point x="991" y="959"/>
      <point x="991" y="1114" type="qcurve" smooth="yes"/>
      <point x="991" y="1236"/>
      <point x="833" y="1378"/>
      <point x="700" y="1378" type="qcurve" smooth="yes"/>
      <point x="577" y="1378"/>
      <point x="359" y="1257"/>
      <point x="301" y="1161" type="qcurve"/>
      <point x="240" y="1227" type="line"/>
      <point x="314" y="1340"/>
      <point x="581" y="1473"/>
      <point x="725" y="1473" type="qcurve" smooth="yes"/>
      <point x="894" y="1473"/>
      <point x="1102" y="1281"/>
      <point x="1102" y="1128" type="qcurve" smooth="yes"/>
      <point x="1102" y="987"/>
      <point x="919" y="784"/>
      <point x="750" y="743" type="qcurve"/>
      <point x="862" y="719"/>
      <point x="991" y="552"/>
      <point x="991" y="438" type="qcurve" smooth="yes"/>
      <point x="991" y="309"/>
      <point x="827" y="96"/>
      <point x="571" y="-18"/>
      <point x="430" y="-18" type="qcurve" smooth="yes"/>
      <point x="252" y="-18"/>
      <point x="35" y="170"/>
    </contour>
  </outline>
</glyph>
<glyph name="four" format="2">
  <advance width="1103"/>
  <unicode hex="0034"/>
  <outline>
    <contour>
      <point x="625" y="0" type="line"/>
      <point x="711" y="406" type="line"/>
      <point x="10" y="406" type="line"/>
      <point x="31" y="496" type="line"/>
      <point x="965" y="1454" type="line"/>
      <point x="1036" y="1454" type="line"/>
      <point x="834" y="500" type="line"/>
      <point x="1006" y="500" type="line"/>
      <point x="985" y="406" type="line"/>
      <point x="813" y="406" type="line"/>
      <point x="727" y="0" type="line"/>
    </contour>
    <contour>
      <point x="739" y="500" type="line"/>
      <point x="907" y="1290" type="line"/>
      <point x="145" y="500" type="line"/>
    </contour>
  </outline>
</glyph>
<glyph name="five" format="2">
  <advance width="1097"/>
  <unicode hex="0035"/>
  <outline>
    <contour>
      <point x="14" y="266" type="qcurve"/>
      <point x="98" y="309" type="line"/>
      <point x="129" y="202"/>
      <point x="298" y="74"/>
      <point x="414" y="74" type="qcurve" smooth="yes"/>
      <point x="532" y="74"/>
      <point x="742" y="192"/>
      <point x="872" y="403"/>
      <point x="872" y="528" type="qcurve" smooth="yes"/>
      <point x="872" y="661"/>
      <point x="715" y="827"/>
      <point x="588" y="827" type="qcurve" smooth="yes"/>
      <point x="490" y="827"/>
      <point x="296" y="733"/>
      <point x="223" y="649" type="qcurve"/>
      <point x="125" y="649" type="line"/>
      <point x="449" y="1454" type="line"/>
      <point x="1112" y="1454" type="line"/>
      <point x="1092" y="1358" type="line"/>
      <point x="506" y="1358" type="line"/>
      <point x="279" y="782" type="line"/>
      <point x="426" y="920"/>
      <point x="616" y="920" type="qcurve" smooth="yes"/>
      <point x="777" y="920"/>
      <point x="979" y="712"/>
      <point x="979" y="547" type="qcurve" smooth="yes"/>
      <point x="979" y="427"/>
      <point x="879" y="213"/>
      <point x="716" y="66"/>
      <point x="505" y="-20"/>
      <point x="395" y="-20" type="qcurve" smooth="yes"/>
      <point x="249" y="-20"/>
      <point x="47" y="135"/>
    </contour>
  </outline>
</glyph>
<glyph name="seven" format="2">
  <advance width="995"/>
  <unicode hex="0037"/>
  <outline>
    <contour>
      <point x="975" y="1358" type="line"/>
      <point x="205" y="1358" type="line"/>
      <point x="223" y="1454" type="line"/>
      <point x="1161" y="1454" type="line"/>
      <point x="147" y="0" type="line"/>
      <point x="33" y="0" type="line"/>
    </contour>
  </outline>
</glyph>
<glyph name="eight" format="2">
  <advance width="1157"/>
  <unicode hex="0038"/>
  <outline>
    <contour>
      <point x="438" y="-14" type="qcurve" smooth="yes"/>
      <point x="261" y="-14"/>
      <point x="51" y="187"/>
      <point x="51" y="336" type="qcurve" smooth="yes"/>
      <point x="51" y="418"/>
      <point x="120" y="569"/>
      <point x="232" y="679"/>
      <point x="362" y="758"/>
      <point x="430" y="780" type="qcurve"/>
      <point x="350" y="814"/>
      <point x="248" y="951"/>
      <point x="248" y="1040" type="qcurve" smooth="yes"/>
      <point x="248" y="1116"/>
      <point x="310" y="1251"/>
      <point x="413" y="1348"/>
      <point x="546" y="1419"/>
      <point x="689" y="1454"/>
      <point x="758" y="1454" type="qcurve" smooth="yes"/>
      <point x="903" y="1454"/>
      <point x="1114" y="1291"/>
      <point x="1114" y="1153" type="qcurve" smooth="yes"/>
      <point x="1114" y="1023"/>
      <point x="930" y="829"/>
      <point x="795" y="780" type="qcurve"/>
      <point x="894" y="742"/>
      <point x="1016" y="574"/>
      <point x="1016" y="463" type="qcurve" smooth="yes"/>
      <point x="1016" y="360"/>
      <point x="917" y="178"/>
      <point x="754" y="56"/>
      <point x="546" y="-14"/>
    </contour>
    <contour>
      <point x="621" y="819" type="qcurve" smooth="yes"/>
      <point x="684" y="819"/>
      <point x="818" y="862"/>
      <point x="934" y="940"/>
      <point x="1008" y="1063"/>
      <point x="1008" y="1135" type="qcurve" smooth="yes"/>
      <point x="1008" y="1237"/>
      <point x="850" y="1360"/>
      <point x="735" y="1360" type="qcurve" smooth="yes"/>
      <point x="640" y="1360"/>
      <point x="466" y="1285"/>
      <point x="350" y="1138"/>
      <point x="350" y="1047" type="qcurve" smooth="yes"/>
      <point x="350" y="944"/>
      <point x="515" y="819"/>
    </contour>
    <contour>
      <point x="600" y="735" type="qcurve" smooth="yes"/>
      <point x="525" y="735"/>
      <point x="368" y="677"/>
      <point x="239" y="579"/>
      <point x="156" y="432"/>
      <point x="156" y="350" type="qcurve" smooth="yes"/>
      <point x="156" y="227"/>
      <point x="342" y="76"/>
      <point x="465" y="76" type="qcurve" smooth="yes"/>
      <point x="540" y="76"/>
      <point x="697" y="132"/>
      <point x="828" y="230"/>
      <point x="911" y="377"/>
      <point x="911" y="459" type="qcurve" smooth="yes"/>
      <point x="911" y="542"/>
      <point x="820" y="671"/>
      <point x="680" y="735"/>
    </contour>
  </outline>
</glyph>
<glyph name="nine" format="2">
  <advance width="1198"/>
  <unicode hex="0039"/>
  <outline>
    <contour>
      <point x="535" y="471" type="qcurve" smooth="yes"/>
      <point x="673" y="471"/>
      <point x="932" y="634"/>
      <point x="1004" y="766" type="qcurve"/>
      <point x="933" y="440"/>
      <point x="637" y="74"/>
      <point x="453" y="74" type="qcurve" smooth="yes"/>
      <point x="339" y="74"/>
      <point x="181" y="207"/>
      <point x="166" y="317" type="qcurve"/>
      <point x="84" y="262" type="line"/>
      <point x="109" y="131"/>
      <point x="296" y="-20"/>
      <point x="432" y="-20" type="qcurve" smooth="yes"/>
      <point x="556" y="-20"/>
      <point x="781" y="92"/>
      <point x="952" y="290"/>
      <point x="1079" y="551"/>
      <point x="1145" y="858"/>
      <point x="1145" y="1018" type="qcurve" smooth="yes"/>
      <point x="1145" y="1225"/>
      <point x="937" y="1464"/>
      <point x="758" y="1464" type="qcurve" smooth="yes"/>
      <point x="644" y="1464"/>
      <point x="423" y="1369"/>
      <point x="256" y="1211"/>
      <point x="154" y="993"/>
      <point x="154" y="877" type="qcurve" smooth="yes"/>
      <point x="154" y="705"/>
      <point x="367" y="471"/>
    </contour>
    <contour>
      <point x="1047" y="1036" type="qcurve" smooth="yes"/>
      <point x="1047" y="914"/>
      <point x="906" y="691"/>
      <point x="682" y="559"/>
      <point x="565" y="559" type="qcurve" smooth="yes"/>
      <point x="431" y="559"/>
      <point x="258" y="755"/>
      <point x="258" y="897" type="qcurve" smooth="yes"/>
      <point x="258" y="1021"/>
      <point x="397" y="1243"/>
      <point x="619" y="1374"/>
      <point x="737" y="1374" type="qcurve" smooth="yes"/>
      <point x="872" y="1374"/>
      <point x="1047" y="1178"/>
    </contour>
  </outline>
</glyph>
<glyph name="colon" format="2">
  <advance width="356"/>
  <unicode hex="003A"/>
  <outline>
    <contour>
      <point x="188" y="885" type="line"/>
      <point x="227" y="1059" type="line"/>
      <point x="315" y="1059" type="line"/>
      <point x="279" y="885" type="line"/>
    </contour>
    <contour>
      <point x="2" y="0" type="line"/>
      <point x="39" y="174" type="line"/>
      <point x="127" y="174" type="line"/>
      <point x="90" y="0" type="line"/>
    </contour>
  </outline>
</glyph>
<glyph name="semicolon" format="2">
  <advance width="366"/>
  <unicode hex="003B"/>
  <outline>
    <contour>
      <point x="193" y="885" type="line"/>
      <point x="229" y="1059" type="line"/>
      <point x="319" y="1059" type="line"/>
      <point x="281" y="885" type="line"/>
    </contour>
    <contour>
      <point x="-25" y="-166" type="line"/>
      <point x="39" y="-4" type="line"/>
      <point x="2" y="-4" type="line"/>
      <point x="41" y="174" type="line"/>
      <point x="143" y="174" type="line"/>
      <point x="104" y="-4" type="line"/>
      <point x="31" y="-166" type="line"/>
    </contour>
  </outline>
</glyph>
<glyph name="less" format="2">
  <advance width="1114"/>
  <unicode hex="003C"/>
  <outline>
    <contour>
      <point x="63" y="559" type="line"/>
      <point x="920" y="1073" type="line"/>
      <point x="920" y="963" type="line"/>
      <point x="211" y="530" type="line"/>
      <point x="920" y="98" type="line"/>
      <point x="920" y="-14" type="line"/>
      <point x="63" y="498" type="line"/>
    </contour>
  </outline>
</glyph>
<glyph name="equal" format="2">
  <advance width="950"/>
  <unicode hex="003D"/>
  <outline>
    <contour>
      <point x="158" y="627" type="line"/>
      <point x="158" y="705" type="line"/>
      <point x="768" y="705" type="line"/>
      <point x="768" y="627" type="line"/>
    </contour>
    <contour>
      <point x="158" y="426" type="line"/>
      <point x="158" y="504" type="line"/>
      <point x="768" y="504" type="line"/>
      <point x="768" y="426" type="line"/>
    </contour>
  </outline>
</glyph>
<glyph name="greater" format="2">
  <advance width="1112"/>
  <unicode hex="003E"/>
  <outline>
    <contour>
      <point x="1014" y="498" type="line"/>
      <point x="156" y="-14" type="line"/>
      <point x="156" y="98" type="line"/>
      <point x="864" y="530" type="line"/>
      <point x="156" y="963" type="line"/>
      <point x="156" y="1073" type="line"/>
      <point x="1014" y="559" type="line"/>
    </contour>
  </outline>
</glyph>
<glyph name="question" format="2">
  <advance width="931"/>
  <unicode hex="003F"/>
  <outline>
    <contour>
      <point x="268" y="395" type="line"/>
      <point x="300" y="546"/>
      <point x="414" y="708"/>
      <point x="510" y="758" type="qcurve" smooth="yes"/>
      <point x="530" y="769"/>
      <point x="602" y="803"/>
      <point x="651" y="827"/>
      <point x="718" y="867"/>
      <point x="764" y="905"/>
      <point x="814" y="962"/>
      <point x="844" y="1023"/>
      <point x="864" y="1107"/>
      <point x="864" y="1155" type="qcurve" smooth="yes"/>
      <point x="864" y="1266"/>
      <point x="734" y="1384"/>
      <point x="635" y="1384" type="qcurve" smooth="yes"/>
      <point x="529" y="1384"/>
      <point x="324" y="1261"/>
      <point x="258" y="1163" type="qcurve"/>
      <point x="193" y="1208" type="line"/>
      <point x="273" y="1332"/>
      <point x="527" y="1473"/>
      <point x="655" y="1473" type="qcurve" smooth="yes"/>
      <point x="785" y="1473"/>
      <point x="961" y="1313"/>
      <point x="961" y="1167" type="qcurve" smooth="yes"/>
      <point x="961" y="1124"/>
      <point x="949" y="1048"/>
      <point x="933" y="988"/>
      <point x="897" y="929"/>
      <point x="871" y="890"/>
      <point x="817" y="844"/>
      <point x="786" y="819"/>
      <point x="717" y="779"/>
      <point x="685" y="762"/>
      <point x="606" y="722"/>
      <point x="592" y="715" type="qcurve" smooth="yes"/>
      <point x="556" y="696"/>
      <point x="510" y="669"/>
      <point x="450" y="616"/>
      <point x="410" y="555"/>
      <point x="371" y="457"/>
      <point x="358" y="395" type="qcurve"/>
    </contour>
    <contour>
      <point x="186" y="0" type="line"/>
      <point x="229" y="201" type="line"/>
      <point x="317" y="201" type="line"/>
      <point x="276" y="0" type="line"/>
    </contour>
  </outline>
</glyph>
<glyph name="at" format="2">
  <advance width="1636"/>
  <unicode hex="0040"/>
  <outline>
    <contour>
      <point x="1446" y="616" type="qcurve" smooth="yes"/>
      <point x="1446" y="772"/>
      <point x="1320" y="1025"/>
      <point x="1078" y="1176"/>
      <point x="920" y="1176" type="qcurve" smooth="yes"/>
      <point x="770" y="1176"/>
      <point x="476" y="1038"/>
      <point x="252" y="810"/>
      <point x="113" y="495"/>
      <point x="113" y="330" type="qcurve" smooth="yes"/>
      <point x="113" y="168"/>
      <point x="241" y="-91"/>
      <point x="478" y="-240"/>
      <point x="631" y="-240" type="qcurve" smooth="yes"/>
      <point x="781" y="-240"/>
      <point x="940" y="-162" type="qcurve"/>
      <point x="952" y="-217" type="line"/>
      <point x="774" y="-299"/>
      <point x="610" y="-299" type="qcurve" smooth="yes"/>
      <point x="490" y="-299"/>
      <point x="281" y="-204"/>
      <point x="135" y="-40"/>
      <point x="51" y="191"/>
      <point x="51" y="324" type="qcurve" smooth="yes"/>
      <point x="51" y="506"/>
      <point x="207" y="848"/>
      <point x="455" y="1090"/>
      <point x="773" y="1235"/>
      <point x="932" y="1235" type="qcurve" smooth="yes"/>
      <point x="1059" y="1235"/>
      <point x="1276" y="1141"/>
      <point x="1424" y="979"/>
      <point x="1507" y="757"/>
      <point x="1507" y="631" type="qcurve" smooth="yes"/>
      <point x="1507" y="549"/>
      <point x="1474" y="369"/>
      <point x="1405" y="194"/>
      <point x="1312" y="53"/>
      <point x="1181" y="-33"/>
      <point x="1108" y="-33" type="qcurve" smooth="yes"/>
      <point x="989" y="-33"/>
      <point x="989" y="96" type="qcurve" smooth="yes"/>
      <point x="989" y="139"/>
      <point x="995" y="162" type="qcurve"/>
      <point x="924" y="94"/>
      <point x="743" y="12"/>
      <point x="657" y="12" type="qcurve" smooth="yes"/>
      <point x="519" y="12"/>
      <point x="352" y="218"/>
      <point x="352" y="377" type="qcurve" smooth="yes"/>
      <point x="352" y="519"/>
      <point x="488" y="774"/>
      <point x="716" y="928"/>
      <point x="842" y="928" type="qcurve" smooth="yes"/>
      <point x="941" y="928"/>
      <point x="1081" y="828"/>
      <point x="1114" y="741" type="qcurve"/>
      <point x="1151" y="922" type="line"/>
      <point x="1225" y="922" type="line"/>
      <point x="1071" y="203" type="line" smooth="yes"/>
      <point x="1059" y="149"/>
      <point x="1059" y="113" type="qcurve" smooth="yes"/>
      <point x="1059" y="31"/>
      <point x="1133" y="31" type="qcurve" smooth="yes"/>
      <point x="1216" y="31"/>
      <point x="1364" y="217"/>
      <point x="1446" y="487"/>
    </contour>
    <contour>
      <point x="1022" y="307" type="qcurve"/>
      <point x="1090" y="653" type="line"/>
      <point x="1061" y="752"/>
      <point x="928" y="858"/>
      <point x="838" y="858" type="qcurve" smooth="yes"/>
      <point x="737" y="858"/>
      <point x="547" y="731"/>
      <point x="428" y="514"/>
      <point x="428" y="393" type="qcurve" smooth="yes"/>
      <point x="428" y="257"/>
      <point x="573" y="82"/>
      <point x="686" y="82" type="qcurve" smooth="yes"/>
      <point x="786" y="82"/>
      <point x="985" y="215"/>
    </contour>
  </outline>
</glyph>
<glyph name="D" format="2">
  <advance width="1409"/>
  <unicode hex="0044"/>
  <anchor x="0" y="0" name="Anchor-11"/>
  <anchor x="659" y="727" name="Anchor-10"/>
  <anchor x="819" y="1452" name="Anchor-9"/>
  <anchor x="0" y="0" name="Anchor-8"/>
  <anchor x="500" y="0" name="Anchor-7"/>
  <outline>
    <contour>
      <point x="365" y="1454" type="line"/>
      <point x="825" y="1454" type="line" smooth="yes"/>
      <point x="956" y="1454"/>
      <point x="1161" y="1369"/>
      <point x="1287" y="1217"/>
      <point x="1352" y="1018"/>
      <point x="1352" y="899" type="qcurve" smooth="yes"/>
      <point x="1352" y="644"/>
      <point x="1136" y="233"/>
      <point x="753" y="0"/>
      <point x="516" y="0" type="qcurve" smooth="yes"/>
      <point x="55" y="0" type="line"/>
    </contour>
    <contour>
      <point x="537" y="94" type="line" smooth="yes"/>
      <point x="665" y="94"/>
      <point x="891" y="178"/>
      <point x="1059" y="326"/>
      <point x="1181" y="524"/>
      <point x="1243" y="757"/>
      <point x="1243" y="881" type="qcurve" smooth="yes"/>
      <point x="1243" y="1098"/>
      <point x="1017" y="1360"/>
      <point x="805" y="1360" type="qcurve" smooth="yes"/>
      <point x="449" y="1360" type="line"/>
      <point x="180" y="94" type="line"/>
    </contour>
  </outline>
</glyph>
<glyph name="H" format="2">
  <advance width="1445"/>
  <unicode hex="0048"/>
  <anchor x="0" y="0" name="Anchor-11"/>
  <anchor x="766" y="727" name="Anchor-10"/>
  <anchor x="920" y="1454" name="Anchor-9"/>
  <anchor x="0" y="0" name="Anchor-8"/>
  <anchor x="612" y="0" name="Anchor-7"/>
  <outline>
    <contour>
      <point x="365" y="1454" type="line"/>
      <point x="469" y="1454" type="line"/>
      <point x="328" y="791" type="line"/>
      <point x="1192" y="791" type="line"/>
      <point x="1333" y="1454" type="line"/>
      <point x="1438" y="1454" type="line"/>
      <point x="1128" y="0" type="line"/>
      <point x="1024" y="0" type="line"/>
      <point x="1171" y="696" type="line"/>
      <point x="309" y="696" type="line"/>
      <point x="160" y="0" type="line"/>
      <point x="55" y="0" type="line"/>
    </contour>
  </outline>
</glyph>
<glyph name="J" format="2">
  <advance width="950"/>
  <unicode hex="004A"/>
  <anchor x="0" y="0" name="Anchor-11"/>
  <anchor x="0" y="0" name="Anchor-10"/>
  <anchor x="909" y="1448" name="Anchor-9"/>
  <anchor x="0" y="0" name="Anchor-8"/>
  <anchor x="0" y="0" name="Anchor-7"/>
  <outline>
    <contour>
      <point x="-72" y="68" type="qcurve"/>
      <point x="-20" y="152" type="line"/>
      <point x="75" y="72"/>
      <point x="233" y="72" type="qcurve" smooth="yes"/>
      <point x="296" y="72"/>
      <point x="400" y="102"/>
      <point x="480" y="154"/>
      <point x="548" y="244"/>
      <point x="597" y="340"/>
      <point x="644" y="484"/>
      <point x="678" y="620"/>
      <point x="698" y="715" type="qcurve" smooth="yes"/>
      <point x="856" y="1452" type="line"/>
      <point x="961" y="1452" type="line"/>
      <point x="803" y="715" type="line" smooth="yes"/>
      <point x="780" y="607"/>
      <point x="741" y="453"/>
      <point x="685" y="288"/>
      <point x="624" y="177"/>
      <point x="538" y="73"/>
      <point x="435" y="13"/>
      <point x="298" y="-23"/>
      <point x="215" y="-23" type="qcurve" smooth="yes"/>
      <point x="46" y="-23"/>
    </contour>
  </outline>
</glyph>
<glyph name="K" format="2">
  <advance width="1241"/>
  <unicode hex="004B"/>
  <anchor x="0" y="0" name="Anchor-11"/>
  <anchor x="0" y="0" name="Anchor-10"/>
  <anchor x="0" y="0" name="Anchor-9"/>
  <anchor x="0" y="0" name="Anchor-8"/>
  <anchor x="541" y="0" name="Anchor-7"/>
  <outline>
    <contour>
      <point x="365" y="1452" type="line"/>
      <point x="469" y="1452" type="line"/>
      <point x="281" y="571" type="line"/>
      <point x="1268" y="1454" type="line"/>
      <point x="1389" y="1454" type="line"/>
      <point x="680" y="817" type="line"/>
      <point x="1108" y="0" type="line"/>
      <point x="991" y="0" type="line"/>
      <point x="602" y="754" type="line"/>
      <point x="256" y="449" type="line"/>
      <point x="160" y="0" type="line"/>
      <point x="55" y="0" type="line"/>
    </contour>
  </outline>
</glyph>
<glyph name="L" format="2">
  <advance width="1136"/>
  <unicode hex="004C"/>
  <anchor x="950" y="1065" name="Anchor-11"/>
  <anchor x="610" y="727" name="Anchor-10"/>
  <anchor x="410" y="1454" name="Anchor-9"/>
  <anchor x="0" y="0" name="Anchor-8"/>
  <anchor x="520" y="0" name="Anchor-7"/>
  <outline>
    <contour>
      <point x="365" y="1454" type="line"/>
      <point x="469" y="1454" type="line"/>
      <point x="180" y="94" type="line"/>
      <point x="1001" y="94" type="line"/>
      <point x="981" y="0" type="line"/>
      <point x="55" y="0" type="line"/>
    </contour>
  </outline>
</glyph>
<glyph name="M" format="2">
  <advance width="1724"/>
  <unicode hex="004D"/>
  <anchor x="0" y="0" name="Anchor-11"/>
  <anchor x="0" y="0" name="Anchor-10"/>
  <anchor x="1059" y="1454" name="Anchor-9"/>
  <anchor x="0" y="0" name="Anchor-8"/>
  <anchor x="750" y="0" name="Anchor-7"/>
  <outline>
    <contour>
      <point x="365" y="1454" type="line"/>
      <point x="469" y="1454" type="line"/>
      <point x="819" y="414" type="line"/>
      <point x="1614" y="1454" type="line"/>
      <point x="1716" y="1454" type="line"/>
      <point x="1407" y="0" type="line"/>
      <point x="1303" y="0" type="line"/>
      <point x="1571" y="1257" type="line"/>
      <point x="823" y="276" type="line"/>
      <point x="758" y="276" type="line"/>
      <point x="428" y="1257" type="line"/>
      <point x="160" y="0" type="line"/>
      <point x="55" y="0" type="line"/>
    </contour>
  </outline>
</glyph>
<glyph name="P" format="2">
  <advance width="1224"/>
  <unicode hex="0050"/>
  <outline>
    <contour>
      <point x="365" y="1454" type="line"/>
      <point x="926" y="1454" type="line" smooth="yes"/>
      <point x="1025" y="1454"/>
      <point x="1177" y="1346"/>
      <point x="1251" y="1179"/>
      <point x="1251" y="1083" type="qcurve" smooth="yes"/>
      <point x="1251" y="954"/>
      <point x="1117" y="707"/>
      <point x="885" y="549"/>
      <point x="754" y="549" type="qcurve" smooth="yes"/>
      <point x="276" y="549" type="line"/>
      <point x="160" y="0" type="line"/>
      <point x="55" y="0" type="line"/>
    </contour>
    <contour>
      <point x="770" y="645" type="line" smooth="yes"/>
      <point x="870" y="645"/>
      <point x="1046" y="775"/>
      <point x="1145" y="974"/>
      <point x="1145" y="1077" type="qcurve" smooth="yes"/>
      <point x="1145" y="1196"/>
      <point x="1011" y="1360"/>
      <point x="907" y="1360" type="qcurve" smooth="yes"/>
      <point x="449" y="1360" type="line"/>
      <point x="297" y="645" type="line"/>
    </contour>
  </outline>
</glyph>
<glyph name="T" format="2">
  <advance width="1185"/>
  <unicode hex="0054"/>
  <anchor x="0" y="0" name="Anchor-11"/>
  <anchor x="0" y="0" name="Anchor-10"/>
  <anchor x="766" y="1448" name="Anchor-9"/>
  <anchor x="0" y="0" name="Anchor-8"/>
  <anchor x="457" y="0" name="Anchor-7"/>
  <outline>
    <contour>
      <point x="694" y="1360" type="line"/>
      <point x="190" y="1360" type="line"/>
      <point x="209" y="1454" type="line"/>
      <point x="1323" y="1454" type="line"/>
      <point x="1303" y="1360" type="line"/>
      <point x="799" y="1360" type="line"/>
      <point x="508" y="0" type="line"/>
      <point x="406" y="0" type="line"/>
    </contour>
  </outline>
</glyph>
<glyph name="V" format="2">
  <advance width="1325"/>
  <unicode hex="0056"/>
  <outline>
    <contour>
      <point x="201" y="1454" type="line"/>
      <point x="311" y="1454" type="line"/>
      <point x="553" y="131" type="line"/>
      <point x="1354" y="1454" type="line"/>
      <point x="1464" y="1454" type="line"/>
      <point x="571" y="0" type="line"/>
      <point x="475" y="0" type="line"/>
    </contour>
  </outline>
</glyph>
<glyph name="Y" format="2">
  <advance width="1232"/>
  <unicode hex="0059"/>
  <anchor x="0" y="0" name="Anchor-11"/>
  <anchor x="0" y="0" name="Anchor-10"/>
  <anchor x="770" y="1448" name="Anchor-9"/>
  <anchor x="0" y="0" name="Anchor-8"/>
  <anchor x="0" y="0" name="Anchor-7"/>
  <outline>
    <contour>
      <point x="541" y="553" type="line"/>
      <point x="190" y="1454" type="line"/>
      <point x="307" y="1454" type="line"/>
      <point x="614" y="649" type="line"/>
      <point x="1266" y="1454" type="line"/>
      <point x="1380" y="1454" type="line"/>
      <point x="645" y="549" type="line"/>
      <point x="526" y="0" type="line"/>
      <point x="424" y="0" type="line"/>
    </contour>
  </outline>
</glyph>
<glyph name="bracketleft" format="2">
  <advance width="487"/>
  <unicode hex="005B"/>
  <outline>
    <contour>
      <point x="35" y="-82" type="line"/>
      <point x="375" y="1516" type="line"/>
      <point x="575" y="1516" type="line"/>
      <point x="557" y="1427" type="line"/>
      <point x="453" y="1427" type="line"/>
      <point x="150" y="6" type="line"/>
      <point x="256" y="6" type="line"/>
      <point x="238" y="-82" type="line"/>
    </contour>
  </outline>
</glyph>
<glyph name="backslash" format="2">
  <advance width="1052"/>
  <unicode hex="005C"/>
  <outline>
    <contour>
      <point x="336" y="1454" type="line"/>
      <point x="872" y="0" type="line"/>
      <point x="756" y="0" type="line"/>
      <point x="217" y="1454" type="line"/>
    </contour>
  </outline>
</glyph>
<glyph name="bracketright" format="2">
  <advance width="485"/>
  <unicode hex="005D"/>
  <outline>
    <contour>
      <point x="-47" y="-82" type="line"/>
      <point x="-29" y="6" type="line"/>
      <point x="76" y="6" type="line"/>
      <point x="379" y="1427" type="line"/>
      <point x="274" y="1427" type="line"/>
      <point x="293" y="1516" type="line"/>
      <point x="494" y="1516" type="line"/>
      <point x="156" y="-82" type="line"/>
    </contour>
  </outline>
</glyph>
<glyph name="asciicircum" format="2">
  <advance width="1081"/>
  <unicode hex="005E"/>
  <outline>
    <contour>
      <point x="109" y="621" type="line"/>
      <point x="514" y="1454" type="line"/>
      <point x="602" y="1454" type="line"/>
      <point x="1006" y="621" type="line"/>
      <point x="911" y="621" type="line"/>
      <point x="559" y="1350" type="line"/>
      <point x="199" y="621" type="line"/>
    </contour>
  </outline>
</glyph>
<glyph name="underscore" format="2">
  <advance width="1024"/>
  <unicode hex="005F"/>
  <outline>
    <contour>
      <point x="-18" y="-94" type="line"/>
      <point x="2" y="0" type="line"/>
      <point x="752" y="0" type="line"/>
      <point x="731" y="-94" type="line"/>
    </contour>
  </outline>
</glyph>
<glyph name="grave" format="2">
  <advance width="440"/>
  <unicode hex="0060"/>
  <anchor x="428" y="1495" name="Anchor-13"/>
  <outline>
    <contour>
      <point x="307" y="1495" type="line"/>
      <point x="422" y="1495" type="line"/>
      <point x="506" y="1321" type="line"/>
      <point x="430" y="1288" type="line"/>
    </contour>
  </outline>
</glyph>
<glyph name="b" format="2">
  <advance width="1200"/>
  <unicode hex="0062"/>
  <outline>
    <contour>
      <point x="162" y="213" type="qcurve"/>
      <point x="117" y="0" type="line"/>
      <point x="25" y="0" type="line"/>
      <point x="342" y="1495" type="line"/>
      <point x="444" y="1495" type="line"/>
      <point x="303" y="834" type="line"/>
      <point x="518" y="1083"/>
      <point x="748" y="1083" type="qcurve" smooth="yes"/>
      <point x="865" y="1083"/>
      <point x="1034" y="954"/>
      <point x="1112" y="760"/>
      <point x="1112" y="645" type="qcurve" smooth="yes"/>
      <point x="1112" y="517"/>
      <point x="1006" y="271"/>
      <point x="837" y="91"/>
      <point x="614" y="-20"/>
      <point x="502" y="-20" type="qcurve" smooth="yes"/>
      <point x="378" y="-20"/>
      <point x="201" y="110"/>
    </contour>
    <contour>
      <point x="1004" y="631" type="qcurve" smooth="yes"/>
      <point x="1004" y="726"/>
      <point x="936" y="887"/>
      <point x="796" y="991"/>
      <point x="702" y="991" type="qcurve" smooth="yes"/>
      <point x="491" y="991"/>
      <point x="279" y="719" type="qcurve"/>
      <point x="197" y="326" type="line"/>
      <point x="209" y="214"/>
      <point x="382" y="72"/>
      <point x="502" y="72" type="qcurve" smooth="yes"/>
      <point x="596" y="72"/>
      <point x="781" y="168"/>
      <point x="919" y="322"/>
      <point x="1004" y="527"/>
    </contour>
  </outline>
</glyph>
<glyph name="f" format="2">
  <advance width="636"/>
  <unicode hex="0066"/>
  <outline>
    <contour>
      <point x="272" y="981" type="line"/>
      <point x="131" y="981" type="line"/>
      <point x="150" y="1065" type="line"/>
      <point x="293" y="1065" type="line"/>
      <point x="299" y="1100" type="line"/>
      <point x="337" y="1293"/>
      <point x="541" y="1516"/>
      <point x="676" y="1516" type="qcurve" smooth="yes"/>
      <point x="732" y="1516"/>
      <point x="833" y="1479"/>
      <point x="864" y="1448" type="qcurve"/>
      <point x="811" y="1374" type="line"/>
      <point x="791" y="1397"/>
      <point x="715" y="1425"/>
      <point x="674" y="1425" type="qcurve" smooth="yes"/>
      <point x="575" y="1425"/>
      <point x="433" y="1258"/>
      <point x="401" y="1102" type="qcurve"/>
      <point x="395" y="1065" type="line"/>
      <point x="680" y="1065" type="line"/>
      <point x="662" y="981" type="line"/>
      <point x="375" y="981" type="line"/>
      <point x="76" y="-436" type="line"/>
      <point x="-27" y="-436" type="line"/>
    </contour>
  </outline>
</glyph>
<glyph name="h" format="2">
  <advance width="1130"/>
  <unicode hex="0068"/>
  <anchor x="0" y="0" name="Anchor-11"/>
  <anchor x="565" y="532" name="Anchor-10"/>
  <anchor x="760" y="1454" name="Anchor-9"/>
  <anchor x="0" y="0" name="Anchor-8"/>
  <anchor x="453" y="0" name="Anchor-7"/>
  <outline>
    <contour>
      <point x="342" y="1495" type="line"/>
      <point x="444" y="1495" type="line"/>
      <point x="299" y="811" type="line"/>
      <point x="387" y="936"/>
      <point x="638" y="1083"/>
      <point x="764" y="1083" type="qcurve" smooth="yes"/>
      <point x="1008" y="1083"/>
      <point x="1008" y="807" type="qcurve" smooth="yes"/>
      <point x="1008" y="716"/>
      <point x="985" y="612" type="qcurve" smooth="yes"/>
      <point x="856" y="0" type="line"/>
      <point x="754" y="0" type="line"/>
      <point x="879" y="594" type="line" smooth="yes"/>
      <point x="899" y="704"/>
      <point x="899" y="764" type="qcurve" smooth="yes"/>
      <point x="899" y="989"/>
      <point x="713" y="989" type="qcurve" smooth="yes"/>
      <point x="591" y="989"/>
      <point x="332" y="799"/>
      <point x="266" y="659" type="qcurve"/>
      <point x="127" y="0" type="line"/>
      <point x="25" y="0" type="line"/>
    </contour>
  </outline>
</glyph>
<glyph name="i" format="2">
  <advance width="411"/>
  <unicode hex="0069"/>
  <anchor x="0" y="0" name="Anchor-11"/>
  <anchor x="0" y="0" name="Anchor-10"/>
  <anchor x="0" y="0" name="Anchor-9"/>
  <anchor x="127" y="0" name="Anchor-8"/>
  <anchor x="76" y="0" name="Anchor-7"/>
  <outline>
    <contour>
      <point x="342" y="1495" type="line"/>
      <point x="444" y="1495" type="line"/>
      <point x="406" y="1307" type="line"/>
      <point x="303" y="1307" type="line"/>
    </contour>
    <contour>
      <point x="250" y="1065" type="line"/>
      <point x="352" y="1065" type="line"/>
      <point x="127" y="0" type="line"/>
      <point x="25" y="0" type="line"/>
    </contour>
  </outline>
</glyph>
<glyph name="j" format="2">
  <advance width="428"/>
  <unicode hex="006A"/>
  <outline>
    <contour>
      <point x="356" y="1495" type="line"/>
      <point x="459" y="1495" type="line"/>
      <point x="418" y="1307" type="line"/>
      <point x="315" y="1307" type="line"/>
    </contour>
    <contour>
      <point x="-420" y="-287" type="qcurve"/>
      <point x="-350" y="-219" type="line"/>
      <point x="-309" y="-268"/>
      <point x="-213" y="-268" type="qcurve" smooth="yes"/>
      <point x="-138" y="-268"/>
      <point x="7" y="-147"/>
      <point x="25" y="-61" type="qcurve" smooth="yes"/>
      <point x="264" y="1065" type="line"/>
      <point x="367" y="1065" type="line"/>
      <point x="129" y="-57" type="line" smooth="yes"/>
      <point x="101" y="-186"/>
      <point x="-112" y="-362"/>
      <point x="-223" y="-362" type="qcurve" smooth="yes"/>
      <point x="-359" y="-362"/>
    </contour>
  </outline>
</glyph>
<glyph name="p" format="2">
  <advance width="1202"/>
  <unicode hex="0070"/>
  <outline>
    <contour>
      <point x="252" y="1065" type="line"/>
      <point x="344" y="1065" type="line"/>
      <point x="299" y="852" type="line"/>
      <point x="384" y="955"/>
      <point x="618" y="1083"/>
      <point x="731" y="1083" type="qcurve" smooth="yes"/>
      <point x="847" y="1083"/>
      <point x="1023" y="955"/>
      <point x="1110" y="753"/>
      <point x="1110" y="633" type="qcurve" smooth="yes"/>
      <point x="1110" y="470"/>
      <point x="950" y="168"/>
      <point x="673" y="-20"/>
      <point x="516" y="-20" type="qcurve" smooth="yes"/>
      <point x="393" y="-20"/>
      <point x="217" y="118"/>
      <point x="176" y="229" type="qcurve"/>
      <point x="35" y="-436" type="line"/>
      <point x="-68" y="-436" type="line"/>
    </contour>
    <contour>
      <point x="1004" y="618" type="qcurve" smooth="yes"/>
      <point x="1004" y="773"/>
      <point x="829" y="991"/>
      <point x="690" y="991" type="qcurve" smooth="yes"/>
      <point x="620" y="991"/>
      <point x="447" y="913"/>
      <point x="300" y="778"/>
      <point x="276" y="705" type="qcurve"/>
      <point x="201" y="354" type="line"/>
      <point x="227" y="232"/>
      <point x="395" y="72"/>
      <point x="512" y="72" type="qcurve" smooth="yes"/>
      <point x="609" y="72"/>
      <point x="794" y="170"/>
      <point x="925" y="325"/>
      <point x="1004" y="522"/>
    </contour>
  </outline>
</glyph>
<glyph name="q" format="2">
  <advance width="1200"/>
  <unicode hex="0071"/>
  <outline>
    <contour>
      <point x="860" y="229" type="line"/>
      <point x="652" y="-20"/>
      <point x="414" y="-20" type="qcurve" smooth="yes"/>
      <point x="302" y="-20"/>
      <point x="134" y="103"/>
      <point x="53" y="299"/>
      <point x="53" y="418" type="qcurve" smooth="yes"/>
      <point x="53" y="545"/>
      <point x="160" y="791"/>
      <point x="331" y="972"/>
      <point x="556" y="1083"/>
      <point x="670" y="1083" type="qcurve" smooth="yes"/>
      <point x="785" y="1083"/>
      <point x="963" y="953"/>
      <point x="1001" y="850" type="qcurve"/>
      <point x="1047" y="1065" type="line"/>
      <point x="1141" y="1065" type="line"/>
      <point x="821" y="-436" type="line"/>
      <point x="719" y="-436" type="line"/>
    </contour>
    <contour>
      <point x="885" y="346" type="qcurve"/>
      <point x="965" y="715" type="line"/>
      <point x="959" y="825"/>
      <point x="789" y="991"/>
      <point x="668" y="991" type="qcurve" smooth="yes"/>
      <point x="571" y="991"/>
      <point x="383" y="893"/>
      <point x="245" y="737"/>
      <point x="160" y="534"/>
      <point x="160" y="434" type="qcurve" smooth="yes"/>
      <point x="160" y="281"/>
      <point x="323" y="72"/>
      <point x="459" y="72" type="qcurve" smooth="yes"/>
      <point x="579" y="72"/>
      <point x="802" y="226"/>
    </contour>
  </outline>
</glyph>
<glyph name="v" format="2">
  <advance width="974"/>
  <unicode hex="0076"/>
  <outline>
    <contour>
      <point x="123" y="1065" type="line"/>
      <point x="229" y="1065" type="line"/>
      <point x="373" y="102" type="line"/>
      <point x="552" y="321"/>
      <point x="816" y="827"/>
      <point x="885" y="1065" type="qcurve"/>
      <point x="983" y="1065" type="line"/>
      <point x="817" y="498"/>
      <point x="399" y="0" type="qcurve"/>
      <point x="293" y="0" type="line"/>
    </contour>
  </outline>
</glyph>
<glyph name="x" format="2">
  <advance width="966"/>
  <unicode hex="0078"/>
  <outline>
    <contour>
      <point x="406" y="530" type="line"/>
      <point x="127" y="1065" type="line"/>
      <point x="240" y="1065" type="line"/>
      <point x="469" y="625" type="line"/>
      <point x="477" y="596" type="line"/>
      <point x="498" y="621" type="line"/>
      <point x="918" y="1065" type="line"/>
      <point x="1030" y="1065" type="line"/>
      <point x="524" y="530" type="line"/>
      <point x="803" y="0" type="line"/>
      <point x="688" y="0" type="line"/>
      <point x="461" y="438" type="line"/>
      <point x="451" y="465" type="line"/>
      <point x="430" y="440" type="line"/>
      <point x="16" y="0" type="line"/>
      <point x="-98" y="0" type="line"/>
    </contour>
  </outline>
</glyph>
<glyph name="braceleft" format="2">
  <advance width="487"/>
  <unicode hex="007B"/>
  <outline>
    <contour>
      <point x="455" y="1427" type="line"/>
      <point x="334" y="860" type="line" smooth="yes"/>
      <point x="330" y="835"/>
      <point x="291" y="763"/>
      <point x="258" y="737" type="qcurve"/>
      <point x="285" y="706"/>
      <point x="285" y="653" type="qcurve" smooth="yes"/>
      <point x="285" y="645"/>
      <point x="283" y="617"/>
      <point x="283" y="614" type="qcurve" smooth="yes"/>
      <point x="156" y="25" type="line"/>
      <point x="264" y="25" type="line"/>
      <point x="244" y="-63" type="line"/>
      <point x="86" y="-63" type="line" smooth="yes"/>
      <point x="53" y="-63"/>
      <point x="53" y="-25" type="qcurve" smooth="yes"/>
      <point x="53" y="-10"/>
      <point x="55" y="-2" type="qcurve" smooth="yes"/>
      <point x="182" y="592" type="line" smooth="yes"/>
      <point x="184" y="602"/>
      <point x="184" y="625" type="qcurve" smooth="yes"/>
      <point x="184" y="692"/>
      <point x="135" y="698" type="qcurve"/>
      <point x="152" y="780" type="line"/>
      <point x="188" y="780"/>
      <point x="237" y="851"/>
      <point x="244" y="883" type="qcurve" smooth="yes"/>
      <point x="365" y="1454" type="line" smooth="yes"/>
      <point x="372" y="1488"/>
      <point x="407" y="1516"/>
      <point x="422" y="1516" type="qcurve" smooth="yes"/>
      <point x="580" y="1516" type="line"/>
      <point x="561" y="1427" type="line"/>
    </contour>
  </outline>
</glyph>
<glyph name="bar" format="2">
  <advance width="563"/>
  <unicode hex="007C"/>
  <outline>
    <contour>
      <point x="246" y="-266" type="line"/>
      <point x="246" y="1587" type="line"/>
      <point x="338" y="1587" type="line"/>
      <point x="338" y="-266" type="line"/>
    </contour>
  </outline>
</glyph>
<glyph name="braceright" format="2">
  <advance width="487"/>
  <unicode hex="007D"/>
  <outline>
    <contour>
      <point x="272" y="1427" type="line"/>
      <point x="291" y="1516" type="line"/>
      <point x="446" y="1516" type="line" smooth="yes"/>
      <point x="453" y="1516"/>
      <point x="467" y="1511"/>
      <point x="481" y="1490"/>
      <point x="481" y="1473" type="qcurve" smooth="yes"/>
      <point x="481" y="1460"/>
      <point x="479" y="1454" type="qcurve" smooth="yes"/>
      <point x="356" y="883" type="line" smooth="yes"/>
      <point x="354" y="877"/>
      <point x="354" y="852" type="qcurve" smooth="yes"/>
      <point x="354" y="823"/>
      <point x="379" y="780"/>
      <point x="406" y="780" type="qcurve"/>
      <point x="387" y="698" type="line"/>
      <point x="352" y="694"/>
      <point x="303" y="632"/>
      <point x="295" y="592" type="qcurve" smooth="yes"/>
      <point x="170" y="-2" type="line" smooth="yes"/>
      <point x="163" y="-33"/>
      <point x="129" y="-63"/>
      <point x="111" y="-63" type="qcurve" smooth="yes"/>
      <point x="-45" y="-63" type="line"/>
      <point x="-27" y="25" type="line"/>
      <point x="80" y="25" type="line"/>
      <point x="205" y="614" type="line" smooth="yes"/>
      <point x="224" y="694"/>
      <point x="279" y="737" type="qcurve"/>
      <point x="254" y="772"/>
      <point x="254" y="819" type="qcurve" smooth="yes"/>
      <point x="254" y="844"/>
      <point x="258" y="860" type="qcurve" smooth="yes"/>
      <point x="379" y="1427" type="line"/>
    </contour>
  </outline>
</glyph>
<glyph name="asciitilde" format="2">
  <advance width="968"/>
  <unicode hex="007E"/>
  <outline>
    <contour>
      <point x="368" y="696"/>
      <point x="453" y="658"/>
      <point x="514" y="611"/>
      <point x="595" y="573"/>
      <point x="631" y="573" type="qcurve" smooth="yes"/>
      <point x="659" y="573"/>
      <point x="710" y="594"/>
      <point x="744" y="623"/>
      <point x="769" y="655"/>
      <point x="780" y="678"/>
      <point x="780" y="682" type="qcurve"/>
      <point x="850" y="682" type="line"/>
      <point x="849" y="677"/>
      <point x="833" y="643"/>
      <point x="794" y="587"/>
      <point x="743" y="538"/>
      <point x="663" y="502"/>
      <point x="618" y="502" type="qcurve" smooth="yes"/>
      <point x="574" y="502"/>
      <point x="484" y="540"/>
      <point x="422" y="585"/>
      <point x="347" y="623"/>
      <point x="317" y="623" type="qcurve" smooth="yes"/>
      <point x="292" y="623"/>
      <point x="245" y="599"/>
      <point x="213" y="564"/>
      <point x="189" y="528"/>
      <point x="178" y="504"/>
      <point x="178" y="502" type="qcurve"/>
      <point x="109" y="502" type="line"/>
      <point x="111" y="510"/>
      <point x="128" y="548"/>
      <point x="166" y="607"/>
      <point x="214" y="659"/>
      <point x="288" y="696"/>
    </contour>
  </outline>
</glyph>
<glyph name="exclamdown" format="2">
  <advance width="489"/>
  <unicode hex="00A1"/>
  <outline>
    <contour>
      <point x="475" y="1466" type="line"/>
      <point x="432" y="1257" type="line"/>
      <point x="324" y="1257" type="line"/>
      <point x="373" y="1466" type="line"/>
    </contour>
    <contour>
      <point x="381" y="1020" type="line"/>
      <point x="164" y="-2" type="line"/>
      <point x="61" y="-2" type="line"/>
      <point x="279" y="1020" type="line"/>
    </contour>
  </outline>
</glyph>
<glyph name="cent" format="2">
  <advance width="1091"/>
  <unicode hex="00A2"/>
  <outline>
    <contour>
      <point x="358" y="-246" type="line"/>
      <point x="408" y="-18" type="line"/>
      <point x="302" y="-9"/>
      <point x="141" y="123"/>
      <point x="61" y="319"/>
      <point x="61" y="430" type="qcurve" smooth="yes"/>
      <point x="61" y="583"/>
      <point x="214" y="872"/>
      <point x="484" y="1068"/>
      <point x="641" y="1081" type="qcurve"/>
      <point x="692" y="1321" type="line"/>
      <point x="754" y="1321" type="line"/>
      <point x="702" y="1081" type="line"/>
      <point x="976" y="1073"/>
      <point x="1040" y="836" type="qcurve"/>
      <point x="934" y="803" type="line"/>
      <point x="881" y="979"/>
      <point x="684" y="989" type="qcurve"/>
      <point x="489" y="74" type="line"/>
      <point x="579" y="76"/>
      <point x="792" y="187"/>
      <point x="831" y="268" type="qcurve"/>
      <point x="926" y="240" type="line"/>
      <point x="860" y="120"/>
      <point x="588" y="-20"/>
      <point x="469" y="-20" type="qcurve"/>
      <point x="420" y="-246" type="line"/>
    </contour>
    <contour>
      <point x="428" y="78" type="qcurve"/>
      <point x="621" y="985" type="line"/>
      <point x="527" y="978"/>
      <point x="355" y="872"/>
      <point x="236" y="717"/>
      <point x="166" y="530"/>
      <point x="166" y="442" type="qcurve" smooth="yes"/>
      <point x="166" y="302"/>
      <point x="309" y="95"/>
    </contour>
  </outline>
</glyph>
<glyph name="sterling" format="2">
  <advance width="954"/>
  <unicode hex="00A3"/>
  <outline>
    <contour>
      <point x="682" y="1464" type="qcurve" smooth="yes"/>
      <point x="784" y="1464"/>
      <point x="941" y="1348"/>
      <point x="977" y="1249" type="qcurve"/>
      <point x="901" y="1186" type="line"/>
      <point x="872" y="1274"/>
      <point x="741" y="1376"/>
      <point x="659" y="1376" type="qcurve" smooth="yes"/>
      <point x="542" y="1376"/>
      <point x="356" y="1189"/>
      <point x="356" y="1063" type="qcurve" smooth="yes"/>
      <point x="356" y="1019"/>
      <point x="377" y="923"/>
      <point x="417" y="793"/>
      <point x="426" y="758" type="qcurve"/>
      <point x="772" y="758" type="line"/>
      <point x="754" y="674" type="line"/>
      <point x="442" y="674" type="line"/>
      <point x="446" y="628"/>
      <point x="446" y="604" type="qcurve" smooth="yes"/>
      <point x="446" y="515"/>
      <point x="405" y="385"/>
      <point x="268" y="208"/>
      <point x="133" y="84" type="qcurve"/>
      <point x="208" y="100"/>
      <point x="276" y="100" type="qcurve" smooth="yes"/>
      <point x="335" y="100"/>
      <point x="503" y="61"/>
      <point x="549" y="61" type="qcurve" smooth="yes"/>
      <point x="621" y="61"/>
      <point x="737" y="100" type="qcurve"/>
      <point x="745" y="18" type="line"/>
      <point x="632" y="-31"/>
      <point x="524" y="-31" type="qcurve" smooth="yes"/>
      <point x="467" y="-31"/>
      <point x="278" y="14"/>
      <point x="217" y="14" type="qcurve" smooth="yes"/>
      <point x="126" y="14"/>
      <point x="10" y="-14" type="qcurve"/>
      <point x="-4" y="61" type="line"/>
      <point x="112" y="163"/>
      <point x="248" y="301"/>
      <point x="327" y="425"/>
      <point x="352" y="526"/>
      <point x="352" y="594" type="qcurve" smooth="yes"/>
      <point x="352" y="634"/>
      <point x="346" y="674" type="qcurve"/>
      <point x="119" y="674" type="line"/>
      <point x="135" y="758" type="line"/>
      <point x="328" y="758" type="line"/>
      <point x="320" y="788"/>
      <point x="279" y="917"/>
      <point x="258" y="1011"/>
      <point x="258" y="1057" type="qcurve" smooth="yes"/>
      <point x="258" y="1164"/>
      <point x="382" y="1354"/>
      <point x="577" y="1464"/>
    </contour>
  </outline>
</glyph>
<glyph name="currency" format="2">
  <advance width="1142"/>
  <unicode hex="00A4"/>
  <outline>
    <contour>
      <point x="346" y="973" type="line"/>
      <point x="444" y="1061"/>
      <point x="582" y="1061" type="qcurve" smooth="yes"/>
      <point x="719" y="1061"/>
      <point x="819" y="971" type="qcurve"/>
      <point x="965" y="1116" type="line"/>
      <point x="1018" y="1063" type="line"/>
      <point x="872" y="918" type="line"/>
      <point x="948" y="816"/>
      <point x="948" y="688" type="qcurve" smooth="yes"/>
      <point x="948" y="561"/>
      <point x="868" y="457" type="qcurve"/>
      <point x="1018" y="311" type="line"/>
      <point x="969" y="262" type="line"/>
      <point x="819" y="406" type="line"/>
      <point x="716" y="319"/>
      <point x="582" y="319" type="qcurve" smooth="yes"/>
      <point x="446" y="319"/>
      <point x="346" y="403" type="qcurve"/>
      <point x="201" y="262" type="line"/>
      <point x="152" y="311" type="line"/>
      <point x="297" y="455" type="line"/>
      <point x="217" y="559"/>
      <point x="217" y="688" type="qcurve" smooth="yes"/>
      <point x="217" y="818"/>
      <point x="293" y="920" type="qcurve"/>
      <point x="152" y="1063" type="line"/>
      <point x="207" y="1116" type="line"/>
    </contour>
    <contour>
      <point x="696" y="395"/>
      <point x="860" y="569"/>
      <point x="860" y="690" type="qcurve" smooth="yes"/>
      <point x="860" y="812"/>
      <point x="697" y="983"/>
      <point x="582" y="983" type="qcurve" smooth="yes"/>
      <point x="469" y="983"/>
      <point x="305" y="810"/>
      <point x="305" y="686" type="qcurve" smooth="yes"/>
      <point x="305" y="565"/>
      <point x="468" y="395"/>
    </contour>
  </outline>
</glyph>
<glyph name="yen" format="2">
  <advance width="1314"/>
  <unicode hex="00A5"/>
  <outline>
    <contour>
      <point x="827" y="731" type="line"/>
      <point x="997" y="731" type="line"/>
      <point x="981" y="653" type="line"/>
      <point x="768" y="653" type="line"/>
      <point x="682" y="549" type="line"/>
      <point x="672" y="496" type="line"/>
      <point x="948" y="496" type="line"/>
      <point x="934" y="420" type="line"/>
      <point x="655" y="420" type="line"/>
      <point x="565" y="0" type="line"/>
      <point x="461" y="0" type="line"/>
      <point x="551" y="420" type="line"/>
      <point x="274" y="420" type="line"/>
      <point x="291" y="496" type="line"/>
      <point x="567" y="496" type="line"/>
      <point x="580" y="553" type="line"/>
      <point x="541" y="653" type="line"/>
      <point x="326" y="653" type="line"/>
      <point x="342" y="731" type="line"/>
      <point x="514" y="731" type="line"/>
      <point x="229" y="1454" type="line"/>
      <point x="346" y="1454" type="line"/>
      <point x="651" y="649" type="line"/>
      <point x="1303" y="1454" type="line"/>
      <point x="1419" y="1454" type="line"/>
    </contour>
  </outline>
</glyph>
<glyph name="brokenbar" format="2">
  <advance width="550"/>
  <unicode hex="00A6"/>
  <outline>
    <contour>
      <point x="332" y="1587" type="line"/>
      <point x="332" y="748" type="line"/>
      <point x="240" y="748" type="line"/>
      <point x="240" y="1587" type="line"/>
    </contour>
    <contour>
      <point x="332" y="573" type="line"/>
      <point x="332" y="-266" type="line"/>
      <point x="240" y="-266" type="line"/>
      <point x="240" y="573" type="line"/>
    </contour>
  </outline>
</glyph>
<glyph name="section" format="2">
  <advance width="985"/>
  <unicode hex="00A7"/>
  <outline>
    <contour>
      <point x="809" y="240" type="qcurve" smooth="yes"/>
      <point x="809" y="159"/>
      <point x="748" y="19"/>
      <point x="651" y="-78"/>
      <point x="526" y="-147"/>
      <point x="399" y="-180"/>
      <point x="340" y="-180" type="qcurve" smooth="yes"/>
      <point x="125" y="-180"/>
      <point x="0" y="0" type="qcurve"/>
      <point x="82" y="63" type="line"/>
      <point x="194" y="-82"/>
      <point x="358" y="-82" type="qcurve" smooth="yes"/>
      <point x="416" y="-82"/>
      <point x="535" y="-41"/>
      <point x="635" y="33"/>
      <point x="698" y="147"/>
      <point x="698" y="213" type="qcurve" smooth="yes"/>
      <point x="698" y="251"/>
      <point x="671" y="309"/>
      <point x="629" y="343"/>
      <point x="565" y="364"/>
      <point x="507" y="373"/>
      <point x="469" y="375" type="qcurve" smooth="yes"/>
      <point x="326" y="381"/>
      <point x="156" y="514"/>
      <point x="156" y="637" type="qcurve" smooth="yes"/>
      <point x="156" y="708"/>
      <point x="217" y="840"/>
      <point x="258" y="881" type="qcurve"/>
      <point x="229" y="904"/>
      <point x="197" y="1000"/>
      <point x="197" y="1059" type="qcurve" smooth="yes"/>
      <point x="197" y="1148"/>
      <point x="281" y="1304"/>
      <point x="415" y="1406"/>
      <point x="574" y="1464"/>
      <point x="651" y="1464" type="qcurve" smooth="yes"/>
      <point x="780" y="1464"/>
      <point x="923" y="1369"/>
      <point x="961" y="1284" type="qcurve"/>
      <point x="870" y="1247" type="line"/>
      <point x="850" y="1313"/>
      <point x="719" y="1370"/>
      <point x="635" y="1370" type="qcurve" smooth="yes"/>
      <point x="557" y="1370"/>
      <point x="406" y="1300"/>
      <point x="301" y="1160"/>
      <point x="301" y="1073" type="qcurve" smooth="yes"/>
      <point x="301" y="896"/>
      <point x="537" y="893" type="qcurve" smooth="yes"/>
      <point x="601" y="893"/>
      <point x="714" y="865"/>
      <point x="807" y="806"/>
      <point x="862" y="705"/>
      <point x="862" y="639" type="qcurve" smooth="yes"/>
      <point x="862" y="567"/>
      <point x="797" y="430"/>
      <point x="750" y="389" type="qcurve"/>
      <point x="809" y="345"/>
    </contour>
    <contour>
      <point x="659" y="420" type="qcurve"/>
      <point x="703" y="453"/>
      <point x="762" y="566"/>
      <point x="762" y="623" type="qcurve" smooth="yes"/>
      <point x="762" y="672"/>
      <point x="719" y="746"/>
      <point x="646" y="786"/>
      <point x="566" y="805"/>
      <point x="522" y="805" type="qcurve" smooth="yes"/>
      <point x="414" y="805"/>
      <point x="346" y="840" type="qcurve"/>
      <point x="308" y="807"/>
      <point x="254" y="696"/>
      <point x="254" y="637" type="qcurve" smooth="yes"/>
      <point x="254" y="584"/>
      <point x="298" y="511"/>
      <point x="366" y="477"/>
      <point x="458" y="455"/>
      <point x="543" y="448"/>
      <point x="633" y="432"/>
    </contour>
  </outline>
</glyph>
<glyph name="dieresis" format="2">
  <advance width="563"/>
  <unicode hex="00A8"/>
  <anchor x="485" y="1491" name="Anchor-13"/>
  <outline>
    <contour>
      <point x="268" y="1311" type="line"/>
      <point x="307" y="1491" type="line"/>
      <point x="395" y="1491" type="line"/>
      <point x="358" y="1311" type="line"/>
    </contour>
    <contour>
      <point x="537" y="1311" type="line"/>
      <point x="575" y="1491" type="line"/>
      <point x="664" y="1491" type="line"/>
      <point x="627" y="1311" type="line"/>
    </contour>
  </outline>
</glyph>
<glyph name="copyright" format="2">
  <advance width="1724"/>
  <unicode hex="00A9"/>
  <outline>
    <contour>
      <point x="137" y="727" type="qcurve" smooth="yes"/>
      <point x="137" y="883"/>
      <point x="251" y="1157"/>
      <point x="448" y="1352"/>
      <point x="725" y="1464"/>
      <point x="883" y="1464" type="qcurve" smooth="yes"/>
      <point x="1042" y="1464"/>
      <point x="1321" y="1352"/>
      <point x="1519" y="1157"/>
      <point x="1634" y="883"/>
      <point x="1634" y="727" type="qcurve" smooth="yes"/>
      <point x="1634" y="570"/>
      <point x="1519" y="295"/>
      <point x="1321" y="99"/>
      <point x="1042" y="-14"/>
      <point x="883" y="-14" type="qcurve" smooth="yes"/>
      <point x="725" y="-14"/>
      <point x="448" y="99"/>
      <point x="251" y="295"/>
      <point x="137" y="570"/>
    </contour>
    <contour>
      <point x="1573" y="721" type="qcurve" smooth="yes"/>
      <point x="1573" y="867"/>
      <point x="1468" y="1122"/>
      <point x="1287" y="1303"/>
      <point x="1031" y="1407"/>
      <point x="885" y="1407" type="qcurve" smooth="yes"/>
      <point x="690" y="1407"/>
      <point x="375" y="1230"/>
      <point x="197" y="918"/>
      <point x="197" y="725" type="qcurve" smooth="yes"/>
      <point x="197" y="533"/>
      <point x="374" y="221"/>
      <point x="690" y="43"/>
      <point x="885" y="43" type="qcurve" smooth="yes"/>
      <point x="1077" y="43"/>
      <point x="1391" y="213"/>
      <point x="1573" y="524"/>
    </contour>
    <contour>
      <point x="432" y="727" type="qcurve" smooth="yes"/>
      <point x="432" y="796"/>
      <point x="466" y="930"/>
      <point x="539" y="1054"/>
      <point x="643" y="1148"/>
      <point x="795" y="1204"/>
      <point x="885" y="1204" type="qcurve" smooth="yes"/>
      <point x="1015" y="1204"/>
      <point x="1219" y="1090"/>
      <point x="1262" y="985" type="qcurve"/>
      <point x="1163" y="952" type="line"/>
      <point x="1142" y="999"/>
      <point x="1073" y="1066"/>
      <point x="992" y="1099"/>
      <point x="921" y="1112"/>
      <point x="885" y="1112" type="qcurve" smooth="yes"/>
      <point x="816" y="1112"/>
      <point x="699" y="1067"/>
      <point x="619" y="991"/>
      <point x="563" y="891"/>
      <point x="537" y="783"/>
      <point x="537" y="727" type="qcurve" smooth="yes"/>
      <point x="537" y="639"/>
      <point x="603" y="491"/>
      <point x="707" y="398"/>
      <point x="830" y="346"/>
      <point x="891" y="346" type="qcurve" smooth="yes"/>
      <point x="977" y="346"/>
      <point x="1146" y="439"/>
      <point x="1180" y="514" type="qcurve"/>
      <point x="1278" y="485" type="line"/>
      <point x="1266" y="450"/>
      <point x="1201" y="372"/>
      <point x="1105" y="300"/>
      <point x="970" y="254"/>
      <point x="899" y="254" type="qcurve" smooth="yes"/>
      <point x="811" y="254"/>
      <point x="644" y="321"/>
      <point x="512" y="440"/>
      <point x="432" y="621"/>
    </contour>
  </outline>
</glyph>
<glyph name="ordfeminine" format="2">
  <advance width="839"/>
  <unicode hex="00AA"/>
  <anchor x="0" y="0" name="Anchor-11"/>
  <anchor x="0" y="0" name="Anchor-10"/>
  <anchor x="399" y="1063" name="Anchor-9"/>
  <anchor x="0" y="0" name="Anchor-8"/>
  <anchor x="795" y="23" name="Anchor-7"/>
  <outline>
    <contour>
      <point x="156" y="897" type="qcurve" smooth="yes"/>
      <point x="156" y="1008"/>
      <point x="355" y="1153"/>
      <point x="498" y="1153" type="qcurve" smooth="yes"/>
      <point x="618" y="1153"/>
      <point x="696" y="1116" type="qcurve"/>
      <point x="709" y="1180" type="line" smooth="yes"/>
      <point x="715" y="1207"/>
      <point x="715" y="1233" type="qcurve" smooth="yes"/>
      <point x="715" y="1301"/>
      <point x="631" y="1380"/>
      <point x="557" y="1380" type="qcurve" smooth="yes"/>
      <point x="456" y="1380"/>
      <point x="315" y="1296" type="qcurve"/>
      <point x="295" y="1360" type="line"/>
      <point x="450" y="1454"/>
      <point x="580" y="1454" type="qcurve" smooth="yes"/>
      <point x="691" y="1454"/>
      <point x="813" y="1347"/>
      <point x="813" y="1249" type="qcurve" smooth="yes"/>
      <point x="813" y="1206"/>
      <point x="805" y="1167" type="qcurve" smooth="yes"/>
      <point x="737" y="854" type="line" smooth="yes"/>
      <point x="735" y="850"/>
      <point x="735" y="840" type="qcurve" smooth="yes"/>
      <point x="735" y="816"/>
      <point x="762" y="813" type="qcurve"/>
      <point x="743" y="725" type="line"/>
      <point x="688" y="722"/>
      <point x="680" y="748" type="qcurve"/>
      <point x="641" y="754"/>
      <point x="641" y="784" type="qcurve"/>
      <point x="645" y="801"/>
      <point x="651" y="846" type="qcurve"/>
      <point x="590" y="782"/>
      <point x="429" y="713"/>
      <point x="344" y="713" type="qcurve" smooth="yes"/>
      <point x="260" y="713"/>
      <point x="156" y="818"/>
    </contour>
    <contour>
      <point x="657" y="940" type="qcurve" smooth="yes"/>
      <point x="682" y="1053" type="line"/>
      <point x="615" y="1087"/>
      <point x="500" y="1087" type="qcurve" smooth="yes"/>
      <point x="393" y="1087"/>
      <point x="252" y="992"/>
      <point x="252" y="915" type="qcurve" smooth="yes"/>
      <point x="252" y="862"/>
      <point x="326" y="791"/>
      <point x="385" y="791" type="qcurve" smooth="yes"/>
      <point x="473" y="791"/>
      <point x="645" y="881"/>
    </contour>
  </outline>
</glyph>
<glyph name="guillemotleft" format="2">
  <advance width="1089"/>
  <unicode hex="00AB"/>
  <outline>
    <contour>
      <point x="74" y="559" type="line"/>
      <point x="625" y="918" type="line"/>
      <point x="606" y="825" type="line"/>
      <point x="154" y="530" type="line"/>
      <point x="481" y="238" type="line"/>
      <point x="461" y="145" type="line"/>
      <point x="59" y="498" type="line"/>
    </contour>
    <contour>
      <point x="471" y="559" type="line"/>
      <point x="1024" y="918" type="line"/>
      <point x="1004" y="825" type="line"/>
      <point x="551" y="530" type="line"/>
      <point x="879" y="238" type="line"/>
      <point x="860" y="145" type="line"/>
      <point x="459" y="498" type="line"/>
    </contour>
  </outline>
</glyph>
<glyph name="logicalnot" format="2">
  <advance width="1134"/>
  <unicode hex="00AC"/>
  <outline>
    <contour>
      <point x="1014" y="725" type="line"/>
      <point x="915" y="268" type="line"/>
      <point x="825" y="268" type="line"/>
      <point x="903" y="631" type="line"/>
      <point x="162" y="631" type="line"/>
      <point x="182" y="725" type="line"/>
    </contour>
  </outline>
</glyph>
<glyph name="sfthyphen" format="2">
  <advance width="1099"/>
  <unicode hex="00AD"/>
  <outline>
    <contour>
      <point x="111" y="510" type="line"/>
      <point x="131" y="604" type="line"/>
      <point x="963" y="604" type="line"/>
      <point x="944" y="510" type="line"/>
    </contour>
  </outline>
</glyph>
<glyph name="registered" format="2">
  <advance width="1724"/>
  <unicode hex="00AE"/>
  <outline>
    <contour>
      <point x="137" y="727" type="qcurve" smooth="yes"/>
      <point x="137" y="883"/>
      <point x="251" y="1157"/>
      <point x="448" y="1352"/>
      <point x="726" y="1464"/>
      <point x="885" y="1464" type="qcurve" smooth="yes"/>
      <point x="1096" y="1464"/>
      <point x="1439" y="1273"/>
      <point x="1634" y="935"/>
      <point x="1634" y="727" type="qcurve" smooth="yes"/>
      <point x="1634" y="570"/>
      <point x="1520" y="295"/>
      <point x="1321" y="99"/>
      <point x="1043" y="-14"/>
      <point x="885" y="-14" type="qcurve" smooth="yes"/>
      <point x="726" y="-14"/>
      <point x="448" y="99"/>
      <point x="251" y="295"/>
      <point x="137" y="570"/>
    </contour>
    <contour>
      <point x="1571" y="727" type="qcurve" smooth="yes"/>
      <point x="1571" y="918"/>
      <point x="1394" y="1229"/>
      <point x="1079" y="1407"/>
      <point x="691" y="1407"/>
      <point x="376" y="1229"/>
      <point x="199" y="918"/>
      <point x="199" y="727" type="qcurve" smooth="yes"/>
      <point x="199" y="534"/>
      <point x="375" y="221"/>
      <point x="689" y="43"/>
      <point x="885" y="43" type="qcurve" smooth="yes"/>
      <point x="1029" y="43"/>
      <point x="1282" y="142"/>
      <point x="1465" y="319"/>
      <point x="1571" y="576"/>
    </contour>
    <contour>
      <point x="578" y="1190" type="line"/>
      <point x="967" y="1190" type="line" smooth="yes"/>
      <point x="1081" y="1190"/>
      <point x="1239" y="1011"/>
      <point x="1239" y="899" type="qcurve" smooth="yes"/>
      <point x="1239" y="794"/>
      <point x="1114" y="634"/>
      <point x="1016" y="621" type="qcurve"/>
      <point x="1249" y="256" type="line"/>
      <point x="1155" y="256" type="line"/>
      <point x="930" y="610" type="line"/>
      <point x="662" y="610" type="line"/>
      <point x="662" y="256" type="line"/>
      <point x="578" y="256" type="line"/>
    </contour>
    <contour>
      <point x="969" y="684" type="line" smooth="yes"/>
      <point x="1058" y="684"/>
      <point x="1157" y="807"/>
      <point x="1157" y="899" type="qcurve" smooth="yes"/>
      <point x="1157" y="990"/>
      <point x="1047" y="1112"/>
      <point x="961" y="1112" type="qcurve" smooth="yes"/>
      <point x="662" y="1112" type="line"/>
      <point x="662" y="684" type="line"/>
    </contour>
  </outline>
</glyph>
<glyph name="macron" format="2">
  <advance width="761"/>
  <unicode hex="00AF"/>
  <anchor x="575" y="1450" name="Anchor-13"/>
  <outline>
    <contour>
      <point x="281" y="1374" type="line"/>
      <point x="297" y="1450" type="line"/>
      <point x="854" y="1450" type="line"/>
      <point x="838" y="1374" type="line"/>
    </contour>
  </outline>
</glyph>
<glyph name="degree" format="2">
  <advance width="520"/>
  <unicode hex="00B0"/>
  <outline>
    <contour>
      <point x="248" y="1288" type="qcurve" smooth="yes"/>
      <point x="248" y="1362"/>
      <point x="362" y="1483"/>
      <point x="438" y="1483" type="qcurve" smooth="yes"/>
      <point x="493" y="1483"/>
      <point x="561" y="1409"/>
      <point x="561" y="1354" type="qcurve" smooth="yes"/>
      <point x="561" y="1278"/>
      <point x="446" y="1163"/>
      <point x="371" y="1163" type="qcurve" smooth="yes"/>
      <point x="316" y="1163"/>
      <point x="248" y="1233"/>
    </contour>
    <contour>
      <point x="496" y="1341" type="qcurve" smooth="yes"/>
      <point x="496" y="1376"/>
      <point x="457" y="1413"/>
      <point x="424" y="1413" type="qcurve" smooth="yes"/>
      <point x="382" y="1413"/>
      <point x="315" y="1350"/>
      <point x="315" y="1307" type="qcurve" smooth="yes"/>
      <point x="315" y="1273"/>
      <point x="353" y="1229"/>
      <point x="385" y="1229" type="qcurve" smooth="yes"/>
      <point x="424" y="1229"/>
      <point x="496" y="1297"/>
    </contour>
  </outline>
</glyph>
<glyph name="plusminus" format="2">
  <advance width="991"/>
  <unicode hex="00B1"/>
  <outline>
    <contour>
      <point x="788" y="782" type="line"/>
      <point x="788" y="694" type="line"/>
      <point x="516" y="694" type="line"/>
      <point x="516" y="399" type="line"/>
      <point x="420" y="399" type="line"/>
      <point x="420" y="694" type="line"/>
      <point x="145" y="694" type="line"/>
      <point x="145" y="782" type="line"/>
      <point x="420" y="782" type="line"/>
      <point x="420" y="1077" type="line"/>
      <point x="516" y="1077" type="line"/>
      <point x="516" y="782" type="line"/>
    </contour>
    <contour>
      <point x="145" y="143" type="line"/>
      <point x="145" y="231" type="line"/>
      <point x="788" y="231" type="line"/>
      <point x="788" y="143" type="line"/>
    </contour>
  </outline>
</glyph>
<glyph name="twosuperior" format="2">
  <advance width="751"/>
  <unicode hex="00B2"/>
  <outline>
    <contour>
      <point x="125" y="846" type="line"/>
      <point x="158" y="996"/>
      <point x="313" y="1163"/>
      <point x="449" y="1212" type="qcurve" smooth="yes"/>
      <point x="467" y="1218"/>
      <point x="537" y="1243"/>
      <point x="578" y="1257"/>
      <point x="641" y="1284"/>
      <point x="679" y="1307"/>
      <point x="724" y="1342"/>
      <point x="749" y="1379"/>
      <point x="766" y="1428"/>
      <point x="766" y="1456" type="qcurve" smooth="yes"/>
      <point x="766" y="1516"/>
      <point x="686" y="1591"/>
      <point x="602" y="1591" type="qcurve" smooth="yes"/>
      <point x="513" y="1591"/>
      <point x="366" y="1515"/>
      <point x="317" y="1468" type="qcurve"/>
      <point x="279" y="1524" type="line"/>
      <point x="293" y="1538"/>
      <point x="337" y="1572"/>
      <point x="424" y="1626"/>
      <point x="548" y="1661"/>
      <point x="614" y="1661" type="qcurve" smooth="yes"/>
      <point x="729" y="1661"/>
      <point x="846" y="1554"/>
      <point x="846" y="1470" type="qcurve" smooth="yes"/>
      <point x="846" y="1417"/>
      <point x="807" y="1330"/>
      <point x="750" y="1272"/>
      <point x="652" y="1219"/>
      <point x="572" y="1188"/>
      <point x="510" y="1167" type="qcurve" smooth="yes"/>
      <point x="284" y="1091"/>
      <point x="248" y="915" type="qcurve"/>
      <point x="733" y="915" type="line"/>
      <point x="717" y="846" type="line"/>
    </contour>
  </outline>
</glyph>
<glyph name="threesuperior" format="2">
  <advance width="757"/>
  <unicode hex="00B3"/>
  <outline>
    <contour>
      <point x="160" y="1022" type="qcurve"/>
      <point x="213" y="1059" type="line"/>
      <point x="213" y="991"/>
      <point x="329" y="901"/>
      <point x="430" y="901" type="qcurve" smooth="yes"/>
      <point x="539" y="901"/>
      <point x="700" y="1007"/>
      <point x="700" y="1083" type="qcurve" smooth="yes"/>
      <point x="700" y="1149"/>
      <point x="563" y="1225"/>
      <point x="444" y="1225" type="qcurve" smooth="yes"/>
      <point x="399" y="1225" type="line"/>
      <point x="414" y="1290" type="line"/>
      <point x="457" y="1290" type="line" smooth="yes"/>
      <point x="597" y="1290"/>
      <point x="754" y="1376"/>
      <point x="754" y="1458" type="qcurve" smooth="yes"/>
      <point x="754" y="1519"/>
      <point x="648" y="1593"/>
      <point x="567" y="1593" type="qcurve" smooth="yes"/>
      <point x="488" y="1593"/>
      <point x="354" y="1530"/>
      <point x="315" y="1477" type="qcurve"/>
      <point x="279" y="1530" type="line"/>
      <point x="323" y="1589"/>
      <point x="490" y="1661"/>
      <point x="582" y="1661" type="qcurve" smooth="yes"/>
      <point x="695" y="1661"/>
      <point x="834" y="1553"/>
      <point x="834" y="1470" type="qcurve" smooth="yes"/>
      <point x="834" y="1389"/>
      <point x="722" y="1282"/>
      <point x="614" y="1260" type="qcurve"/>
      <point x="688" y="1247"/>
      <point x="774" y="1151"/>
      <point x="774" y="1087" type="qcurve" smooth="yes"/>
      <point x="774" y="976"/>
      <point x="561" y="836"/>
      <point x="418" y="836" type="qcurve" smooth="yes"/>
      <point x="297" y="836"/>
      <point x="160" y="937"/>
    </contour>
  </outline>
</glyph>
<glyph name="acute" format="2">
  <advance width="440"/>
  <unicode hex="00B4"/>
  <anchor x="328" y="1495" name="Anchor-13"/>
  <outline>
    <contour>
      <point x="328" y="1288" type="line"/>
      <point x="264" y="1321" type="line"/>
      <point x="420" y="1495" type="line"/>
      <point x="537" y="1495" type="line"/>
    </contour>
  </outline>
</glyph>
<glyph name="mu" format="2">
  <advance width="1210"/>
  <unicode hex="00B5"/>
  <outline>
    <contour>
      <point x="268" y="1065" type="line"/>
      <point x="371" y="1065" type="line"/>
      <point x="244" y="465" type="line" smooth="yes"/>
      <point x="221" y="357"/>
      <point x="221" y="291" type="qcurve" smooth="yes"/>
      <point x="221" y="72"/>
      <point x="414" y="72" type="qcurve" smooth="yes"/>
      <point x="540" y="72"/>
      <point x="795" y="250"/>
      <point x="868" y="393" type="qcurve"/>
      <point x="1012" y="1065" type="line"/>
      <point x="1116" y="1065" type="line"/>
      <point x="920" y="143" type="line" smooth="yes"/>
      <point x="918" y="137"/>
      <point x="918" y="123" type="qcurve" smooth="yes"/>
      <point x="918" y="92"/>
      <point x="952" y="92" type="qcurve"/>
      <point x="930" y="0" type="line"/>
      <point x="880" y="-3"/>
      <point x="866" y="31" type="qcurve"/>
      <point x="816" y="37"/>
      <point x="819" y="82" type="qcurve"/>
      <point x="841" y="205"/>
      <point x="852" y="252" type="qcurve"/>
      <point x="767" y="132"/>
      <point x="513" y="-20"/>
      <point x="389" y="-20" type="qcurve" smooth="yes"/>
      <point x="200" y="-20"/>
      <point x="174" y="168" type="qcurve"/>
      <point x="51" y="-434" type="line"/>
      <point x="-51" y="-434" type="line"/>
    </contour>
  </outline>
</glyph>
<glyph name="paragraph" format="2">
  <advance width="1157"/>
  <unicode hex="00B6"/>
  <outline>
    <contour>
      <point x="797" y="1454" type="qcurve" smooth="yes"/>
      <point x="1239" y="1454" type="line"/>
      <point x="1221" y="1370" type="line"/>
      <point x="1085" y="1370" type="line"/>
      <point x="758" y="-164" type="line"/>
      <point x="668" y="-164" type="line"/>
      <point x="807" y="485" type="line"/>
      <point x="651" y="485" type="line"/>
      <point x="512" y="-164" type="line"/>
      <point x="422" y="-164" type="line"/>
      <point x="559" y="485" type="line"/>
      <point x="356" y="489"/>
      <point x="131" y="692"/>
      <point x="131" y="868" type="qcurve" smooth="yes"/>
      <point x="131" y="1132"/>
      <point x="494" y="1454"/>
    </contour>
    <contour>
      <point x="578" y="571" type="qcurve"/>
      <point x="748" y="1370" type="line"/>
      <point x="585" y="1369"/>
      <point x="346" y="1245"/>
      <point x="223" y="1029"/>
      <point x="223" y="889" type="qcurve" smooth="yes"/>
      <point x="223" y="737"/>
      <point x="418" y="579"/>
    </contour>
    <contour>
      <point x="993" y="1370" type="line"/>
      <point x="840" y="1370" type="line"/>
      <point x="670" y="571" type="line"/>
      <point x="823" y="571" type="line"/>
    </contour>
  </outline>
</glyph>
<glyph name="periodcentered" format="2">
  <advance width="356"/>
  <unicode hex="00B7"/>
  <outline>
    <contour>
      <point x="109" y="508" type="line"/>
      <point x="154" y="715" type="line"/>
      <point x="242" y="715" type="line"/>
      <point x="199" y="508" type="line"/>
    </contour>
  </outline>
</glyph>
<glyph name="cedilla" format="2">
  <advance width="593"/>
  <unicode hex="00B8"/>
  <outline>
    <contour>
      <point x="115" y="-356" type="qcurve" smooth="yes"/>
      <point x="9" y="-356"/>
      <point x="-76" y="-301" type="qcurve"/>
      <point x="-31" y="-240" type="line"/>
      <point x="47" y="-285"/>
      <point x="115" y="-285" type="qcurve" smooth="yes"/>
      <point x="187" y="-285"/>
      <point x="274" y="-210"/>
      <point x="274" y="-150" type="qcurve" smooth="yes"/>
      <point x="274" y="-71"/>
      <point x="178" y="0" type="qcurve"/>
      <point x="233" y="31" type="line"/>
      <point x="340" y="-56"/>
      <point x="340" y="-152" type="qcurve" smooth="yes"/>
      <point x="340" y="-249"/>
      <point x="216" y="-356"/>
    </contour>
  </outline>
</glyph>
<glyph name="onesuperior" format="2">
  <advance width="518"/>
  <unicode hex="00B9"/>
  <outline>
    <contour>
      <point x="541" y="915" type="line"/>
      <point x="526" y="844" type="line"/>
      <point x="147" y="844" type="line"/>
      <point x="162" y="915" type="line"/>
      <point x="322" y="915" type="line"/>
      <point x="461" y="1575" type="line"/>
      <point x="431" y="1545"/>
      <point x="298" y="1477"/>
      <point x="254" y="1477" type="qcurve"/>
      <point x="268" y="1548" type="line"/>
      <point x="306" y="1548"/>
      <point x="410" y="1604"/>
      <point x="475" y="1655"/>
      <point x="479" y="1661" type="qcurve"/>
      <point x="553" y="1661" type="line"/>
      <point x="393" y="915" type="line"/>
    </contour>
  </outline>
</glyph>
<glyph name="ordmasculine" format="2">
  <advance width="882"/>
  <unicode hex="00BA"/>
  <anchor x="0" y="0" name="Anchor-11"/>
  <anchor x="0" y="0" name="Anchor-10"/>
  <anchor x="465" y="1063" name="Anchor-9"/>
  <anchor x="0" y="0" name="Anchor-8"/>
  <anchor x="463" y="0" name="Anchor-7"/>
  <outline>
    <contour>
      <point x="180" y="1014" type="qcurve" smooth="yes"/>
      <point x="180" y="1126"/>
      <point x="300" y="1330"/>
      <point x="502" y="1454"/>
      <point x="614" y="1454" type="qcurve" smooth="yes"/>
      <point x="740" y="1454"/>
      <point x="895" y="1280"/>
      <point x="895" y="1151" type="qcurve" smooth="yes"/>
      <point x="895" y="1040"/>
      <point x="774" y="837"/>
      <point x="571" y="713"/>
      <point x="457" y="713" type="qcurve" smooth="yes"/>
      <point x="330" y="713"/>
      <point x="180" y="886"/>
    </contour>
    <contour>
      <point x="805" y="1139" type="qcurve" smooth="yes"/>
      <point x="805" y="1240"/>
      <point x="689" y="1374"/>
      <point x="598" y="1374" type="qcurve" smooth="yes"/>
      <point x="474" y="1374"/>
      <point x="268" y="1163"/>
      <point x="268" y="1024" type="qcurve" smooth="yes"/>
      <point x="268" y="923"/>
      <point x="383" y="788"/>
      <point x="473" y="788" type="qcurve" smooth="yes"/>
      <point x="598" y="788"/>
      <point x="805" y="1002"/>
    </contour>
  </outline>
</glyph>
<glyph name="guillemotright" format="2">
  <advance width="1089"/>
  <unicode hex="00BB"/>
  <outline>
    <contour>
      <point x="580" y="498" type="line"/>
      <point x="29" y="145" type="line"/>
      <point x="49" y="238" type="line"/>
      <point x="502" y="530" type="line"/>
      <point x="174" y="825" type="line"/>
      <point x="193" y="918" type="line"/>
      <point x="592" y="559" type="line"/>
    </contour>
    <contour>
      <point x="977" y="498" type="line"/>
      <point x="428" y="145" type="line"/>
      <point x="446" y="238" type="line"/>
      <point x="899" y="530" type="line"/>
      <point x="571" y="825" type="line"/>
      <point x="590" y="918" type="line"/>
      <point x="991" y="559" type="line"/>
    </contour>
  </outline>
</glyph>
<glyph name="onequarter" format="2">
  <advance width="1550"/>
  <unicode hex="00BC"/>
  <outline>
    <contour>
      <point x="506" y="752" type="line"/>
      <point x="492" y="680" type="line"/>
      <point x="113" y="680" type="line"/>
      <point x="127" y="752" type="line"/>
      <point x="287" y="752" type="line"/>
      <point x="426" y="1411" type="line"/>
      <point x="396" y="1381"/>
      <point x="263" y="1313"/>
      <point x="219" y="1313" type="qcurve"/>
      <point x="233" y="1384" type="line"/>
      <point x="271" y="1384"/>
      <point x="375" y="1440"/>
      <point x="440" y="1491"/>
      <point x="444" y="1497" type="qcurve"/>
      <point x="518" y="1497" type="line"/>
      <point x="358" y="752" type="line"/>
    </contour>
    <contour>
      <point x="-27" y="43" type="line"/>
      <point x="643" y="723" type="line"/>
      <point x="1352" y="1460" type="line"/>
      <point x="1399" y="1413" type="line"/>
      <point x="682" y="682" type="line"/>
      <point x="20" y="-6" type="line"/>
    </contour>
    <contour>
      <point x="1221" y="217" type="line"/>
      <point x="774" y="217" type="line"/>
      <point x="788" y="283" type="line"/>
      <point x="1368" y="805" type="line"/>
      <point x="1417" y="805" type="line"/>
      <point x="1307" y="287" type="line"/>
      <point x="1417" y="287" type="line"/>
      <point x="1403" y="217" type="line"/>
      <point x="1292" y="217" type="line"/>
      <point x="1245" y="0" type="line"/>
      <point x="1176" y="0" type="line"/>
    </contour>
    <contour>
      <point x="1237" y="287" type="line"/>
      <point x="1325" y="700" type="line"/>
      <point x="870" y="287" type="line"/>
    </contour>
  </outline>
</glyph>
<glyph name="onehalf" format="2">
  <advance width="1548"/>
  <unicode hex="00BD"/>
  <outline>
    <contour>
      <point x="506" y="752" type="line"/>
      <point x="492" y="680" type="line"/>
      <point x="113" y="680" type="line"/>
      <point x="127" y="752" type="line"/>
      <point x="287" y="752" type="line"/>
      <point x="426" y="1411" type="line"/>
      <point x="396" y="1381"/>
      <point x="263" y="1313"/>
      <point x="219" y="1313" type="qcurve"/>
      <point x="233" y="1384" type="line"/>
      <point x="271" y="1384"/>
      <point x="375" y="1440"/>
      <point x="440" y="1491"/>
      <point x="444" y="1497" type="qcurve"/>
      <point x="518" y="1497" type="line"/>
      <point x="358" y="752" type="line"/>
    </contour>
    <contour>
      <point x="-27" y="43" type="line"/>
      <point x="643" y="723" type="line"/>
      <point x="1352" y="1460" type="line"/>
      <point x="1399" y="1413" type="line"/>
      <point x="682" y="682" type="line"/>
      <point x="20" y="-6" type="line"/>
    </contour>
    <contour>
      <point x="754" y="0" type="line"/>
      <point x="787" y="152"/>
      <point x="939" y="320"/>
      <point x="1073" y="369" type="qcurve" smooth="yes"/>
      <point x="1091" y="376"/>
      <point x="1173" y="404"/>
      <point x="1218" y="421"/>
      <point x="1286" y="452"/>
      <point x="1325" y="482"/>
      <point x="1366" y="524"/>
      <point x="1384" y="578"/>
      <point x="1384" y="610" type="qcurve" smooth="yes"/>
      <point x="1384" y="671"/>
      <point x="1308" y="745"/>
      <point x="1225" y="745" type="qcurve" smooth="yes"/>
      <point x="1071" y="745"/>
      <point x="944" y="623" type="qcurve"/>
      <point x="905" y="678" type="line"/>
      <point x="919" y="692"/>
      <point x="962" y="726"/>
      <point x="1049" y="780"/>
      <point x="1172" y="815"/>
      <point x="1237" y="815" type="qcurve" smooth="yes"/>
      <point x="1349" y="815"/>
      <point x="1464" y="709"/>
      <point x="1464" y="625" type="qcurve" smooth="yes"/>
      <point x="1464" y="572"/>
      <point x="1425" y="485"/>
      <point x="1370" y="427"/>
      <point x="1273" y="374"/>
      <point x="1195" y="343"/>
      <point x="1133" y="322" type="qcurve" smooth="yes"/>
      <point x="910" y="246"/>
      <point x="874" y="70" type="qcurve"/>
      <point x="1354" y="70" type="line"/>
      <point x="1337" y="0" type="line"/>
    </contour>
  </outline>
</glyph>
<glyph name="threequarters" format="2">
  <advance width="1789"/>
  <unicode hex="00BE"/>
  <outline>
    <contour>
      <point x="125" y="858" type="qcurve"/>
      <point x="178" y="893" type="line"/>
      <point x="178" y="830"/>
      <point x="296" y="735"/>
      <point x="395" y="735" type="qcurve" smooth="yes"/>
      <point x="503" y="735"/>
      <point x="666" y="844"/>
      <point x="666" y="920" type="qcurve" smooth="yes"/>
      <point x="666" y="986"/>
      <point x="529" y="1061"/>
      <point x="410" y="1061" type="qcurve" smooth="yes"/>
      <point x="365" y="1061" type="line"/>
      <point x="379" y="1126" type="line"/>
      <point x="422" y="1126" type="line" smooth="yes"/>
      <point x="562" y="1126"/>
      <point x="719" y="1211"/>
      <point x="719" y="1292" type="qcurve" smooth="yes"/>
      <point x="719" y="1353"/>
      <point x="612" y="1430"/>
      <point x="532" y="1430" type="qcurve" smooth="yes"/>
      <point x="454" y="1430"/>
      <point x="320" y="1365"/>
      <point x="281" y="1313" type="qcurve"/>
      <point x="244" y="1364" type="line"/>
      <point x="288" y="1425"/>
      <point x="455" y="1497"/>
      <point x="547" y="1497" type="qcurve" smooth="yes"/>
      <point x="660" y="1497"/>
      <point x="799" y="1389"/>
      <point x="799" y="1305" type="qcurve" smooth="yes"/>
      <point x="799" y="1225"/>
      <point x="687" y="1117"/>
      <point x="580" y="1094" type="qcurve"/>
      <point x="654" y="1082"/>
      <point x="739" y="988"/>
      <point x="739" y="924" type="qcurve" smooth="yes"/>
      <point x="739" y="813"/>
      <point x="526" y="670"/>
      <point x="383" y="670" type="qcurve" smooth="yes"/>
      <point x="278" y="670"/>
      <point x="125" y="768"/>
    </contour>
    <contour>
      <point x="213" y="43" type="line"/>
      <point x="883" y="723" type="line"/>
      <point x="1591" y="1460" type="line"/>
      <point x="1638" y="1413" type="line"/>
      <point x="922" y="682" type="line"/>
      <point x="260" y="-6" type="line"/>
    </contour>
    <contour>
      <point x="1460" y="217" type="line"/>
      <point x="1014" y="217" type="line"/>
      <point x="1028" y="283" type="line"/>
      <point x="1608" y="805" type="line"/>
      <point x="1657" y="805" type="line"/>
      <point x="1546" y="287" type="line"/>
      <point x="1657" y="287" type="line"/>
      <point x="1642" y="217" type="line"/>
      <point x="1532" y="217" type="line"/>
      <point x="1485" y="0" type="line"/>
      <point x="1415" y="0" type="line"/>
    </contour>
    <contour>
      <point x="1477" y="287" type="line"/>
      <point x="1565" y="700" type="line"/>
      <point x="1110" y="287" type="line"/>
    </contour>
  </outline>
</glyph>
<glyph name="questiondown" format="2">
  <advance width="921"/>
  <unicode hex="00BF"/>
  <outline>
    <contour>
      <point x="698" y="1036" type="line"/>
      <point x="655" y="836" type="line"/>
      <point x="567" y="836" type="line"/>
      <point x="608" y="1036" type="line"/>
    </contour>
    <contour>
      <point x="616" y="641" type="line"/>
      <point x="584" y="490"/>
      <point x="471" y="329"/>
      <point x="375" y="279" type="qcurve" smooth="yes"/>
      <point x="355" y="268"/>
      <point x="268" y="227"/>
      <point x="215" y="198"/>
      <point x="138" y="150"/>
      <point x="90" y="98"/>
      <point x="43" y="28"/>
      <point x="20" y="-64"/>
      <point x="20" y="-119" type="qcurve" smooth="yes"/>
      <point x="20" y="-229"/>
      <point x="151" y="-348"/>
      <point x="250" y="-348" type="qcurve" smooth="yes"/>
      <point x="356" y="-348"/>
      <point x="561" y="-225"/>
      <point x="627" y="-127" type="qcurve"/>
      <point x="692" y="-172" type="line"/>
      <point x="613" y="-296"/>
      <point x="358" y="-436"/>
      <point x="229" y="-436" type="qcurve" smooth="yes"/>
      <point x="99" y="-436"/>
      <point x="-76" y="-277"/>
      <point x="-76" y="-131" type="qcurve" smooth="yes"/>
      <point x="-76" y="-88"/>
      <point x="-64" y="-11"/>
      <point x="-48" y="48"/>
      <point x="-12" y="107"/>
      <point x="13" y="146"/>
      <point x="69" y="193"/>
      <point x="98" y="218"/>
      <point x="169" y="258"/>
      <point x="199" y="274"/>
      <point x="280" y="315"/>
      <point x="293" y="322" type="qcurve" smooth="yes"/>
      <point x="330" y="341"/>
      <point x="375" y="368"/>
      <point x="434" y="420"/>
      <point x="474" y="481"/>
      <point x="513" y="579"/>
      <point x="526" y="641" type="qcurve"/>
    </contour>
  </outline>
</glyph>
<glyph name="Aacute" format="2">
  <advance width="1329"/>
  <unicode hex="00C1"/>
  <anchor x="0" y="0" name="Anchor-11"/>
  <anchor x="0" y="0" name="Anchor-10"/>
  <anchor x="915" y="1884" name="Anchor-9"/>
  <anchor x="1169" y="0" name="Anchor-8"/>
  <anchor x="553" y="0" name="Anchor-7"/>
  <outline>
    <contour>
      <point x="915" y="1677" type="line"/>
      <point x="852" y="1710" type="line"/>
      <point x="1008" y="1884" type="line"/>
      <point x="1124" y="1884" type="line"/>
    </contour>
    <contour>
      <point x="807" y="1454" type="line"/>
      <point x="897" y="1454" type="line"/>
      <point x="1169" y="0" type="line"/>
      <point x="1059" y="0" type="line"/>
      <point x="969" y="479" type="line"/>
      <point x="315" y="479" type="line"/>
      <point x="25" y="0" type="line"/>
      <point x="-88" y="0" type="line"/>
    </contour>
    <contour>
      <point x="961" y="565" type="line"/>
      <point x="825" y="1327" type="line"/>
      <point x="358" y="565" type="line"/>
    </contour>
  </outline>
</glyph>
<glyph name="Atilde" format="2">
  <advance width="1329"/>
  <unicode hex="00C3"/>
  <anchor x="0" y="0" name="Anchor-11"/>
  <anchor x="0" y="0" name="Anchor-10"/>
  <anchor x="946" y="1884" name="Anchor-9"/>
  <anchor x="1169" y="0" name="Anchor-8"/>
  <anchor x="553" y="0" name="Anchor-7"/>
  <outline>
    <contour>
      <point x="797" y="1796" type="qcurve" smooth="yes"/>
      <point x="717" y="1796"/>
      <point x="678" y="1698" type="qcurve"/>
      <point x="610" y="1698" type="line"/>
      <point x="612" y="1707"/>
      <point x="626" y="1742"/>
      <point x="660" y="1793"/>
      <point x="703" y="1837"/>
      <point x="773" y="1868"/>
      <point x="813" y="1868" type="qcurve" smooth="yes"/>
      <point x="856" y="1868"/>
      <point x="930" y="1827"/>
      <point x="1001" y="1786"/>
      <point x="1042" y="1786" type="qcurve" smooth="yes"/>
      <point x="1071" y="1786"/>
      <point x="1119" y="1805"/>
      <point x="1147" y="1831"/>
      <point x="1168" y="1862"/>
      <point x="1175" y="1879"/>
      <point x="1176" y="1884" type="qcurve"/>
      <point x="1243" y="1884" type="line"/>
      <point x="1241" y="1874"/>
      <point x="1226" y="1839"/>
      <point x="1191" y="1788"/>
      <point x="1145" y="1745"/>
      <point x="1069" y="1714"/>
      <point x="1026" y="1714" type="qcurve" smooth="yes"/>
      <point x="987" y="1714"/>
      <point x="919" y="1740"/>
      <point x="879" y="1770"/>
      <point x="824" y="1796"/>
    </contour>
    <contour>
      <point x="807" y="1454" type="line"/>
      <point x="897" y="1454" type="line"/>
      <point x="1169" y="0" type="line"/>
      <point x="1059" y="0" type="line"/>
      <point x="969" y="479" type="line"/>
      <point x="315" y="479" type="line"/>
      <point x="25" y="0" type="line"/>
      <point x="-88" y="0" type="line"/>
    </contour>
    <contour>
      <point x="961" y="565" type="line"/>
      <point x="825" y="1327" type="line"/>
      <point x="358" y="565" type="line"/>
    </contour>
  </outline>
</glyph>
<glyph name="Aring" format="2">
  <advance width="1329"/>
  <unicode hex="00C5"/>
  <anchor x="0" y="0" name="Anchor-11"/>
  <anchor x="0" y="0" name="Anchor-10"/>
  <anchor x="946" y="1884" name="Anchor-9"/>
  <anchor x="1169" y="0" name="Anchor-8"/>
  <anchor x="553" y="0" name="Anchor-7"/>
  <outline>
    <contour>
      <point x="946" y="1884" type="qcurve" smooth="yes"/>
      <point x="995" y="1884"/>
      <point x="1053" y="1827"/>
      <point x="1053" y="1782" type="qcurve" smooth="yes"/>
      <point x="1053" y="1718"/>
      <point x="957" y="1628"/>
      <point x="889" y="1628" type="qcurve" smooth="yes"/>
      <point x="840" y="1628"/>
      <point x="782" y="1687"/>
      <point x="782" y="1733" type="qcurve" smooth="yes"/>
      <point x="782" y="1797"/>
      <point x="879" y="1884"/>
    </contour>
    <contour>
      <point x="838" y="1741" type="qcurve" smooth="yes"/>
      <point x="838" y="1713"/>
      <point x="872" y="1675"/>
      <point x="901" y="1675" type="qcurve" smooth="yes"/>
      <point x="935" y="1675"/>
      <point x="999" y="1733"/>
      <point x="999" y="1772" type="qcurve" smooth="yes"/>
      <point x="999" y="1802"/>
      <point x="964" y="1837"/>
      <point x="934" y="1837" type="qcurve" smooth="yes"/>
      <point x="896" y="1837"/>
      <point x="838" y="1782"/>
    </contour>
    <contour>
      <point x="807" y="1454" type="line"/>
      <point x="897" y="1454" type="line"/>
      <point x="1169" y="0" type="line"/>
      <point x="1059" y="0" type="line"/>
      <point x="969" y="479" type="line"/>
      <point x="315" y="479" type="line"/>
      <point x="25" y="0" type="line"/>
      <point x="-88" y="0" type="line"/>
    </contour>
    <contour>
      <point x="961" y="565" type="line"/>
      <point x="825" y="1327" type="line"/>
      <point x="358" y="565" type="line"/>
    </contour>
  </outline>
</glyph>
<glyph name="AE" format="2">
  <advance width="1888"/>
  <unicode hex="00C6"/>
  <anchor x="0" y="0" name="Anchor-11"/>
  <anchor x="0" y="0" name="Anchor-10"/>
  <anchor x="1270" y="1448" name="Anchor-9"/>
  <anchor x="0" y="0" name="Anchor-8"/>
  <anchor x="0" y="0" name="Anchor-7"/>
  <outline>
    <contour>
      <point x="1036" y="1454" type="line"/>
      <point x="1962" y="1454" type="line"/>
      <point x="1939" y="1360" type="line"/>
      <point x="1147" y="1360" type="line"/>
      <point x="1028" y="791" type="line"/>
      <point x="1714" y="791" type="line"/>
      <point x="1694" y="694" type="line"/>
      <point x="1006" y="694" type="line"/>
      <point x="879" y="94" type="line"/>
      <point x="1688" y="94" type="line"/>
      <point x="1669" y="0" type="line"/>
      <point x="756" y="0" type="line"/>
      <point x="858" y="479" type="line"/>
      <point x="340" y="479" type="line"/>
      <point x="-51" y="0" type="line"/>
      <point x="-168" y="0" type="line"/>
    </contour>
    <contour>
      <point x="872" y="573" type="line"/>
      <point x="1030" y="1323" type="line"/>
      <point x="410" y="573" type="line"/>
    </contour>
  </outline>
</glyph>
<glyph name="Iacute" format="2">
  <advance width="477"/>
  <unicode hex="00CD"/>
  <anchor x="0" y="0" name="Anchor-11"/>
  <anchor x="0" y="0" name="Anchor-10"/>
  <anchor x="477" y="1880" name="Anchor-9"/>
  <anchor x="160" y="0" name="Anchor-8"/>
  <anchor x="109" y="0" name="Anchor-7"/>
  <outline>
    <contour>
      <point x="477" y="1673" type="line"/>
      <point x="414" y="1706" type="line"/>
      <point x="569" y="1880" type="line"/>
      <point x="686" y="1880" type="line"/>
    </contour>
    <contour>
      <point x="365" y="1452" type="line"/>
      <point x="469" y="1452" type="line"/>
      <point x="160" y="0" type="line"/>
      <point x="55" y="0" type="line"/>
    </contour>
  </outline>
</glyph>
<glyph name="Icircumflex" format="2">
  <advance width="477"/>
  <unicode hex="00CE"/>
  <anchor x="0" y="0" name="Anchor-11"/>
  <anchor x="0" y="0" name="Anchor-10"/>
  <anchor x="492" y="1847" name="Anchor-9"/>
  <anchor x="160" y="0" name="Anchor-8"/>
  <anchor x="109" y="0" name="Anchor-7"/>
  <outline>
    <contour>
      <point x="242" y="1681" type="line"/>
      <point x="467" y="1847" type="line"/>
      <point x="543" y="1847" type="line"/>
      <point x="696" y="1681" type="line"/>
      <point x="627" y="1645" type="line"/>
      <point x="489" y="1774" type="line"/>
      <point x="297" y="1645" type="line"/>
    </contour>
    <contour>
      <point x="365" y="1452" type="line"/>
      <point x="469" y="1452" type="line"/>
      <point x="160" y="0" type="line"/>
      <point x="55" y="0" type="line"/>
    </contour>
  </outline>
</glyph>
<glyph name="Ntilde" format="2">
  <advance width="1517"/>
  <unicode hex="00D1"/>
  <anchor x="0" y="0" name="Anchor-11"/>
  <anchor x="0" y="0" name="Anchor-10"/>
  <anchor x="1055" y="1878" name="Anchor-9"/>
  <anchor x="0" y="0" name="Anchor-8"/>
  <anchor x="649" y="0" name="Anchor-7"/>
  <outline>
    <contour>
      <point x="905" y="1790" type="qcurve" smooth="yes"/>
      <point x="825" y="1790"/>
      <point x="786" y="1692" type="qcurve"/>
      <point x="719" y="1692" type="line"/>
      <point x="721" y="1701"/>
      <point x="735" y="1736"/>
      <point x="769" y="1787"/>
      <point x="812" y="1831"/>
      <point x="882" y="1862"/>
      <point x="922" y="1862" type="qcurve" smooth="yes"/>
      <point x="965" y="1862"/>
      <point x="1039" y="1821"/>
      <point x="1110" y="1780"/>
      <point x="1151" y="1780" type="qcurve" smooth="yes"/>
      <point x="1180" y="1780"/>
      <point x="1228" y="1799"/>
      <point x="1255" y="1825"/>
      <point x="1276" y="1856"/>
      <point x="1283" y="1873"/>
      <point x="1284" y="1878" type="qcurve"/>
      <point x="1352" y="1878" type="line"/>
      <point x="1350" y="1868"/>
      <point x="1335" y="1833"/>
      <point x="1300" y="1782"/>
      <point x="1254" y="1739"/>
      <point x="1178" y="1708"/>
      <point x="1135" y="1708" type="qcurve" smooth="yes"/>
      <point x="1086" y="1708"/>
      <point x="1006" y="1749"/>
      <point x="938" y="1790"/>
    </contour>
    <contour>
      <point x="365" y="1454" type="line"/>
      <point x="446" y="1454" type="line"/>
      <point x="1135" y="174" type="line"/>
      <point x="1405" y="1452" type="line"/>
      <point x="1509" y="1452" type="line"/>
      <point x="1200" y="0" type="line"/>
      <point x="1108" y="0" type="line"/>
      <point x="428" y="1257" type="line"/>
      <point x="160" y="0" type="line"/>
      <point x="55" y="0" type="line"/>
    </contour>
  </outline>
</glyph>
<glyph name="multiply" format="2">
  <advance width="952"/>
  <unicode hex="00D7"/>
  <outline>
    <contour>
      <point x="786" y="297" type="line"/>
      <point x="719" y="231" type="line"/>
      <point x="461" y="489" type="line"/>
      <point x="201" y="231" type="line"/>
      <point x="135" y="299" type="line"/>
      <point x="393" y="555" type="line"/>
      <point x="135" y="815" type="line"/>
      <point x="203" y="881" type="line"/>
      <point x="461" y="623" type="line"/>
      <point x="719" y="883" type="line"/>
      <point x="784" y="815" type="line"/>
      <point x="526" y="555" type="line"/>
    </contour>
  </outline>
</glyph>
<glyph name="Oslash" format="2">
  <advance width="1482"/>
  <unicode hex="00D8"/>
  <anchor x="1149" y="1378" name="Anchor-11"/>
  <anchor x="741" y="727" name="Anchor-10"/>
  <anchor x="934" y="1448" name="Anchor-9"/>
  <anchor x="680" y="0" name="Anchor-8"/>
  <anchor x="627" y="0" name="Anchor-7"/>
  <outline>
    <contour>
      <point x="1436" y="1454" type="line"/>
      <point x="1296" y="1288" type="line"/>
      <point x="1430" y="1120"/>
      <point x="1430" y="864" type="qcurve" smooth="yes"/>
      <point x="1430" y="640"/>
      <point x="1204" y="235"/>
      <point x="827" y="-10"/>
      <point x="616" y="-10" type="qcurve" smooth="yes"/>
      <point x="427" y="-10"/>
      <point x="299" y="96" type="qcurve"/>
      <point x="217" y="0" type="line"/>
      <point x="100" y="0" type="line"/>
      <point x="236" y="160" type="line"/>
      <point x="98" y="330"/>
      <point x="98" y="586" type="qcurve" smooth="yes"/>
      <point x="98" y="755"/>
      <point x="233" y="1079"/>
      <point x="454" y="1318"/>
      <point x="755" y="1464"/>
      <point x="913" y="1464" type="qcurve" smooth="yes"/>
      <point x="1105" y="1464"/>
      <point x="1233" y="1352" type="qcurve"/>
      <point x="1319" y="1454" type="line"/>
    </contour>
    <contour>
      <point x="205" y="594" type="qcurve" smooth="yes"/>
      <point x="205" y="382"/>
      <point x="305" y="244" type="qcurve"/>
      <point x="1165" y="1272" type="line"/>
      <point x="1054" y="1368"/>
      <point x="895" y="1368" type="qcurve" smooth="yes"/>
      <point x="755" y="1368"/>
      <point x="496" y="1233"/>
      <point x="314" y="1016"/>
      <point x="205" y="736"/>
    </contour>
    <contour>
      <point x="1323" y="858" type="qcurve" smooth="yes"/>
      <point x="1323" y="1064"/>
      <point x="1227" y="1204" type="qcurve"/>
      <point x="367" y="178" type="line"/>
      <point x="477" y="86"/>
      <point x="635" y="86" type="qcurve" smooth="yes"/>
      <point x="776" y="86"/>
      <point x="1034" y="221"/>
      <point x="1215" y="438"/>
      <point x="1323" y="717"/>
    </contour>
  </outline>
</glyph>
<glyph name="Thorn" format="2">
  <advance width="1181"/>
  <unicode hex="00DE"/>
  <outline>
    <contour>
      <point x="365" y="1454" type="line"/>
      <point x="469" y="1454" type="line"/>
      <point x="406" y="1159" type="line"/>
      <point x="834" y="1159" type="line" smooth="yes"/>
      <point x="931" y="1159"/>
      <point x="1078" y="1051"/>
      <point x="1151" y="883"/>
      <point x="1151" y="786" type="qcurve" smooth="yes"/>
      <point x="1151" y="691"/>
      <point x="1070" y="498"/>
      <point x="937" y="348"/>
      <point x="751" y="254"/>
      <point x="653" y="254" type="qcurve" smooth="yes"/>
      <point x="213" y="254" type="line"/>
      <point x="160" y="0" type="line"/>
      <point x="55" y="0" type="line"/>
    </contour>
    <contour>
      <point x="670" y="350" type="line" smooth="yes"/>
      <point x="771" y="350"/>
      <point x="948" y="479"/>
      <point x="1047" y="674"/>
      <point x="1047" y="774" type="qcurve" smooth="yes"/>
      <point x="1047" y="894"/>
      <point x="914" y="1063"/>
      <point x="809" y="1063" type="qcurve" smooth="yes"/>
      <point x="387" y="1063" type="line"/>
      <point x="236" y="350" type="line"/>
    </contour>
  </outline>
</glyph>
<glyph name="germandbls" format="2">
  <advance width="1079"/>
  <unicode hex="00DF"/>
  <outline>
    <contour>
      <point x="348" y="82" type="line"/>
      <point x="584" y="87"/>
      <point x="856" y="302"/>
      <point x="856" y="496" type="qcurve" smooth="yes"/>
      <point x="856" y="623"/>
      <point x="704" y="772"/>
      <point x="573" y="772" type="qcurve" smooth="yes"/>
      <point x="537" y="772" type="line"/>
      <point x="557" y="868" type="line"/>
      <point x="592" y="868" type="line" smooth="yes"/>
      <point x="721" y="868"/>
      <point x="907" y="1041"/>
      <point x="907" y="1165" type="qcurve" smooth="yes"/>
      <point x="907" y="1258"/>
      <point x="786" y="1370"/>
      <point x="690" y="1370" type="qcurve" smooth="yes"/>
      <point x="561" y="1370"/>
      <point x="376" y="1185"/>
      <point x="344" y="1036" type="qcurve" smooth="yes"/>
      <point x="123" y="0" type="line"/>
      <point x="25" y="0" type="line"/>
      <point x="248" y="1051" type="line" smooth="yes"/>
      <point x="286" y="1233"/>
      <point x="547" y="1462"/>
      <point x="715" y="1462" type="qcurve" smooth="yes"/>
      <point x="848" y="1462"/>
      <point x="1012" y="1311"/>
      <point x="1012" y="1192" type="qcurve" smooth="yes"/>
      <point x="1012" y="1069"/>
      <point x="833" y="850"/>
      <point x="723" y="825" type="qcurve"/>
      <point x="839" y="798"/>
      <point x="963" y="628"/>
      <point x="963" y="506" type="qcurve" smooth="yes"/>
      <point x="963" y="270"/>
      <point x="620" y="-1"/>
      <point x="328" y="-12" type="qcurve"/>
    </contour>
  </outline>
</glyph>
<glyph name="atilde" format="2">
  <advance width="1210"/>
  <unicode hex="00E3"/>
  <anchor x="0" y="0" name="Anchor-11"/>
  <anchor x="0" y="0" name="Anchor-10"/>
  <anchor x="811" y="1495" name="Anchor-9"/>
  <anchor x="958" y="0" name="Anchor-8"/>
  <anchor x="494" y="0" name="Anchor-7"/>
  <outline>
    <contour>
      <point x="662" y="1407" type="qcurve" smooth="yes"/>
      <point x="582" y="1407"/>
      <point x="543" y="1309" type="qcurve"/>
      <point x="475" y="1309" type="line"/>
      <point x="477" y="1318"/>
      <point x="491" y="1353"/>
      <point x="525" y="1404"/>
      <point x="568" y="1448"/>
      <point x="638" y="1479"/>
      <point x="678" y="1479" type="qcurve" smooth="yes"/>
      <point x="721" y="1479"/>
      <point x="795" y="1438"/>
      <point x="866" y="1397"/>
      <point x="907" y="1397" type="qcurve" smooth="yes"/>
      <point x="936" y="1397"/>
      <point x="984" y="1416"/>
      <point x="1011" y="1442"/>
      <point x="1032" y="1473"/>
      <point x="1039" y="1490"/>
      <point x="1040" y="1495" type="qcurve"/>
      <point x="1108" y="1495" type="line"/>
      <point x="1106" y="1485"/>
      <point x="1091" y="1450"/>
      <point x="1056" y="1399"/>
      <point x="1010" y="1356"/>
      <point x="934" y="1325"/>
      <point x="891" y="1325" type="qcurve" smooth="yes"/>
      <point x="852" y="1325"/>
      <point x="784" y="1351"/>
      <point x="744" y="1381"/>
      <point x="689" y="1407"/>
    </contour>
    <contour>
      <point x="55" y="428" type="qcurve" smooth="yes"/>
      <point x="55" y="551"/>
      <point x="155" y="791"/>
      <point x="317" y="971"/>
      <point x="536" y="1083"/>
      <point x="649" y="1083" type="qcurve" smooth="yes"/>
      <point x="775" y="1083"/>
      <point x="951" y="943"/>
      <point x="991" y="834" type="qcurve"/>
      <point x="1040" y="1065" type="line"/>
      <point x="1145" y="1065" type="line"/>
      <point x="948" y="147" type="line" smooth="yes"/>
      <point x="944" y="131"/>
      <point x="944" y="123" type="qcurve" smooth="yes"/>
      <point x="944" y="92"/>
      <point x="979" y="92" type="qcurve"/>
      <point x="958" y="0" type="line"/>
      <point x="927" y="-4"/>
      <point x="918" y="-2" type="qcurve" smooth="yes"/>
      <point x="844" y="4"/>
      <point x="844" y="70" type="qcurve" smooth="yes"/>
      <point x="844" y="88"/>
      <point x="868" y="213" type="qcurve"/>
      <point x="784" y="107"/>
      <point x="549" y="-20"/>
      <point x="434" y="-20" type="qcurve" smooth="yes"/>
      <point x="320" y="-20"/>
      <point x="144" y="105"/>
      <point x="55" y="308"/>
    </contour>
    <contour>
      <point x="891" y="358" type="qcurve"/>
      <point x="965" y="709" type="line"/>
      <point x="950" y="826"/>
      <point x="773" y="991"/>
      <point x="653" y="991" type="qcurve" smooth="yes"/>
      <point x="528" y="991"/>
      <point x="298" y="825"/>
      <point x="162" y="570"/>
      <point x="162" y="440" type="qcurve" smooth="yes"/>
      <point x="162" y="288"/>
      <point x="337" y="72"/>
      <point x="471" y="72" type="qcurve" smooth="yes"/>
      <point x="546" y="72"/>
      <point x="722" y="149"/>
      <point x="866" y="284"/>
    </contour>
  </outline>
</glyph>
<glyph name="ae" format="2">
  <advance width="1812"/>
  <unicode hex="00E6"/>
  <anchor x="0" y="0" name="Anchor-11"/>
  <anchor x="0" y="0" name="Anchor-10"/>
  <anchor x="930" y="1065" name="Anchor-9"/>
  <anchor x="0" y="0" name="Anchor-8"/>
  <anchor x="0" y="0" name="Anchor-7"/>
  <outline>
    <contour>
      <point x="-4" y="250" type="qcurve" smooth="yes"/>
      <point x="-4" y="358"/>
      <point x="128" y="531"/>
      <point x="355" y="625"/>
      <point x="494" y="625" type="qcurve" smooth="yes"/>
      <point x="629" y="625"/>
      <point x="750" y="584" type="qcurve"/>
      <point x="761" y="622"/>
      <point x="814" y="746"/>
      <point x="823" y="774" type="qcurve"/>
      <point x="823" y="877"/>
      <point x="698" y="1001"/>
      <point x="586" y="1001" type="qcurve" smooth="yes"/>
      <point x="434" y="1001"/>
      <point x="231" y="874" type="qcurve"/>
      <point x="207" y="944" type="line"/>
      <point x="437" y="1083"/>
      <point x="612" y="1083" type="qcurve" smooth="yes"/>
      <point x="733" y="1083"/>
      <point x="888" y="964"/>
      <point x="907" y="856" type="qcurve"/>
      <point x="996" y="960"/>
      <point x="1229" y="1083"/>
      <point x="1352" y="1083" type="qcurve" smooth="yes"/>
      <point x="1529" y="1083"/>
      <point x="1751" y="839"/>
      <point x="1751" y="655" type="qcurve" smooth="yes"/>
      <point x="1751" y="560"/>
      <point x="1722" y="492" type="qcurve"/>
      <point x="829" y="492" type="line"/>
      <point x="825" y="442"/>
      <point x="825" y="418" type="qcurve" smooth="yes"/>
      <point x="825" y="262"/>
      <point x="1003" y="61"/>
      <point x="1145" y="61" type="qcurve" smooth="yes"/>
      <point x="1251" y="61"/>
      <point x="1458" y="176"/>
      <point x="1513" y="266" type="qcurve"/>
      <point x="1599" y="242" type="line"/>
      <point x="1530" y="127"/>
      <point x="1264" y="-20"/>
      <point x="1124" y="-20" type="qcurve" smooth="yes"/>
      <point x="995" y="-20"/>
      <point x="805" y="109"/>
      <point x="760" y="219" type="qcurve"/>
      <point x="703" y="138"/>
      <point x="519" y="25"/>
      <point x="350" y="-20"/>
      <point x="276" y="-20" type="qcurve" smooth="yes"/>
      <point x="145" y="-20"/>
      <point x="-4" y="134"/>
    </contour>
    <contour>
      <point x="1640" y="567" type="line"/>
      <point x="1649" y="614"/>
      <point x="1649" y="662" type="qcurve" smooth="yes"/>
      <point x="1649" y="808"/>
      <point x="1481" y="999"/>
      <point x="1333" y="999" type="qcurve" smooth="yes"/>
      <point x="1171" y="999"/>
      <point x="895" y="755"/>
      <point x="844" y="567" type="qcurve"/>
    </contour>
    <contour>
      <point x="735" y="297" type="qcurve"/>
      <point x="723" y="343"/>
      <point x="723" y="397" type="qcurve" smooth="yes"/>
      <point x="723" y="456"/>
      <point x="735" y="512" type="qcurve"/>
      <point x="623" y="553"/>
      <point x="494" y="553" type="qcurve" smooth="yes"/>
      <point x="320" y="553"/>
      <point x="96" y="396"/>
      <point x="96" y="270" type="qcurve" smooth="yes"/>
      <point x="96" y="181"/>
      <point x="208" y="61"/>
      <point x="315" y="61" type="qcurve" smooth="yes"/>
      <point x="393" y="61"/>
      <point x="571" y="123"/>
      <point x="713" y="234"/>
    </contour>
  </outline>
</glyph>
<glyph name="ccedilla" format="2">
  <advance width="1069"/>
  <unicode hex="00E7"/>
  <anchor x="0" y="0" name="Anchor-11"/>
  <anchor x="0" y="0" name="Anchor-10"/>
  <anchor x="684" y="1065" name="Anchor-9"/>
  <anchor x="0" y="0" name="Anchor-8"/>
  <anchor x="473" y="0" name="Anchor-7"/>
  <outline>
    <contour>
      <point x="674" y="991" type="qcurve" smooth="yes"/>
      <point x="545" y="991"/>
      <point x="308" y="843"/>
      <point x="160" y="589"/>
      <point x="160" y="446" type="qcurve" smooth="yes"/>
      <point x="160" y="286"/>
      <point x="332" y="72"/>
      <point x="467" y="72" type="qcurve" smooth="yes"/>
      <point x="572" y="72"/>
      <point x="785" y="189"/>
      <point x="825" y="268" type="qcurve"/>
      <point x="920" y="240" type="line"/>
      <point x="866" y="145"/>
      <point x="660" y="8"/>
      <point x="541" y="-12" type="qcurve"/>
      <point x="600" y="-77"/>
      <point x="600" y="-152" type="qcurve" smooth="yes"/>
      <point x="600" y="-249"/>
      <point x="476" y="-356"/>
      <point x="375" y="-356" type="qcurve" smooth="yes"/>
      <point x="269" y="-356"/>
      <point x="184" y="-301" type="qcurve"/>
      <point x="229" y="-240" type="line"/>
      <point x="307" y="-285"/>
      <point x="375" y="-285" type="qcurve" smooth="yes"/>
      <point x="447" y="-285"/>
      <point x="535" y="-210"/>
      <point x="535" y="-150" type="qcurve" smooth="yes"/>
      <point x="535" y="-81"/>
      <point x="465" y="-20" type="qcurve"/>
      <point x="457" y="-20" type="line" smooth="yes"/>
      <point x="275" y="-20"/>
      <point x="55" y="238"/>
      <point x="55" y="430" type="qcurve" smooth="yes"/>
      <point x="55" y="558"/>
      <point x="157" y="799"/>
      <point x="327" y="976"/>
      <point x="560" y="1083"/>
      <point x="684" y="1083" type="qcurve" smooth="yes"/>
      <point x="824" y="1083"/>
      <point x="1006" y="953"/>
      <point x="1036" y="836" type="qcurve"/>
      <point x="928" y="803" type="line"/>
      <point x="903" y="892"/>
      <point x="769" y="991"/>
    </contour>
  </outline>
</glyph>
<glyph name="igrave" format="2">
  <advance width="411"/>
  <unicode hex="00EC"/>
  <anchor x="0" y="0" name="Anchor-11"/>
  <anchor x="0" y="0" name="Anchor-10"/>
  <anchor x="485" y="1421" name="Anchor-9"/>
  <anchor x="258" y="20" name="Anchor-8"/>
  <anchor x="76" y="0" name="Anchor-7"/>
  <outline>
    <contour>
      <point x="365" y="1421" type="line"/>
      <point x="479" y="1421" type="line"/>
      <point x="563" y="1247" type="line"/>
      <point x="487" y="1214" type="line"/>
    </contour>
    <contour>
      <point x="250" y="1065" type="line"/>
      <point x="352" y="1065" type="line"/>
      <point x="127" y="0" type="line"/>
      <point x="25" y="0" type="line"/>
    </contour>
  </outline>
</glyph>
<glyph name="iacute" format="2">
  <advance width="411"/>
  <unicode hex="00ED"/>
  <anchor x="0" y="0" name="Anchor-11"/>
  <anchor x="0" y="0" name="Anchor-10"/>
  <anchor x="362" y="1495" name="Anchor-9"/>
  <anchor x="258" y="20" name="Anchor-8"/>
  <anchor x="76" y="0" name="Anchor-7"/>
  <outline>
    <contour>
      <point x="362" y="1288" type="line"/>
      <point x="299" y="1321" type="line"/>
      <point x="455" y="1495" type="line"/>
      <point x="571" y="1495" type="line"/>
    </contour>
    <contour>
      <point x="250" y="1065" type="line"/>
      <point x="352" y="1065" type="line"/>
      <point x="127" y="0" type="line"/>
      <point x="25" y="0" type="line"/>
    </contour>
  </outline>
</glyph>
<glyph name="icircumflex" format="2">
  <advance width="411"/>
  <unicode hex="00EE"/>
  <anchor x="0" y="0" name="Anchor-11"/>
  <anchor x="0" y="0" name="Anchor-10"/>
  <anchor x="377" y="1462" name="Anchor-9"/>
  <anchor x="258" y="20" name="Anchor-8"/>
  <anchor x="76" y="0" name="Anchor-7"/>
  <outline>
    <contour>
      <point x="127" y="1296" type="line"/>
      <point x="352" y="1462" type="line"/>
      <point x="428" y="1462" type="line"/>
      <point x="582" y="1296" type="line"/>
      <point x="512" y="1260" type="line"/>
      <point x="375" y="1389" type="line"/>
      <point x="182" y="1260" type="line"/>
    </contour>
    <contour>
      <point x="250" y="1065" type="line"/>
      <point x="352" y="1065" type="line"/>
      <point x="127" y="0" type="line"/>
      <point x="25" y="0" type="line"/>
    </contour>
  </outline>
</glyph>
<glyph name="idieresis" format="2">
  <advance width="411"/>
  <unicode hex="00EF"/>
  <anchor x="0" y="0" name="Anchor-11"/>
  <anchor x="0" y="0" name="Anchor-10"/>
  <anchor x="391" y="1491" name="Anchor-9"/>
  <anchor x="258" y="20" name="Anchor-8"/>
  <anchor x="76" y="0" name="Anchor-7"/>
  <outline>
    <contour>
      <point x="174" y="1311" type="line"/>
      <point x="213" y="1491" type="line"/>
      <point x="301" y="1491" type="line"/>
      <point x="264" y="1311" type="line"/>
    </contour>
    <contour>
      <point x="442" y="1311" type="line"/>
      <point x="481" y="1491" type="line"/>
      <point x="569" y="1491" type="line"/>
      <point x="532" y="1311" type="line"/>
    </contour>
    <contour>
      <point x="250" y="1065" type="line"/>
      <point x="352" y="1065" type="line"/>
      <point x="127" y="0" type="line"/>
      <point x="25" y="0" type="line"/>
    </contour>
  </outline>
</glyph>
<glyph name="eth" format="2">
  <advance width="1177"/>
  <unicode hex="00F0"/>
  <outline>
    <contour>
      <point x="1120" y="1411" type="line"/>
      <point x="924" y="1298" type="line"/>
      <point x="1096" y="1062"/>
      <point x="1096" y="758" type="qcurve" smooth="yes"/>
      <point x="1096" y="585"/>
      <point x="981" y="286"/>
      <point x="795" y="91"/>
      <point x="563" y="-20"/>
      <point x="444" y="-20" type="qcurve" smooth="yes"/>
      <point x="270" y="-20"/>
      <point x="47" y="216"/>
      <point x="47" y="389" type="qcurve" smooth="yes"/>
      <point x="47" y="502"/>
      <point x="150" y="718"/>
      <point x="316" y="875"/>
      <point x="532" y="971"/>
      <point x="641" y="971" type="qcurve" smooth="yes"/>
      <point x="776" y="971"/>
      <point x="968" y="828"/>
      <point x="995" y="711" type="qcurve"/>
      <point x="998" y="774"/>
      <point x="995" y="838" type="qcurve" smooth="yes"/>
      <point x="985" y="1074"/>
      <point x="840" y="1255" type="qcurve"/>
      <point x="586" y="1106" type="line"/>
      <point x="561" y="1157" type="line"/>
      <point x="805" y="1298" type="line"/>
      <point x="722" y="1394"/>
      <point x="578" y="1495" type="qcurve"/>
      <point x="721" y="1495" type="line"/>
      <point x="818" y="1426"/>
      <point x="889" y="1339" type="qcurve"/>
      <point x="1096" y="1460" type="line"/>
    </contour>
    <contour>
      <point x="465" y="72" type="qcurve" smooth="yes"/>
      <point x="587" y="72"/>
      <point x="816" y="211"/>
      <point x="958" y="440"/>
      <point x="958" y="563" type="qcurve" smooth="yes"/>
      <point x="958" y="698"/>
      <point x="781" y="883"/>
      <point x="643" y="883" type="qcurve" smooth="yes"/>
      <point x="522" y="883"/>
      <point x="294" y="750"/>
      <point x="152" y="526"/>
      <point x="152" y="401" type="qcurve" smooth="yes"/>
      <point x="152" y="261"/>
      <point x="327" y="72"/>
    </contour>
  </outline>
</glyph>
<glyph name="ntilde" format="2">
  <advance width="1130"/>
  <unicode hex="00F1"/>
  <anchor x="0" y="0" name="Anchor-11"/>
  <anchor x="0" y="0" name="Anchor-10"/>
  <anchor x="831" y="1495" name="Anchor-9"/>
  <anchor x="0" y="0" name="Anchor-8"/>
  <anchor x="459" y="0" name="Anchor-7"/>
  <outline>
    <contour>
      <point x="682" y="1407" type="qcurve" smooth="yes"/>
      <point x="602" y="1407"/>
      <point x="563" y="1309" type="qcurve"/>
      <point x="496" y="1309" type="line"/>
      <point x="498" y="1318"/>
      <point x="512" y="1353"/>
      <point x="545" y="1404"/>
      <point x="589" y="1448"/>
      <point x="658" y="1479"/>
      <point x="698" y="1479" type="qcurve" smooth="yes"/>
      <point x="741" y="1479"/>
      <point x="816" y="1438"/>
      <point x="887" y="1397"/>
      <point x="928" y="1397" type="qcurve" smooth="yes"/>
      <point x="957" y="1397"/>
      <point x="1005" y="1416"/>
      <point x="1032" y="1442"/>
      <point x="1053" y="1473"/>
      <point x="1060" y="1490"/>
      <point x="1061" y="1495" type="qcurve"/>
      <point x="1128" y="1495" type="line"/>
      <point x="1126" y="1485"/>
      <point x="1111" y="1450"/>
      <point x="1076" y="1399"/>
      <point x="1030" y="1356"/>
      <point x="954" y="1325"/>
      <point x="911" y="1325" type="qcurve" smooth="yes"/>
      <point x="872" y="1325"/>
      <point x="804" y="1351"/>
      <point x="764" y="1381"/>
      <point x="709" y="1407"/>
    </contour>
    <contour>
      <point x="250" y="1065" type="line"/>
      <point x="346" y="1065" type="line"/>
      <point x="291" y="811" type="line"/>
      <point x="379" y="933"/>
      <point x="649" y="1083"/>
      <point x="782" y="1083" type="qcurve" smooth="yes"/>
      <point x="901" y="1083"/>
      <point x="1012" y="954"/>
      <point x="1012" y="827" type="qcurve" smooth="yes"/>
      <point x="1012" y="750"/>
      <point x="985" y="612" type="qcurve" smooth="yes"/>
      <point x="856" y="0" type="line"/>
      <point x="754" y="0" type="line"/>
      <point x="879" y="594" type="line" smooth="yes"/>
      <point x="901" y="699"/>
      <point x="901" y="784" type="qcurve" smooth="yes"/>
      <point x="901" y="888"/>
      <point x="817" y="989"/>
      <point x="731" y="989" type="qcurve" smooth="yes"/>
      <point x="604" y="989"/>
      <point x="335" y="799"/>
      <point x="266" y="659" type="qcurve"/>
      <point x="127" y="0" type="line"/>
      <point x="25" y="0" type="line"/>
    </contour>
  </outline>
</glyph>
<glyph name="divide" format="2">
  <advance width="1107"/>
  <unicode hex="00F7"/>
  <outline>
    <contour>
      <point x="498" y="807" type="line"/>
      <point x="498" y="973" type="line"/>
      <point x="588" y="973" type="line"/>
      <point x="588" y="807" type="line"/>
    </contour>
    <contour>
      <point x="131" y="526" type="line"/>
      <point x="131" y="614" type="line"/>
      <point x="956" y="614" type="line"/>
      <point x="956" y="526" type="line"/>
    </contour>
    <contour>
      <point x="498" y="166" type="line"/>
      <point x="498" y="330" type="line"/>
      <point x="588" y="330" type="line"/>
      <point x="588" y="166" type="line"/>
    </contour>
  </outline>
</glyph>
<glyph name="thorn" format="2">
  <advance width="1181"/>
  <unicode hex="00FE"/>
  <outline>
    <contour>
      <point x="-68" y="-436" type="line"/>
      <point x="334" y="1454" type="line"/>
      <point x="438" y="1454" type="line"/>
      <point x="311" y="864" type="line"/>
      <point x="394" y="963"/>
      <point x="621" y="1083"/>
      <point x="731" y="1083" type="qcurve" smooth="yes"/>
      <point x="847" y="1083"/>
      <point x="1023" y="955"/>
      <point x="1110" y="753"/>
      <point x="1110" y="633" type="qcurve" smooth="yes"/>
      <point x="1110" y="470"/>
      <point x="950" y="168"/>
      <point x="673" y="-20"/>
      <point x="516" y="-20" type="qcurve" smooth="yes"/>
      <point x="393" y="-20"/>
      <point x="217" y="118"/>
      <point x="176" y="229" type="qcurve"/>
      <point x="35" y="-436" type="line"/>
    </contour>
    <contour>
      <point x="512" y="72" type="qcurve" smooth="yes"/>
      <point x="609" y="72"/>
      <point x="794" y="170"/>
      <point x="925" y="325"/>
      <point x="1004" y="522"/>
      <point x="1004" y="618" type="qcurve" smooth="yes"/>
      <point x="1004" y="773"/>
      <point x="829" y="991"/>
      <point x="690" y="991" type="qcurve" smooth="yes"/>
      <point x="620" y="991"/>
      <point x="447" y="913"/>
      <point x="300" y="778"/>
      <point x="276" y="705" type="qcurve"/>
      <point x="201" y="354" type="line"/>
      <point x="227" y="232"/>
      <point x="395" y="72"/>
    </contour>
  </outline>
</glyph>
<glyph name="Aogonek" format="2">
  <advance width="1329"/>
  <unicode hex="0104"/>
  <anchor x="0" y="0" name="Anchor-11"/>
  <anchor x="0" y="0" name="Anchor-10"/>
  <anchor x="854" y="1454" name="Anchor-9"/>
  <anchor x="1169" y="0" name="Anchor-8"/>
  <anchor x="553" y="0" name="Anchor-7"/>
  <outline>
    <contour>
      <point x="1008" y="-215" type="qcurve" smooth="yes"/>
      <point x="1008" y="-244"/>
      <point x="1052" y="-278"/>
      <point x="1100" y="-289" type="qcurve"/>
      <point x="1055" y="-358" type="line"/>
      <point x="936" y="-336"/>
      <point x="936" y="-240" type="qcurve" smooth="yes"/>
      <point x="936" y="-182"/>
      <point x="1012" y="-68"/>
      <point x="1092" y="0" type="qcurve"/>
      <point x="1059" y="0" type="line"/>
      <point x="969" y="479" type="line"/>
      <point x="315" y="479" type="line"/>
      <point x="25" y="0" type="line"/>
      <point x="-88" y="0" type="line"/>
      <point x="807" y="1454" type="line"/>
      <point x="897" y="1454" type="line"/>
      <point x="1169" y="0" type="line"/>
      <point x="1081" y="-74"/>
      <point x="1008" y="-172"/>
    </contour>
    <contour>
      <point x="358" y="565" type="line"/>
      <point x="961" y="565" type="line"/>
      <point x="825" y="1327" type="line"/>
    </contour>
  </outline>
</glyph>
<glyph name="aogonek" format="2">
  <advance width="1210"/>
  <unicode hex="0105"/>
  <anchor x="0" y="0" name="Anchor-11"/>
  <anchor x="0" y="0" name="Anchor-10"/>
  <anchor x="719" y="1065" name="Anchor-9"/>
  <anchor x="958" y="0" name="Anchor-8"/>
  <anchor x="494" y="0" name="Anchor-7"/>
  <outline>
    <contour>
      <point x="944" y="123" type="qcurve" smooth="yes"/>
      <point x="944" y="92"/>
      <point x="979" y="92" type="qcurve"/>
      <point x="958" y="0" type="line"/>
      <point x="870" y="-74"/>
      <point x="797" y="-172"/>
      <point x="797" y="-215" type="qcurve" smooth="yes"/>
      <point x="797" y="-244"/>
      <point x="841" y="-278"/>
      <point x="889" y="-289" type="qcurve"/>
      <point x="844" y="-358" type="line"/>
      <point x="725" y="-336"/>
      <point x="725" y="-240" type="qcurve" smooth="yes"/>
      <point x="725" y="-181"/>
      <point x="804" y="-65"/>
      <point x="887" y="4" type="qcurve"/>
      <point x="844" y="22"/>
      <point x="844" y="70" type="qcurve" smooth="yes"/>
      <point x="844" y="88"/>
      <point x="868" y="213" type="qcurve"/>
      <point x="784" y="107"/>
      <point x="549" y="-20"/>
      <point x="434" y="-20" type="qcurve" smooth="yes"/>
      <point x="320" y="-20"/>
      <point x="144" y="105"/>
      <point x="55" y="308"/>
      <point x="55" y="428" type="qcurve" smooth="yes"/>
      <point x="55" y="551"/>
      <point x="155" y="791"/>
      <point x="317" y="971"/>
      <point x="536" y="1083"/>
      <point x="649" y="1083" type="qcurve" smooth="yes"/>
      <point x="775" y="1083"/>
      <point x="951" y="943"/>
      <point x="991" y="834" type="qcurve"/>
      <point x="1040" y="1065" type="line"/>
      <point x="1145" y="1065" type="line"/>
      <point x="948" y="147" type="line" smooth="yes"/>
      <point x="944" y="131"/>
    </contour>
    <contour>
      <point x="471" y="72" type="qcurve" smooth="yes"/>
      <point x="546" y="72"/>
      <point x="722" y="149"/>
      <point x="866" y="284"/>
      <point x="891" y="358" type="qcurve"/>
      <point x="965" y="709" type="line"/>
      <point x="950" y="826"/>
      <point x="773" y="991"/>
      <point x="653" y="991" type="qcurve" smooth="yes"/>
      <point x="528" y="991"/>
      <point x="298" y="825"/>
      <point x="162" y="570"/>
      <point x="162" y="440" type="qcurve" smooth="yes"/>
      <point x="162" y="288"/>
      <point x="337" y="72"/>
    </contour>
  </outline>
</glyph>
<glyph name="Ccircumflex" format="2">
  <advance width="1349"/>
  <unicode hex="0108"/>
  <anchor x="0" y="0" name="Anchor-11"/>
  <anchor x="0" y="0" name="Anchor-10"/>
  <anchor x="946" y="1851" name="Anchor-9"/>
  <anchor x="0" y="0" name="Anchor-8"/>
  <anchor x="563" y="0" name="Anchor-7"/>
  <outline>
    <contour>
      <point x="696" y="1686" type="line"/>
      <point x="922" y="1851" type="line"/>
      <point x="997" y="1851" type="line"/>
      <point x="1151" y="1686" type="line"/>
      <point x="1081" y="1649" type="line"/>
      <point x="944" y="1778" type="line"/>
      <point x="752" y="1649" type="line"/>
    </contour>
    <contour>
      <point x="100" y="590" type="qcurve" smooth="yes"/>
      <point x="100" y="713"/>
      <point x="176" y="963"/>
      <point x="324" y="1186"/>
      <point x="520" y="1360"/>
      <point x="778" y="1462"/>
      <point x="918" y="1462" type="qcurve" smooth="yes"/>
      <point x="1104" y="1462"/>
      <point x="1332" y="1289"/>
      <point x="1368" y="1145" type="qcurve"/>
      <point x="1278" y="1100" type="line"/>
      <point x="1201" y="1366"/>
      <point x="905" y="1366" type="qcurve" smooth="yes"/>
      <point x="781" y="1366"/>
      <point x="557" y="1275"/>
      <point x="391" y="1120"/>
      <point x="268" y="922"/>
      <point x="205" y="703"/>
      <point x="205" y="596" type="qcurve" smooth="yes"/>
      <point x="205" y="457"/>
      <point x="307" y="227"/>
      <point x="509" y="84"/>
      <point x="643" y="84" type="qcurve" smooth="yes"/>
      <point x="776" y="84"/>
      <point x="1047" y="228"/>
      <point x="1143" y="369" type="qcurve"/>
      <point x="1225" y="326" type="line"/>
      <point x="1122" y="164"/>
      <point x="791" y="-12"/>
      <point x="625" y="-12" type="qcurve" smooth="yes"/>
      <point x="501" y="-12"/>
      <point x="298" y="91"/>
      <point x="169" y="262"/>
      <point x="100" y="475"/>
    </contour>
  </outline>
</glyph>
<glyph name="Dcaron" format="2">
  <advance width="1409"/>
  <unicode hex="010E"/>
  <anchor x="0" y="0" name="Anchor-11"/>
  <anchor x="659" y="727" name="Anchor-10"/>
  <anchor x="911" y="1882" name="Anchor-9"/>
  <anchor x="0" y="0" name="Anchor-8"/>
  <anchor x="500" y="0" name="Anchor-7"/>
  <outline>
    <contour>
      <point x="662" y="1847" type="line"/>
      <point x="731" y="1882" type="line"/>
      <point x="868" y="1753" type="line"/>
      <point x="1061" y="1882" type="line"/>
      <point x="1114" y="1847" type="line"/>
      <point x="891" y="1681" type="line"/>
      <point x="815" y="1681" type="line"/>
    </contour>
    <contour>
      <point x="365" y="1454" type="line"/>
      <point x="825" y="1454" type="line" smooth="yes"/>
      <point x="956" y="1454"/>
      <point x="1161" y="1369"/>
      <point x="1287" y="1217"/>
      <point x="1352" y="1018"/>
      <point x="1352" y="899" type="qcurve" smooth="yes"/>
      <point x="1352" y="644"/>
      <point x="1136" y="233"/>
      <point x="753" y="0"/>
      <point x="516" y="0" type="qcurve" smooth="yes"/>
      <point x="55" y="0" type="line"/>
    </contour>
    <contour>
      <point x="537" y="94" type="line" smooth="yes"/>
      <point x="665" y="94"/>
      <point x="891" y="178"/>
      <point x="1059" y="326"/>
      <point x="1181" y="524"/>
      <point x="1243" y="757"/>
      <point x="1243" y="881" type="qcurve" smooth="yes"/>
      <point x="1243" y="1098"/>
      <point x="1017" y="1360"/>
      <point x="805" y="1360" type="qcurve" smooth="yes"/>
      <point x="449" y="1360" type="line"/>
      <point x="180" y="94" type="line"/>
    </contour>
  </outline>
</glyph>
<glyph name="Dcroat" format="2">
  <advance width="1423"/>
  <unicode hex="0110"/>
  <outline>
    <contour>
      <point x="840" y="1454" type="line" smooth="yes"/>
      <point x="971" y="1454"/>
      <point x="1175" y="1369"/>
      <point x="1302" y="1217"/>
      <point x="1366" y="1018"/>
      <point x="1366" y="899" type="qcurve" smooth="yes"/>
      <point x="1366" y="644"/>
      <point x="1150" y="233"/>
      <point x="767" y="0"/>
      <point x="530" y="0" type="qcurve" smooth="yes"/>
      <point x="70" y="0" type="line"/>
      <point x="215" y="688" type="line"/>
      <point x="92" y="688" type="line"/>
      <point x="111" y="774" type="line"/>
      <point x="233" y="774" type="line"/>
      <point x="379" y="1454" type="line"/>
    </contour>
    <contour>
      <point x="551" y="94" type="line" smooth="yes"/>
      <point x="679" y="94"/>
      <point x="905" y="178"/>
      <point x="1073" y="326"/>
      <point x="1195" y="524"/>
      <point x="1257" y="757"/>
      <point x="1257" y="881" type="qcurve" smooth="yes"/>
      <point x="1257" y="1098"/>
      <point x="1031" y="1360"/>
      <point x="819" y="1360" type="qcurve" smooth="yes"/>
      <point x="463" y="1360" type="line"/>
      <point x="338" y="774" type="line"/>
      <point x="684" y="774" type="line"/>
      <point x="666" y="688" type="line"/>
      <point x="319" y="688" type="line"/>
      <point x="195" y="94" type="line"/>
    </contour>
  </outline>
</glyph>
<glyph name="dcroat" format="2">
  <advance width="1210"/>
  <unicode hex="0111"/>
  <anchor x="1270" y="1065" name="Anchor-11"/>
  <anchor x="606" y="532" name="Anchor-10"/>
  <anchor x="719" y="1065" name="Anchor-9"/>
  <anchor x="0" y="0" name="Anchor-8"/>
  <anchor x="494" y="0" name="Anchor-7"/>
  <outline>
    <contour>
      <point x="1186" y="1268" type="line"/>
      <point x="948" y="147" type="line" smooth="yes"/>
      <point x="944" y="127"/>
      <point x="944" y="123" type="qcurve" smooth="yes"/>
      <point x="944" y="92"/>
      <point x="979" y="92" type="qcurve"/>
      <point x="958" y="0" type="line"/>
      <point x="940" y="-2"/>
      <point x="913" y="-2" type="qcurve" smooth="yes"/>
      <point x="880" y="2"/>
      <point x="844" y="42"/>
      <point x="844" y="72" type="qcurve" smooth="yes"/>
      <point x="844" y="99"/>
      <point x="868" y="213" type="qcurve"/>
      <point x="785" y="107"/>
      <point x="550" y="-20"/>
      <point x="438" y="-20" type="qcurve" smooth="yes"/>
      <point x="321" y="-20"/>
      <point x="144" y="106"/>
      <point x="55" y="307"/>
      <point x="55" y="428" type="qcurve" smooth="yes"/>
      <point x="55" y="592"/>
      <point x="222" y="896"/>
      <point x="499" y="1083"/>
      <point x="651" y="1083" type="qcurve" smooth="yes"/>
      <point x="775" y="1083"/>
      <point x="952" y="943"/>
      <point x="991" y="834" type="qcurve"/>
      <point x="1083" y="1268" type="line"/>
      <point x="866" y="1268" type="line"/>
      <point x="881" y="1341" type="line"/>
      <point x="1098" y="1341" type="line"/>
      <point x="1130" y="1495" type="line"/>
      <point x="1235" y="1495" type="line"/>
      <point x="1202" y="1341" type="line"/>
      <point x="1354" y="1341" type="line"/>
      <point x="1337" y="1268" type="line"/>
    </contour>
    <contour>
      <point x="891" y="358" type="qcurve"/>
      <point x="965" y="709" type="line"/>
      <point x="950" y="825"/>
      <point x="765" y="991"/>
      <point x="655" y="991" type="qcurve" smooth="yes"/>
      <point x="558" y="991"/>
      <point x="373" y="892"/>
      <point x="242" y="737"/>
      <point x="162" y="540"/>
      <point x="162" y="444" type="qcurve" smooth="yes"/>
      <point x="162" y="288"/>
      <point x="338" y="72"/>
      <point x="477" y="72" type="qcurve" smooth="yes"/>
      <point x="587" y="72"/>
      <point x="854" y="246"/>
    </contour>
  </outline>
</glyph>
<glyph name="emacron" format="2">
  <advance width="1083"/>
  <unicode hex="0113"/>
  <anchor x="0" y="0" name="Anchor-11"/>
  <anchor x="0" y="0" name="Anchor-10"/>
  <anchor x="766" y="1450" name="Anchor-9"/>
  <anchor x="549" y="0" name="Anchor-8"/>
  <anchor x="459" y="0" name="Anchor-7"/>
  <outline>
    <contour>
      <point x="487" y="1450" type="line"/>
      <point x="1044" y="1450" type="line"/>
      <point x="1028" y="1374" type="line"/>
      <point x="471" y="1374" type="line"/>
    </contour>
    <contour>
      <point x="688" y="1083" type="qcurve" smooth="yes"/>
      <point x="775" y="1083"/>
      <point x="924" y="1020"/>
      <point x="1020" y="888"/>
      <point x="1020" y="799" type="qcurve" smooth="yes"/>
      <point x="1020" y="492"/>
      <point x="463" y="492" type="qcurve" smooth="yes"/>
      <point x="340" y="492"/>
      <point x="164" y="504" type="qcurve"/>
      <point x="160" y="454"/>
      <point x="160" y="432" type="qcurve" smooth="yes"/>
      <point x="160" y="329"/>
      <point x="229" y="164"/>
      <point x="376" y="61"/>
      <point x="479" y="61" type="qcurve" smooth="yes"/>
      <point x="584" y="61"/>
      <point x="796" y="180"/>
      <point x="850" y="276" type="qcurve"/>
      <point x="936" y="250" type="line"/>
      <point x="864" y="129"/>
      <point x="602" y="-20"/>
      <point x="459" y="-20" type="qcurve" smooth="yes"/>
      <point x="273" y="-20"/>
      <point x="55" y="237"/>
      <point x="55" y="430" type="qcurve" smooth="yes"/>
      <point x="55" y="553"/>
      <point x="153" y="790"/>
      <point x="319" y="972"/>
      <point x="557" y="1083"/>
    </contour>
    <contour>
      <point x="469" y="569" type="qcurve" smooth="yes"/>
      <point x="924" y="569"/>
      <point x="924" y="801" type="qcurve" smooth="yes"/>
      <point x="924" y="898"/>
      <point x="778" y="999"/>
      <point x="676" y="999" type="qcurve" smooth="yes"/>
      <point x="583" y="999"/>
      <point x="415" y="930"/>
      <point x="291" y="813"/>
      <point x="202" y="665"/>
      <point x="180" y="582" type="qcurve"/>
      <point x="364" y="569"/>
    </contour>
  </outline>
</glyph>
<glyph name="Ebreve" format="2">
  <advance width="1196"/>
  <unicode hex="0114"/>
  <anchor x="0" y="0" name="Anchor-11"/>
  <anchor x="0" y="0" name="Anchor-10"/>
  <anchor x="887" y="1884" name="Anchor-9"/>
  <anchor x="977" y="0" name="Anchor-8"/>
  <anchor x="485" y="0" name="Anchor-7"/>
  <outline>
    <contour>
      <point x="997" y="1884" type="qcurve"/>
      <point x="1063" y="1884" type="line"/>
      <point x="1046" y="1806"/>
      <point x="920" y="1696"/>
      <point x="848" y="1696" type="qcurve" smooth="yes"/>
      <point x="786" y="1696"/>
      <point x="707" y="1779"/>
      <point x="707" y="1843" type="qcurve" smooth="yes"/>
      <point x="707" y="1856"/>
      <point x="711" y="1884" type="qcurve"/>
      <point x="778" y="1884" type="line"/>
      <point x="776" y="1874"/>
      <point x="776" y="1855" type="qcurve" smooth="yes"/>
      <point x="776" y="1813"/>
      <point x="824" y="1753"/>
      <point x="860" y="1753" type="qcurve" smooth="yes"/>
      <point x="900" y="1753"/>
      <point x="980" y="1829"/>
    </contour>
    <contour>
      <point x="365" y="1454" type="line"/>
      <point x="1268" y="1454" type="line"/>
      <point x="1249" y="1360" type="line"/>
      <point x="449" y="1360" type="line"/>
      <point x="328" y="788" type="line"/>
      <point x="1026" y="788" type="line"/>
      <point x="1006" y="698" type="line"/>
      <point x="309" y="698" type="line"/>
      <point x="180" y="94" type="line"/>
      <point x="997" y="94" type="line"/>
      <point x="977" y="0" type="line"/>
      <point x="55" y="0" type="line"/>
    </contour>
  </outline>
</glyph>
<glyph name="Edot" format="2">
  <advance width="1196"/>
  <unicode hex="0116"/>
  <anchor x="0" y="0" name="Anchor-11"/>
  <anchor x="0" y="0" name="Anchor-10"/>
  <anchor x="887" y="1884" name="Anchor-9"/>
  <anchor x="977" y="0" name="Anchor-8"/>
  <anchor x="485" y="0" name="Anchor-7"/>
  <outline>
    <contour>
      <point x="801" y="1700" type="line"/>
      <point x="840" y="1884" type="line"/>
      <point x="934" y="1884" type="line"/>
      <point x="895" y="1700" type="line"/>
    </contour>
    <contour>
      <point x="365" y="1454" type="line"/>
      <point x="1268" y="1454" type="line"/>
      <point x="1249" y="1360" type="line"/>
      <point x="449" y="1360" type="line"/>
      <point x="328" y="788" type="line"/>
      <point x="1026" y="788" type="line"/>
      <point x="1006" y="698" type="line"/>
      <point x="309" y="698" type="line"/>
      <point x="180" y="94" type="line"/>
      <point x="997" y="94" type="line"/>
      <point x="977" y="0" type="line"/>
      <point x="55" y="0" type="line"/>
    </contour>
  </outline>
</glyph>
<glyph name="Eogonek" format="2">
  <advance width="1196"/>
  <unicode hex="0118"/>
  <anchor x="0" y="0" name="Anchor-11"/>
  <anchor x="0" y="0" name="Anchor-10"/>
  <anchor x="795" y="1454" name="Anchor-9"/>
  <anchor x="977" y="0" name="Anchor-8"/>
  <anchor x="485" y="0" name="Anchor-7"/>
  <outline>
    <contour>
      <point x="1249" y="1360" type="line"/>
      <point x="449" y="1360" type="line"/>
      <point x="328" y="788" type="line"/>
      <point x="1026" y="788" type="line"/>
      <point x="1006" y="698" type="line"/>
      <point x="309" y="698" type="line"/>
      <point x="180" y="94" type="line"/>
      <point x="997" y="94" type="line"/>
      <point x="977" y="0" type="line"/>
      <point x="888" y="-75"/>
      <point x="815" y="-172"/>
      <point x="815" y="-215" type="qcurve" smooth="yes"/>
      <point x="815" y="-244"/>
      <point x="859" y="-278"/>
      <point x="907" y="-289" type="qcurve"/>
      <point x="862" y="-358" type="line"/>
      <point x="743" y="-336"/>
      <point x="743" y="-240" type="qcurve" smooth="yes"/>
      <point x="743" y="-182"/>
      <point x="819" y="-68"/>
      <point x="899" y="0" type="qcurve"/>
      <point x="55" y="0" type="line"/>
      <point x="365" y="1454" type="line"/>
      <point x="1268" y="1454" type="line"/>
    </contour>
  </outline>
</glyph>
<glyph name="Ecaron" format="2">
  <advance width="1196"/>
  <unicode hex="011A"/>
  <anchor x="0" y="0" name="Anchor-11"/>
  <anchor x="0" y="0" name="Anchor-10"/>
  <anchor x="887" y="1884" name="Anchor-9"/>
  <anchor x="977" y="0" name="Anchor-8"/>
  <anchor x="485" y="0" name="Anchor-7"/>
  <outline>
    <contour>
      <point x="637" y="1849" type="line"/>
      <point x="707" y="1884" type="line"/>
      <point x="844" y="1755" type="line"/>
      <point x="1036" y="1884" type="line"/>
      <point x="1090" y="1849" type="line"/>
      <point x="866" y="1683" type="line"/>
      <point x="791" y="1683" type="line"/>
    </contour>
    <contour>
      <point x="365" y="1454" type="line"/>
      <point x="1268" y="1454" type="line"/>
      <point x="1249" y="1360" type="line"/>
      <point x="449" y="1360" type="line"/>
      <point x="328" y="788" type="line"/>
      <point x="1026" y="788" type="line"/>
      <point x="1006" y="698" type="line"/>
      <point x="309" y="698" type="line"/>
      <point x="180" y="94" type="line"/>
      <point x="997" y="94" type="line"/>
      <point x="977" y="0" type="line"/>
      <point x="55" y="0" type="line"/>
    </contour>
  </outline>
</glyph>
<glyph name="Gbreve" format="2">
  <advance width="1406"/>
  <unicode hex="011E"/>
  <anchor x="0" y="0" name="Anchor-11"/>
  <anchor x="0" y="0" name="Anchor-10"/>
  <anchor x="1001" y="1878" name="Anchor-9"/>
  <anchor x="0" y="0" name="Anchor-8"/>
  <anchor x="631" y="0" name="Anchor-7"/>
  <outline>
    <contour>
      <point x="963" y="1690" type="qcurve" smooth="yes"/>
      <point x="900" y="1690"/>
      <point x="821" y="1773"/>
      <point x="821" y="1837" type="qcurve" smooth="yes"/>
      <point x="821" y="1850"/>
      <point x="825" y="1878" type="qcurve"/>
      <point x="893" y="1878" type="line"/>
      <point x="891" y="1868"/>
      <point x="891" y="1849" type="qcurve" smooth="yes"/>
      <point x="891" y="1807"/>
      <point x="939" y="1747"/>
      <point x="975" y="1747" type="qcurve" smooth="yes"/>
      <point x="1015" y="1747"/>
      <point x="1095" y="1823"/>
      <point x="1112" y="1878" type="qcurve"/>
      <point x="1178" y="1878" type="line"/>
      <point x="1161" y="1800"/>
      <point x="1035" y="1690"/>
    </contour>
    <contour>
      <point x="893" y="623" type="line"/>
      <point x="911" y="707" type="line"/>
      <point x="1313" y="707" type="line"/>
      <point x="1163" y="0" type="line"/>
      <point x="1071" y="0" type="line"/>
      <point x="1120" y="225" type="line"/>
      <point x="870" y="-10"/>
      <point x="608" y="-10" type="qcurve" smooth="yes"/>
      <point x="513" y="-10"/>
      <point x="348" y="57"/>
      <point x="228" y="173"/>
      <point x="142" y="327"/>
      <point x="100" y="506"/>
      <point x="100" y="600" type="qcurve" smooth="yes"/>
      <point x="100" y="730"/>
      <point x="184" y="987"/>
      <point x="337" y="1203"/>
      <point x="538" y="1370"/>
      <point x="788" y="1464"/>
      <point x="918" y="1464" type="qcurve" smooth="yes"/>
      <point x="1108" y="1464"/>
      <point x="1333" y="1294"/>
      <point x="1370" y="1147" type="qcurve"/>
      <point x="1276" y="1096" type="line"/>
      <point x="1201" y="1368"/>
      <point x="901" y="1368" type="qcurve" smooth="yes"/>
      <point x="786" y="1368"/>
      <point x="569" y="1281"/>
      <point x="401" y="1131"/>
      <point x="273" y="938"/>
      <point x="205" y="715"/>
      <point x="205" y="604" type="qcurve" smooth="yes"/>
      <point x="205" y="499"/>
      <point x="267" y="310"/>
      <point x="377" y="169"/>
      <point x="543" y="86"/>
      <point x="641" y="86" type="qcurve" smooth="yes"/>
      <point x="884" y="86"/>
      <point x="1145" y="344" type="qcurve"/>
      <point x="1204" y="623" type="line"/>
    </contour>
  </outline>
</glyph>
<glyph name="gbreve" format="2">
  <advance width="1200"/>
  <unicode hex="011F"/>
  <anchor x="0" y="0" name="Anchor-11"/>
  <anchor x="0" y="0" name="Anchor-10"/>
  <anchor x="776" y="1495" name="Anchor-9"/>
  <anchor x="0" y="0" name="Anchor-8"/>
  <anchor x="0" y="0" name="Anchor-7"/>
  <outline>
    <contour>
      <point x="887" y="1495" type="qcurve"/>
      <point x="952" y="1495" type="line"/>
      <point x="935" y="1417"/>
      <point x="809" y="1307"/>
      <point x="737" y="1307" type="qcurve" smooth="yes"/>
      <point x="675" y="1307"/>
      <point x="596" y="1390"/>
      <point x="596" y="1454" type="qcurve" smooth="yes"/>
      <point x="596" y="1467"/>
      <point x="600" y="1495" type="qcurve"/>
      <point x="668" y="1495" type="line"/>
      <point x="666" y="1485"/>
      <point x="666" y="1466" type="qcurve" smooth="yes"/>
      <point x="666" y="1424"/>
      <point x="714" y="1364"/>
      <point x="750" y="1364" type="qcurve" smooth="yes"/>
      <point x="790" y="1364"/>
      <point x="870" y="1440"/>
    </contour>
    <contour>
      <point x="-59" y="-211" type="qcurve"/>
      <point x="18" y="-164" type="line"/>
      <point x="54" y="-268"/>
      <point x="234" y="-373"/>
      <point x="356" y="-373" type="qcurve" smooth="yes"/>
      <point x="518" y="-373"/>
      <point x="770" y="-188"/>
      <point x="807" y="-20" type="qcurve" smooth="yes"/>
      <point x="856" y="213" type="line"/>
      <point x="774" y="110"/>
      <point x="540" y="-16"/>
      <point x="428" y="-16" type="qcurve" smooth="yes"/>
      <point x="314" y="-16"/>
      <point x="140" y="110"/>
      <point x="53" y="310"/>
      <point x="53" y="428" type="qcurve" smooth="yes"/>
      <point x="53" y="590"/>
      <point x="218" y="893"/>
      <point x="498" y="1083"/>
      <point x="655" y="1083" type="qcurve" smooth="yes"/>
      <point x="886" y="1083"/>
      <point x="999" y="834" type="qcurve"/>
      <point x="1049" y="1065" type="line"/>
      <point x="1141" y="1065" type="line"/>
      <point x="909" y="-20" type="line" smooth="yes"/>
      <point x="887" y="-125"/>
      <point x="774" y="-294"/>
      <point x="619" y="-401"/>
      <point x="435" y="-457"/>
      <point x="338" y="-457" type="qcurve" smooth="yes"/>
      <point x="169" y="-457"/>
      <point x="-17" y="-331"/>
    </contour>
    <contour>
      <point x="889" y="358" type="qcurve"/>
      <point x="963" y="709" type="line"/>
      <point x="944" y="832"/>
      <point x="768" y="991"/>
      <point x="651" y="991" type="qcurve" smooth="yes"/>
      <point x="551" y="991"/>
      <point x="366" y="889"/>
      <point x="237" y="730"/>
      <point x="160" y="536"/>
      <point x="160" y="444" type="qcurve" smooth="yes"/>
      <point x="160" y="288"/>
      <point x="334" y="72"/>
      <point x="473" y="72" type="qcurve" smooth="yes"/>
      <point x="597" y="72"/>
      <point x="851" y="252"/>
    </contour>
  </outline>
</glyph>
<glyph name="Hcircumflex" format="2">
  <advance width="1445"/>
  <unicode hex="0124"/>
  <anchor x="0" y="0" name="Anchor-11"/>
  <anchor x="766" y="727" name="Anchor-10"/>
  <anchor x="995" y="1851" name="Anchor-9"/>
  <anchor x="0" y="0" name="Anchor-8"/>
  <anchor x="612" y="0" name="Anchor-7"/>
  <outline>
    <contour>
      <point x="745" y="1686" type="line"/>
      <point x="971" y="1851" type="line"/>
      <point x="1047" y="1851" type="line"/>
      <point x="1200" y="1686" type="line"/>
      <point x="1130" y="1649" type="line"/>
      <point x="993" y="1778" type="line"/>
      <point x="801" y="1649" type="line"/>
    </contour>
    <contour>
      <point x="365" y="1454" type="line"/>
      <point x="469" y="1454" type="line"/>
      <point x="328" y="791" type="line"/>
      <point x="1192" y="791" type="line"/>
      <point x="1333" y="1454" type="line"/>
      <point x="1438" y="1454" type="line"/>
      <point x="1128" y="0" type="line"/>
      <point x="1024" y="0" type="line"/>
      <point x="1171" y="696" type="line"/>
      <point x="309" y="696" type="line"/>
      <point x="160" y="0" type="line"/>
      <point x="55" y="0" type="line"/>
    </contour>
  </outline>
</glyph>
<glyph name="hcircumflex" format="2">
  <advance width="1130"/>
  <unicode hex="0125"/>
  <anchor x="0" y="0" name="Anchor-11"/>
  <anchor x="565" y="532" name="Anchor-10"/>
  <anchor x="834" y="1849" name="Anchor-9"/>
  <anchor x="0" y="0" name="Anchor-8"/>
  <anchor x="453" y="0" name="Anchor-7"/>
  <outline>
    <contour>
      <point x="592" y="1683" type="line"/>
      <point x="809" y="1849" type="line"/>
      <point x="883" y="1849" type="line"/>
      <point x="1032" y="1683" type="line"/>
      <point x="965" y="1649" type="line"/>
      <point x="831" y="1776" type="line"/>
      <point x="645" y="1649" type="line"/>
    </contour>
    <contour>
      <point x="342" y="1495" type="line"/>
      <point x="444" y="1495" type="line"/>
      <point x="299" y="811" type="line"/>
      <point x="387" y="936"/>
      <point x="638" y="1083"/>
      <point x="764" y="1083" type="qcurve" smooth="yes"/>
      <point x="1008" y="1083"/>
      <point x="1008" y="807" type="qcurve" smooth="yes"/>
      <point x="1008" y="716"/>
      <point x="985" y="612" type="qcurve" smooth="yes"/>
      <point x="856" y="0" type="line"/>
      <point x="754" y="0" type="line"/>
      <point x="879" y="594" type="line" smooth="yes"/>
      <point x="899" y="704"/>
      <point x="899" y="764" type="qcurve" smooth="yes"/>
      <point x="899" y="989"/>
      <point x="713" y="989" type="qcurve" smooth="yes"/>
      <point x="591" y="989"/>
      <point x="332" y="799"/>
      <point x="266" y="659" type="qcurve"/>
      <point x="127" y="0" type="line"/>
      <point x="25" y="0" type="line"/>
    </contour>
  </outline>
</glyph>
<glyph name="Hbar" format="2">
  <advance width="1464"/>
  <unicode hex="0126"/>
  <outline>
    <contour>
      <point x="1489" y="1194" type="line"/>
      <point x="1475" y="1128" type="line"/>
      <point x="1378" y="1128" type="line"/>
      <point x="1139" y="0" type="line"/>
      <point x="1034" y="0" type="line"/>
      <point x="1182" y="696" type="line"/>
      <point x="317" y="696" type="line"/>
      <point x="170" y="0" type="line"/>
      <point x="66" y="0" type="line"/>
      <point x="305" y="1128" type="line"/>
      <point x="209" y="1128" type="line"/>
      <point x="223" y="1194" type="line"/>
      <point x="319" y="1194" type="line"/>
      <point x="375" y="1454" type="line"/>
      <point x="479" y="1454" type="line"/>
      <point x="424" y="1194" type="line"/>
      <point x="1288" y="1194" type="line"/>
      <point x="1343" y="1454" type="line"/>
      <point x="1448" y="1454" type="line"/>
      <point x="1393" y="1194" type="line"/>
    </contour>
    <contour>
      <point x="1202" y="791" type="line"/>
      <point x="1274" y="1128" type="line"/>
      <point x="410" y="1128" type="line"/>
      <point x="338" y="791" type="line"/>
    </contour>
  </outline>
</glyph>
<glyph name="Itilde" format="2">
  <advance width="477"/>
  <unicode hex="0128"/>
  <anchor x="0" y="0" name="Anchor-11"/>
  <anchor x="0" y="0" name="Anchor-10"/>
  <anchor x="508" y="1880" name="Anchor-9"/>
  <anchor x="160" y="0" name="Anchor-8"/>
  <anchor x="109" y="0" name="Anchor-7"/>
  <outline>
    <contour>
      <point x="358" y="1792" type="qcurve" smooth="yes"/>
      <point x="279" y="1792"/>
      <point x="240" y="1694" type="qcurve"/>
      <point x="172" y="1694" type="line"/>
      <point x="174" y="1703"/>
      <point x="188" y="1738"/>
      <point x="222" y="1789"/>
      <point x="265" y="1833"/>
      <point x="335" y="1864"/>
      <point x="375" y="1864" type="qcurve" smooth="yes"/>
      <point x="418" y="1864"/>
      <point x="492" y="1823"/>
      <point x="563" y="1782"/>
      <point x="604" y="1782" type="qcurve" smooth="yes"/>
      <point x="633" y="1782"/>
      <point x="681" y="1801"/>
      <point x="708" y="1827"/>
      <point x="729" y="1858"/>
      <point x="736" y="1875"/>
      <point x="737" y="1880" type="qcurve"/>
      <point x="805" y="1880" type="line"/>
      <point x="803" y="1870"/>
      <point x="788" y="1835"/>
      <point x="753" y="1784"/>
      <point x="707" y="1741"/>
      <point x="631" y="1710"/>
      <point x="588" y="1710" type="qcurve" smooth="yes"/>
      <point x="539" y="1710"/>
      <point x="459" y="1751"/>
      <point x="391" y="1792"/>
    </contour>
    <contour>
      <point x="365" y="1452" type="line"/>
      <point x="469" y="1452" type="line"/>
      <point x="160" y="0" type="line"/>
      <point x="55" y="0" type="line"/>
    </contour>
  </outline>
</glyph>
<glyph name="itilde" format="2">
  <advance width="411"/>
  <unicode hex="0129"/>
  <anchor x="0" y="0" name="Anchor-11"/>
  <anchor x="0" y="0" name="Anchor-10"/>
  <anchor x="563" y="1411" name="Anchor-9"/>
  <anchor x="258" y="20" name="Anchor-8"/>
  <anchor x="76" y="0" name="Anchor-7"/>
  <outline>
    <contour>
      <point x="414" y="1323" type="qcurve" smooth="yes"/>
      <point x="334" y="1323"/>
      <point x="295" y="1225" type="qcurve"/>
      <point x="227" y="1225" type="line"/>
      <point x="229" y="1234"/>
      <point x="243" y="1269"/>
      <point x="277" y="1320"/>
      <point x="320" y="1364"/>
      <point x="390" y="1395"/>
      <point x="430" y="1395" type="qcurve" smooth="yes"/>
      <point x="473" y="1395"/>
      <point x="547" y="1354"/>
      <point x="618" y="1313"/>
      <point x="659" y="1313" type="qcurve" smooth="yes"/>
      <point x="688" y="1313"/>
      <point x="736" y="1332"/>
      <point x="764" y="1358"/>
      <point x="785" y="1389"/>
      <point x="792" y="1406"/>
      <point x="793" y="1411" type="qcurve"/>
      <point x="860" y="1411" type="line"/>
      <point x="858" y="1401"/>
      <point x="843" y="1366"/>
      <point x="808" y="1315"/>
      <point x="762" y="1272"/>
      <point x="686" y="1241"/>
      <point x="643" y="1241" type="qcurve" smooth="yes"/>
      <point x="604" y="1241"/>
      <point x="536" y="1267"/>
      <point x="496" y="1297"/>
      <point x="441" y="1323"/>
    </contour>
    <contour>
      <point x="250" y="1065" type="line"/>
      <point x="352" y="1065" type="line"/>
      <point x="127" y="0" type="line"/>
      <point x="25" y="0" type="line"/>
    </contour>
  </outline>
</glyph>
<glyph name="Imacron" format="2">
  <advance width="477"/>
  <unicode hex="012A"/>
  <anchor x="0" y="0" name="Anchor-11"/>
  <anchor x="0" y="0" name="Anchor-10"/>
  <anchor x="498" y="1835" name="Anchor-9"/>
  <anchor x="160" y="0" name="Anchor-8"/>
  <anchor x="109" y="0" name="Anchor-7"/>
  <outline>
    <contour>
      <point x="203" y="1759" type="line"/>
      <point x="219" y="1835" type="line"/>
      <point x="776" y="1835" type="line"/>
      <point x="760" y="1759" type="line"/>
    </contour>
    <contour>
      <point x="365" y="1452" type="line"/>
      <point x="469" y="1452" type="line"/>
      <point x="160" y="0" type="line"/>
      <point x="55" y="0" type="line"/>
    </contour>
  </outline>
</glyph>
<glyph name="imacron" format="2">
  <advance width="411"/>
  <unicode hex="012B"/>
  <anchor x="0" y="0" name="Anchor-11"/>
  <anchor x="0" y="0" name="Anchor-10"/>
  <anchor x="383" y="1450" name="Anchor-9"/>
  <anchor x="258" y="20" name="Anchor-8"/>
  <anchor x="76" y="0" name="Anchor-7"/>
  <outline>
    <contour>
      <point x="88" y="1374" type="line"/>
      <point x="104" y="1450" type="line"/>
      <point x="662" y="1450" type="line"/>
      <point x="645" y="1374" type="line"/>
    </contour>
    <contour>
      <point x="250" y="1065" type="line"/>
      <point x="352" y="1065" type="line"/>
      <point x="127" y="0" type="line"/>
      <point x="25" y="0" type="line"/>
    </contour>
  </outline>
</glyph>
<glyph name="Ibreve" format="2">
  <advance width="477"/>
  <unicode hex="012C"/>
  <anchor x="0" y="0" name="Anchor-11"/>
  <anchor x="0" y="0" name="Anchor-10"/>
  <anchor x="508" y="1880" name="Anchor-9"/>
  <anchor x="160" y="0" name="Anchor-8"/>
  <anchor x="109" y="0" name="Anchor-7"/>
  <outline>
    <contour>
      <point x="618" y="1880" type="qcurve"/>
      <point x="684" y="1880" type="line"/>
      <point x="667" y="1802"/>
      <point x="541" y="1692"/>
      <point x="469" y="1692" type="qcurve" smooth="yes"/>
      <point x="407" y="1692"/>
      <point x="328" y="1775"/>
      <point x="328" y="1839" type="qcurve" smooth="yes"/>
      <point x="328" y="1852"/>
      <point x="332" y="1880" type="qcurve"/>
      <point x="399" y="1880" type="line"/>
      <point x="397" y="1870"/>
      <point x="397" y="1851" type="qcurve" smooth="yes"/>
      <point x="397" y="1809"/>
      <point x="445" y="1749"/>
      <point x="481" y="1749" type="qcurve" smooth="yes"/>
      <point x="521" y="1749"/>
      <point x="601" y="1825"/>
    </contour>
    <contour>
      <point x="365" y="1452" type="line"/>
      <point x="469" y="1452" type="line"/>
      <point x="160" y="0" type="line"/>
      <point x="55" y="0" type="line"/>
    </contour>
  </outline>
</glyph>
<glyph name="ibreve" format="2">
  <advance width="411"/>
  <unicode hex="012D"/>
  <anchor x="0" y="0" name="Anchor-11"/>
  <anchor x="0" y="0" name="Anchor-10"/>
  <anchor x="393" y="1495" name="Anchor-9"/>
  <anchor x="258" y="20" name="Anchor-8"/>
  <anchor x="76" y="0" name="Anchor-7"/>
  <outline>
    <contour>
      <point x="504" y="1495" type="qcurve"/>
      <point x="569" y="1495" type="line"/>
      <point x="552" y="1417"/>
      <point x="426" y="1307"/>
      <point x="354" y="1307" type="qcurve" smooth="yes"/>
      <point x="292" y="1307"/>
      <point x="213" y="1390"/>
      <point x="213" y="1454" type="qcurve" smooth="yes"/>
      <point x="213" y="1467"/>
      <point x="217" y="1495" type="qcurve"/>
      <point x="285" y="1495" type="line"/>
      <point x="283" y="1485"/>
      <point x="283" y="1466" type="qcurve" smooth="yes"/>
      <point x="283" y="1424"/>
      <point x="331" y="1364"/>
      <point x="367" y="1364" type="qcurve" smooth="yes"/>
      <point x="407" y="1364"/>
      <point x="487" y="1440"/>
    </contour>
    <contour>
      <point x="250" y="1065" type="line"/>
      <point x="352" y="1065" type="line"/>
      <point x="127" y="0" type="line"/>
      <point x="25" y="0" type="line"/>
    </contour>
  </outline>
</glyph>
<glyph name="Iogonek" format="2">
  <advance width="477"/>
  <unicode hex="012E"/>
  <anchor x="0" y="0" name="Anchor-11"/>
  <anchor x="0" y="0" name="Anchor-10"/>
  <anchor x="416" y="1450" name="Anchor-9"/>
  <anchor x="160" y="0" name="Anchor-8"/>
  <anchor x="109" y="0" name="Anchor-7"/>
  <outline>
    <contour>
      <point x="160" y="0" type="line"/>
      <point x="71" y="-75"/>
      <point x="-2" y="-172"/>
      <point x="-2" y="-215" type="qcurve" smooth="yes"/>
      <point x="-2" y="-244"/>
      <point x="42" y="-278"/>
      <point x="90" y="-289" type="qcurve"/>
      <point x="45" y="-358" type="line"/>
      <point x="-74" y="-336"/>
      <point x="-74" y="-240" type="qcurve" smooth="yes"/>
      <point x="-74" y="-182"/>
      <point x="2" y="-68"/>
      <point x="82" y="0" type="qcurve"/>
      <point x="55" y="0" type="line"/>
      <point x="365" y="1452" type="line"/>
      <point x="469" y="1452" type="line"/>
    </contour>
  </outline>
</glyph>
<glyph name="iogonek" format="2">
  <advance width="411"/>
  <unicode hex="012F"/>
  <anchor x="0" y="0" name="Anchor-11"/>
  <anchor x="0" y="0" name="Anchor-10"/>
  <anchor x="0" y="0" name="Anchor-9"/>
  <anchor x="127" y="0" name="Anchor-8"/>
  <anchor x="76" y="0" name="Anchor-7"/>
  <outline>
    <contour>
      <point x="342" y="1495" type="line"/>
      <point x="444" y="1495" type="line"/>
      <point x="406" y="1307" type="line"/>
      <point x="303" y="1307" type="line"/>
    </contour>
    <contour>
      <point x="25" y="0" type="line"/>
      <point x="250" y="1065" type="line"/>
      <point x="352" y="1065" type="line"/>
      <point x="127" y="0" type="line"/>
      <point x="38" y="-75"/>
      <point x="-35" y="-172"/>
      <point x="-35" y="-215" type="qcurve" smooth="yes"/>
      <point x="-35" y="-244"/>
      <point x="9" y="-278"/>
      <point x="57" y="-289" type="qcurve"/>
      <point x="12" y="-358" type="line"/>
      <point x="-106" y="-337"/>
      <point x="-106" y="-240" type="qcurve" smooth="yes"/>
      <point x="-106" y="-181"/>
      <point x="-31" y="-68"/>
      <point x="49" y="0" type="qcurve"/>
    </contour>
  </outline>
</glyph>
<glyph name="dotlessi" format="2">
  <advance width="411"/>
  <unicode hex="0131"/>
  <anchor x="0" y="0" name="Anchor-11"/>
  <anchor x="0" y="0" name="Anchor-10"/>
  <anchor x="301" y="1065" name="Anchor-9"/>
  <anchor x="258" y="20" name="Anchor-8"/>
  <anchor x="76" y="0" name="Anchor-7"/>
  <outline>
    <contour>
      <point x="250" y="1065" type="line"/>
      <point x="352" y="1065" type="line"/>
      <point x="127" y="0" type="line"/>
      <point x="25" y="0" type="line"/>
    </contour>
  </outline>
</glyph>
<glyph name="jcircumflex" format="2">
  <advance width="411"/>
  <unicode hex="0135"/>
  <anchor x="0" y="0" name="Anchor-11"/>
  <anchor x="0" y="0" name="Anchor-10"/>
  <anchor x="395" y="1462" name="Anchor-9"/>
  <anchor x="0" y="0" name="Anchor-8"/>
  <anchor x="94" y="0" name="Anchor-7"/>
  <outline>
    <contour>
      <point x="145" y="1296" type="line"/>
      <point x="371" y="1462" type="line"/>
      <point x="446" y="1462" type="line"/>
      <point x="600" y="1296" type="line"/>
      <point x="530" y="1260" type="line"/>
      <point x="393" y="1389" type="line"/>
      <point x="201" y="1260" type="line"/>
    </contour>
    <contour>
      <point x="-434" y="-287" type="qcurve"/>
      <point x="-365" y="-219" type="line"/>
      <point x="-324" y="-268"/>
      <point x="-227" y="-268" type="qcurve" smooth="yes"/>
      <point x="-152" y="-268"/>
      <point x="-8" y="-148"/>
      <point x="10" y="-61" type="qcurve" smooth="yes"/>
      <point x="250" y="1065" type="line"/>
      <point x="352" y="1065" type="line"/>
      <point x="113" y="-57" type="line" smooth="yes"/>
      <point x="86" y="-186"/>
      <point x="-126" y="-362"/>
      <point x="-238" y="-362" type="qcurve" smooth="yes"/>
      <point x="-373" y="-362"/>
    </contour>
  </outline>
</glyph>
<glyph name="Kcedilla" format="2">
  <advance width="1241"/>
  <unicode hex="0136"/>
  <anchor x="0" y="0" name="Anchor-11"/>
  <anchor x="0" y="0" name="Anchor-10"/>
  <anchor x="0" y="0" name="Anchor-9"/>
  <anchor x="0" y="0" name="Anchor-8"/>
  <anchor x="541" y="0" name="Anchor-7"/>
  <outline>
    <contour>
      <point x="365" y="1452" type="line"/>
      <point x="469" y="1452" type="line"/>
      <point x="281" y="571" type="line"/>
      <point x="1268" y="1454" type="line"/>
      <point x="1389" y="1454" type="line"/>
      <point x="680" y="817" type="line"/>
      <point x="1108" y="0" type="line"/>
      <point x="991" y="0" type="line"/>
      <point x="602" y="754" type="line"/>
      <point x="256" y="449" type="line"/>
      <point x="160" y="0" type="line"/>
      <point x="55" y="0" type="line"/>
    </contour>
    <contour>
      <point x="414" y="-383" type="line"/>
      <point x="471" y="-244" type="line"/>
      <point x="438" y="-244" type="line"/>
      <point x="471" y="-100" type="line"/>
      <point x="569" y="-100" type="line"/>
      <point x="539" y="-244" type="line"/>
      <point x="469" y="-383" type="line"/>
    </contour>
  </outline>
</glyph>
<glyph name="kcedilla" format="2">
  <advance width="1085"/>
  <unicode hex="0137"/>
  <anchor x="0" y="0" name="Anchor-11"/>
  <anchor x="0" y="0" name="Anchor-10"/>
  <anchor x="0" y="0" name="Anchor-9"/>
  <anchor x="0" y="0" name="Anchor-8"/>
  <anchor x="428" y="0" name="Anchor-7"/>
  <outline>
    <contour>
      <point x="1049" y="872" type="qcurve" smooth="yes"/>
      <point x="1049" y="738"/>
      <point x="831" y="527"/>
      <point x="637" y="475" type="qcurve"/>
      <point x="879" y="0" type="line"/>
      <point x="766" y="0" type="line"/>
      <point x="512" y="522" type="line"/>
      <point x="722" y="565"/>
      <point x="950" y="745"/>
      <point x="950" y="858" type="qcurve" smooth="yes"/>
      <point x="950" y="928"/>
      <point x="864" y="1001"/>
      <point x="786" y="1001" type="qcurve" smooth="yes"/>
      <point x="653" y="1001"/>
      <point x="374" y="779"/>
      <point x="250" y="578" type="qcurve"/>
      <point x="127" y="0" type="line"/>
      <point x="25" y="0" type="line"/>
      <point x="342" y="1495" type="line"/>
      <point x="444" y="1495" type="line"/>
      <point x="285" y="739" type="line"/>
      <point x="534" y="1087"/>
      <point x="811" y="1087" type="qcurve" smooth="yes"/>
      <point x="926" y="1087"/>
      <point x="1049" y="973"/>
    </contour>
    <contour>
      <point x="326" y="-244" type="line"/>
      <point x="358" y="-100" type="line"/>
      <point x="457" y="-100" type="line"/>
      <point x="426" y="-244" type="line"/>
      <point x="356" y="-383" type="line"/>
      <point x="301" y="-383" type="line"/>
      <point x="358" y="-244" type="line"/>
    </contour>
  </outline>
</glyph>
<glyph name="kgreenlandic" format="2">
  <advance width="1021"/>
  <unicode hex="0138"/>
  <outline>
    <contour>
      <point x="250" y="1065" type="line"/>
      <point x="352" y="1065" type="line"/>
      <point x="223" y="451" type="line"/>
      <point x="961" y="1063" type="line"/>
      <point x="1079" y="1063" type="line"/>
      <point x="565" y="631" type="line"/>
      <point x="868" y="0" type="line"/>
      <point x="756" y="0" type="line"/>
      <point x="483" y="569" type="line"/>
      <point x="199" y="338" type="line"/>
      <point x="127" y="0" type="line"/>
      <point x="25" y="0" type="line"/>
    </contour>
  </outline>
</glyph>
<glyph name="Lacute" format="2">
  <advance width="1136"/>
  <unicode hex="0139"/>
  <anchor x="950" y="1065" name="Anchor-11"/>
  <anchor x="610" y="727" name="Anchor-10"/>
  <anchor x="471" y="1884" name="Anchor-9"/>
  <anchor x="0" y="0" name="Anchor-8"/>
  <anchor x="520" y="0" name="Anchor-7"/>
  <outline>
    <contour>
      <point x="471" y="1677" type="line"/>
      <point x="408" y="1710" type="line"/>
      <point x="563" y="1884" type="line"/>
      <point x="680" y="1884" type="line"/>
    </contour>
    <contour>
      <point x="365" y="1454" type="line"/>
      <point x="469" y="1454" type="line"/>
      <point x="180" y="94" type="line"/>
      <point x="1001" y="94" type="line"/>
      <point x="981" y="0" type="line"/>
      <point x="55" y="0" type="line"/>
    </contour>
  </outline>
</glyph>
<glyph name="lacute" format="2">
  <advance width="509"/>
  <unicode hex="013A"/>
  <anchor x="496" y="1065" name="Anchor-11"/>
  <anchor x="254" y="532" name="Anchor-10"/>
  <anchor x="461" y="1925" name="Anchor-9"/>
  <anchor x="0" y="0" name="Anchor-8"/>
  <anchor x="211" y="0" name="Anchor-7"/>
  <outline>
    <contour>
      <point x="461" y="1718" type="line"/>
      <point x="397" y="1751" type="line"/>
      <point x="553" y="1925" type="line"/>
      <point x="670" y="1925" type="line"/>
    </contour>
    <contour>
      <point x="63" y="129" type="qcurve" smooth="yes"/>
      <point x="63" y="148"/>
      <point x="70" y="180" type="qcurve" smooth="yes"/>
      <point x="348" y="1495" type="line"/>
      <point x="451" y="1495" type="line"/>
      <point x="178" y="211" type="line" smooth="yes"/>
      <point x="174" y="183"/>
      <point x="174" y="174" type="qcurve" smooth="yes"/>
      <point x="174" y="131"/>
      <point x="225" y="82"/>
      <point x="274" y="82" type="qcurve" smooth="yes"/>
      <point x="327" y="82"/>
      <point x="385" y="102" type="qcurve"/>
      <point x="385" y="20" type="line"/>
      <point x="350" y="7"/>
      <point x="247" y="-12"/>
      <point x="211" y="-12" type="qcurve" smooth="yes"/>
      <point x="142" y="-12"/>
      <point x="63" y="63"/>
    </contour>
  </outline>
</glyph>
<glyph name="Lcedilla" format="2">
  <advance width="1136"/>
  <unicode hex="013B"/>
  <anchor x="950" y="1065" name="Anchor-11"/>
  <anchor x="610" y="727" name="Anchor-10"/>
  <anchor x="410" y="1454" name="Anchor-9"/>
  <anchor x="0" y="0" name="Anchor-8"/>
  <anchor x="520" y="0" name="Anchor-7"/>
  <outline>
    <contour>
      <point x="365" y="1454" type="line"/>
      <point x="469" y="1454" type="line"/>
      <point x="180" y="94" type="line"/>
      <point x="1001" y="94" type="line"/>
      <point x="981" y="0" type="line"/>
      <point x="55" y="0" type="line"/>
    </contour>
    <contour>
      <point x="393" y="-383" type="line"/>
      <point x="451" y="-244" type="line"/>
      <point x="418" y="-244" type="line"/>
      <point x="451" y="-100" type="line"/>
      <point x="549" y="-100" type="line"/>
      <point x="518" y="-244" type="line"/>
      <point x="449" y="-383" type="line"/>
    </contour>
  </outline>
</glyph>
<glyph name="Lcaron" format="2">
  <advance width="1136"/>
  <unicode hex="013D"/>
  <anchor x="950" y="1065" name="Anchor-11"/>
  <anchor x="610" y="727" name="Anchor-10"/>
  <anchor x="410" y="1454" name="Anchor-9"/>
  <anchor x="0" y="0" name="Anchor-8"/>
  <anchor x="520" y="0" name="Anchor-7"/>
  <outline>
    <contour>
      <point x="936" y="1321" type="line"/>
      <point x="1092" y="1495" type="line"/>
      <point x="1208" y="1495" type="line"/>
      <point x="1001" y="1288" type="line"/>
    </contour>
    <contour>
      <point x="365" y="1454" type="line"/>
      <point x="469" y="1454" type="line"/>
      <point x="180" y="94" type="line"/>
      <point x="1001" y="94" type="line"/>
      <point x="981" y="0" type="line"/>
      <point x="55" y="0" type="line"/>
    </contour>
  </outline>
</glyph>
<glyph name="Ldot" format="2">
  <advance width="1136"/>
  <unicode hex="013F"/>
  <anchor x="950" y="1065" name="Anchor-11"/>
  <anchor x="610" y="727" name="Anchor-10"/>
  <anchor x="410" y="1454" name="Anchor-9"/>
  <anchor x="0" y="0" name="Anchor-8"/>
  <anchor x="520" y="0" name="Anchor-7"/>
  <outline>
    <contour>
      <point x="365" y="1454" type="line"/>
      <point x="469" y="1454" type="line"/>
      <point x="180" y="94" type="line"/>
      <point x="1001" y="94" type="line"/>
      <point x="981" y="0" type="line"/>
      <point x="55" y="0" type="line"/>
    </contour>
    <contour>
      <point x="678" y="723" type="line"/>
      <point x="723" y="930" type="line"/>
      <point x="811" y="930" type="line"/>
      <point x="768" y="723" type="line"/>
    </contour>
  </outline>
</glyph>
<glyph name="lslash" format="2">
  <advance width="544"/>
  <unicode hex="0142"/>
  <outline>
    <contour>
      <point x="307" y="82" type="qcurve" smooth="yes"/>
      <point x="358" y="82"/>
      <point x="420" y="102" type="qcurve"/>
      <point x="422" y="20" type="line"/>
      <point x="335" y="-12"/>
      <point x="246" y="-12" type="qcurve" smooth="yes"/>
      <point x="176" y="-12"/>
      <point x="98" y="62"/>
      <point x="98" y="127" type="qcurve" smooth="yes"/>
      <point x="98" y="153"/>
      <point x="104" y="180" type="qcurve" smooth="yes"/>
      <point x="219" y="721" type="line"/>
      <point x="63" y="604" type="line"/>
      <point x="37" y="664" type="line"/>
      <point x="240" y="815" type="line"/>
      <point x="383" y="1495" type="line"/>
      <point x="485" y="1495" type="line"/>
      <point x="360" y="907" type="line"/>
      <point x="569" y="1065" type="line"/>
      <point x="598" y="1004" type="line"/>
      <point x="340" y="811" type="line"/>
      <point x="217" y="227" type="line" smooth="yes"/>
      <point x="209" y="200"/>
      <point x="209" y="174" type="qcurve" smooth="yes"/>
      <point x="209" y="131"/>
      <point x="260" y="82"/>
    </contour>
  </outline>
</glyph>
<glyph name="Nacute" format="2">
  <advance width="1517"/>
  <unicode hex="0143"/>
  <anchor x="0" y="0" name="Anchor-11"/>
  <anchor x="0" y="0" name="Anchor-10"/>
  <anchor x="1024" y="1878" name="Anchor-9"/>
  <anchor x="0" y="0" name="Anchor-8"/>
  <anchor x="649" y="0" name="Anchor-7"/>
  <outline>
    <contour>
      <point x="1024" y="1671" type="line"/>
      <point x="961" y="1704" type="line"/>
      <point x="1116" y="1878" type="line"/>
      <point x="1233" y="1878" type="line"/>
    </contour>
    <contour>
      <point x="365" y="1454" type="line"/>
      <point x="446" y="1454" type="line"/>
      <point x="1135" y="174" type="line"/>
      <point x="1405" y="1452" type="line"/>
      <point x="1509" y="1452" type="line"/>
      <point x="1200" y="0" type="line"/>
      <point x="1108" y="0" type="line"/>
      <point x="428" y="1257" type="line"/>
      <point x="160" y="0" type="line"/>
      <point x="55" y="0" type="line"/>
    </contour>
  </outline>
</glyph>
<glyph name="Ncedilla" format="2">
  <advance width="1517"/>
  <unicode hex="0145"/>
  <anchor x="0" y="0" name="Anchor-11"/>
  <anchor x="0" y="0" name="Anchor-10"/>
  <anchor x="963" y="1448" name="Anchor-9"/>
  <anchor x="0" y="0" name="Anchor-8"/>
  <anchor x="649" y="0" name="Anchor-7"/>
  <outline>
    <contour>
      <point x="365" y="1454" type="line"/>
      <point x="446" y="1454" type="line"/>
      <point x="1135" y="174" type="line"/>
      <point x="1405" y="1452" type="line"/>
      <point x="1509" y="1452" type="line"/>
      <point x="1200" y="0" type="line"/>
      <point x="1108" y="0" type="line"/>
      <point x="428" y="1257" type="line"/>
      <point x="160" y="0" type="line"/>
      <point x="55" y="0" type="line"/>
    </contour>
    <contour>
      <point x="522" y="-383" type="line"/>
      <point x="580" y="-244" type="line"/>
      <point x="547" y="-244" type="line"/>
      <point x="580" y="-100" type="line"/>
      <point x="678" y="-100" type="line"/>
      <point x="647" y="-244" type="line"/>
      <point x="578" y="-383" type="line"/>
    </contour>
  </outline>
</glyph>
<glyph name="ncedilla" format="2">
  <advance width="1130"/>
  <unicode hex="0146"/>
  <anchor x="0" y="0" name="Anchor-11"/>
  <anchor x="0" y="0" name="Anchor-10"/>
  <anchor x="739" y="1065" name="Anchor-9"/>
  <anchor x="0" y="0" name="Anchor-8"/>
  <anchor x="459" y="0" name="Anchor-7"/>
  <outline>
    <contour>
      <point x="250" y="1065" type="line"/>
      <point x="346" y="1065" type="line"/>
      <point x="291" y="811" type="line"/>
      <point x="379" y="933"/>
      <point x="649" y="1083"/>
      <point x="782" y="1083" type="qcurve" smooth="yes"/>
      <point x="901" y="1083"/>
      <point x="1012" y="954"/>
      <point x="1012" y="827" type="qcurve" smooth="yes"/>
      <point x="1012" y="750"/>
      <point x="985" y="612" type="qcurve" smooth="yes"/>
      <point x="856" y="0" type="line"/>
      <point x="754" y="0" type="line"/>
      <point x="879" y="594" type="line" smooth="yes"/>
      <point x="901" y="699"/>
      <point x="901" y="784" type="qcurve" smooth="yes"/>
      <point x="901" y="888"/>
      <point x="817" y="989"/>
      <point x="731" y="989" type="qcurve" smooth="yes"/>
      <point x="604" y="989"/>
      <point x="335" y="799"/>
      <point x="266" y="659" type="qcurve"/>
      <point x="127" y="0" type="line"/>
      <point x="25" y="0" type="line"/>
    </contour>
    <contour>
      <point x="332" y="-383" type="line"/>
      <point x="389" y="-244" type="line"/>
      <point x="356" y="-244" type="line"/>
      <point x="389" y="-100" type="line"/>
      <point x="487" y="-100" type="line"/>
      <point x="457" y="-244" type="line"/>
      <point x="387" y="-383" type="line"/>
    </contour>
  </outline>
</glyph>
<glyph name="Ncaron" format="2">
  <advance width="1517"/>
  <unicode hex="0147"/>
  <anchor x="0" y="0" name="Anchor-11"/>
  <anchor x="0" y="0" name="Anchor-10"/>
  <anchor x="1055" y="1878" name="Anchor-9"/>
  <anchor x="0" y="0" name="Anchor-8"/>
  <anchor x="649" y="0" name="Anchor-7"/>
  <outline>
    <contour>
      <point x="805" y="1843" type="line"/>
      <point x="874" y="1878" type="line"/>
      <point x="1012" y="1749" type="line"/>
      <point x="1204" y="1878" type="line"/>
      <point x="1257" y="1843" type="line"/>
      <point x="1034" y="1677" type="line"/>
      <point x="958" y="1677" type="line"/>
    </contour>
    <contour>
      <point x="365" y="1454" type="line"/>
      <point x="446" y="1454" type="line"/>
      <point x="1135" y="174" type="line"/>
      <point x="1405" y="1452" type="line"/>
      <point x="1509" y="1452" type="line"/>
      <point x="1200" y="0" type="line"/>
      <point x="1108" y="0" type="line"/>
      <point x="428" y="1257" type="line"/>
      <point x="160" y="0" type="line"/>
      <point x="55" y="0" type="line"/>
    </contour>
  </outline>
</glyph>
<glyph name="ncaron" format="2">
  <advance width="1130"/>
  <unicode hex="0148"/>
  <anchor x="0" y="0" name="Anchor-11"/>
  <anchor x="0" y="0" name="Anchor-10"/>
  <anchor x="831" y="1495" name="Anchor-9"/>
  <anchor x="0" y="0" name="Anchor-8"/>
  <anchor x="459" y="0" name="Anchor-7"/>
  <outline>
    <contour>
      <point x="582" y="1460" type="line"/>
      <point x="651" y="1495" type="line"/>
      <point x="788" y="1366" type="line"/>
      <point x="981" y="1495" type="line"/>
      <point x="1034" y="1460" type="line"/>
      <point x="811" y="1294" type="line"/>
      <point x="735" y="1294" type="line"/>
    </contour>
    <contour>
      <point x="250" y="1065" type="line"/>
      <point x="346" y="1065" type="line"/>
      <point x="291" y="811" type="line"/>
      <point x="379" y="933"/>
      <point x="649" y="1083"/>
      <point x="782" y="1083" type="qcurve" smooth="yes"/>
      <point x="901" y="1083"/>
      <point x="1012" y="954"/>
      <point x="1012" y="827" type="qcurve" smooth="yes"/>
      <point x="1012" y="750"/>
      <point x="985" y="612" type="qcurve" smooth="yes"/>
      <point x="856" y="0" type="line"/>
      <point x="754" y="0" type="line"/>
      <point x="879" y="594" type="line" smooth="yes"/>
      <point x="901" y="699"/>
      <point x="901" y="784" type="qcurve" smooth="yes"/>
      <point x="901" y="888"/>
      <point x="817" y="989"/>
      <point x="731" y="989" type="qcurve" smooth="yes"/>
      <point x="604" y="989"/>
      <point x="335" y="799"/>
      <point x="266" y="659" type="qcurve"/>
      <point x="127" y="0" type="line"/>
      <point x="25" y="0" type="line"/>
    </contour>
  </outline>
</glyph>
<glyph name="Eng" format="2">
  <advance width="1513"/>
  <unicode hex="014A"/>
  <outline>
    <contour>
      <point x="633" y="-287" type="qcurve"/>
      <point x="702" y="-219" type="line"/>
      <point x="743" y="-268"/>
      <point x="840" y="-268" type="qcurve" smooth="yes"/>
      <point x="915" y="-268"/>
      <point x="1059" y="-148"/>
      <point x="1077" y="-61" type="qcurve" smooth="yes"/>
      <point x="1094" y="8" type="line"/>
      <point x="428" y="1255" type="line"/>
      <point x="160" y="0" type="line"/>
      <point x="55" y="0" type="line"/>
      <point x="365" y="1454" type="line"/>
      <point x="444" y="1454" type="line"/>
      <point x="1126" y="178" type="line"/>
      <point x="1399" y="1452" type="line"/>
      <point x="1501" y="1452" type="line"/>
      <point x="1182" y="-59" type="line" smooth="yes"/>
      <point x="1163" y="-145"/>
      <point x="1047" y="-286"/>
      <point x="900" y="-362"/>
      <point x="829" y="-362" type="qcurve" smooth="yes"/>
      <point x="694" y="-362"/>
    </contour>
  </outline>
</glyph>
<glyph name="eng" format="2">
  <advance width="1130"/>
  <unicode hex="014B"/>
  <outline>
    <contour>
      <point x="295" y="-287" type="qcurve"/>
      <point x="365" y="-219" type="line"/>
      <point x="406" y="-268"/>
      <point x="502" y="-268" type="qcurve" smooth="yes"/>
      <point x="575" y="-268"/>
      <point x="719" y="-147"/>
      <point x="739" y="-61" type="qcurve" smooth="yes"/>
      <point x="879" y="594" type="line" smooth="yes"/>
      <point x="901" y="699"/>
      <point x="901" y="784" type="qcurve" smooth="yes"/>
      <point x="901" y="888"/>
      <point x="817" y="989"/>
      <point x="731" y="989" type="qcurve" smooth="yes"/>
      <point x="604" y="989"/>
      <point x="335" y="799"/>
      <point x="266" y="659" type="qcurve"/>
      <point x="127" y="0" type="line"/>
      <point x="25" y="0" type="line"/>
      <point x="250" y="1065" type="line"/>
      <point x="346" y="1065" type="line"/>
      <point x="291" y="811" type="line"/>
      <point x="379" y="933"/>
      <point x="649" y="1083"/>
      <point x="782" y="1083" type="qcurve" smooth="yes"/>
      <point x="901" y="1083"/>
      <point x="1012" y="954"/>
      <point x="1012" y="827" type="qcurve" smooth="yes"/>
      <point x="1012" y="750"/>
      <point x="985" y="612" type="qcurve" smooth="yes"/>
      <point x="844" y="-57" type="line" smooth="yes"/>
      <point x="816" y="-186"/>
      <point x="602" y="-362"/>
      <point x="492" y="-362" type="qcurve" smooth="yes"/>
      <point x="356" y="-362"/>
    </contour>
  </outline>
</glyph>
